<svg xmlns="http://www.w3.org/2000/svg" xmlns:xlink="http://www.w3.org/1999/xlink" width="98" height="98" viewBox="0 0 98 98">
  <defs>
    <filter id="Ellipse_23" x="0" y="0" width="98" height="98" filterUnits="userSpaceOnUse">
      <feOffset dy="3" input="SourceAlpha"/>
      <feGaussianBlur stdDeviation="3" result="blur"/>
      <feFlood flood-opacity="0.161"/>
      <feComposite operator="in" in2="blur"/>
      <feComposite in="SourceGraphic"/>
    </filter>
  </defs>
  <g id="Group_85" data-name="Group 85" transform="translate(-148 -514)">
    <g transform="matrix(1, 0, 0, 1, 148, 514)" filter="url(#Ellipse_23)">
      <circle id="Ellipse_23-2" data-name="Ellipse 23" cx="40" cy="40" r="40" transform="translate(9 6)" fill="#fff"/>
    </g>
    <path id="Path_118" data-name="Path 118" d="M314.184,288.514c-.443-4.91-4.67-6.579-10.016-7.079l.04-6.807-4.143-.023-.039,6.627c-1.089-.006-2.2.009-3.307.025l.038-6.672-4.141-.024-.04,6.8c-.9.013-1.779.025-2.637.021v-.022l-5.714-.035-.026,4.426s3.061-.041,3.009.015a2.14,2.14,0,0,1,2.374,1.829l-.046,7.755a3.5,3.5,0,0,1,.438.031c-.138,0-.286,0-.437,0l-.064,10.863a1.464,1.464,0,0,1-1.564,1.363c.052.047-3.013-.019-3.013-.019l-.851,4.945,5.392.032c1,.007,1.99.029,2.96.041l-.038,6.884,4.138.025.039-6.813c1.136.031,2.235.045,3.309.052l-.04,6.78,4.143.023.041-6.871c6.967-.36,11.854-2.087,12.5-8.623.52-5.264-1.945-7.629-5.893-8.6C313,294.254,314.514,292.107,314.184,288.514ZM308.3,303.2c-.027,5.144-8.833,4.51-11.642,4.5l.055-9.122C299.524,298.591,308.334,297.835,308.3,303.2Zm-1.852-12.879c-.029,4.681-7.373,4.092-9.711,4.079l.048-8.273C299.125,286.14,306.478,285.439,306.45,290.321Z" transform="translate(-104.044 263.439)" fill="#f7931a"/>
  </g>
</svg>
