<svg xmlns="http://www.w3.org/2000/svg" xmlns:xlink="http://www.w3.org/1999/xlink" width="98" height="98" viewBox="0 0 98 98">
  <defs>
    <filter id="Ellipse_26" x="0" y="0" width="98" height="98" filterUnits="userSpaceOnUse">
      <feOffset dy="3" input="SourceAlpha"/>
      <feGaussianBlur stdDeviation="3" result="blur"/>
      <feFlood flood-opacity="0.161"/>
      <feComposite operator="in" in2="blur"/>
      <feComposite in="SourceGraphic"/>
    </filter>
  </defs>
  <g id="Group_88" data-name="Group 88" transform="translate(-1120 -514)">
    <g transform="matrix(1, 0, 0, 1, 1120, 514)" filter="url(#Ellipse_26)">
      <circle id="Ellipse_26-2" data-name="Ellipse 26" cx="40" cy="40" r="40" transform="translate(9 6)" fill="#fff"/>
    </g>
    <g id="Group_37" data-name="Group 37" transform="translate(851.861 273.347)">
      <path id="Path_125" data-name="Path 125" d="M325.843,302.505a9.557,9.557,0,0,1-5.671,3.456c-.176.071-.264.176-.264.318l.105,2.743a.611.611,0,0,1-.185.446.6.6,0,0,1-.449.185h-5.222a.632.632,0,0,1-.634-.631l.054-2.956a.252.252,0,0,0-.21-.264,9.386,9.386,0,0,1-7.018-9.338v-1.633a.6.6,0,0,1,.185-.449.615.615,0,0,1,.449-.185h7.386a.615.615,0,0,1,.447.185.606.606,0,0,1,.184.449v1.212a3.066,3.066,0,0,0,.608,2.005,1.923,1.923,0,0,0,1.556.739,1.95,1.95,0,0,0,1.556-.713,2.711,2.711,0,0,0,.608-1.82,3.072,3.072,0,0,0-.951-2.19,33.161,33.161,0,0,0-3.8-3.033,54.205,54.205,0,0,1-4.326-3.4,13.619,13.619,0,0,1-2.9-3.746,10.747,10.747,0,0,1-1.213-5.2,10.148,10.148,0,0,1,1.951-6.251,9.459,9.459,0,0,1,5.328-3.508.248.248,0,0,0,.211-.264l-.052-3.377a.632.632,0,0,1,.633-.633h5.118a.63.63,0,0,1,.633.633l-.053,3.272q0,.264.21.315a9.839,9.839,0,0,1,5.566,3.536,10.224,10.224,0,0,1,2.031,6.436v1.266a.63.63,0,0,1-.633.633h-7.333a.63.63,0,0,1-.634-.633v-1.477a2.817,2.817,0,0,0-.633-1.9A2,2,0,0,0,316.9,276a1.856,1.856,0,0,0-1.53.738,3.076,3.076,0,0,0-.58,1.952,3.561,3.561,0,0,0,.9,2.374,23.418,23.418,0,0,0,3.641,3.061q3.322,2.479,5.01,4.008a11.77,11.77,0,0,1,2.638,3.4,9.606,9.606,0,0,1,.951,4.4A10.334,10.334,0,0,1,325.843,302.505Z" fill="#382094"/>
    </g>
  </g>
</svg>
