<svg xmlns="http://www.w3.org/2000/svg" width="200.449" height="227.303" viewBox="0 0 200.449 227.303">
  <g id="Group_70" data-name="Group 70" transform="translate(309.468 -227.232)">
    <path id="Path_31" data-name="Path 31" d="M-122.73,374.943v-98.67a14.611,14.611,0,0,0-7.3-12.652l-85.389-49.327a14.608,14.608,0,0,0-14.617,0l-85.389,49.327a14.611,14.611,0,0,0-7.3,12.652v98.67a14.61,14.61,0,0,0,7.3,12.651l85.389,49.328a14.612,14.612,0,0,0,14.617,0l85.389-49.328A14.61,14.61,0,0,0-122.73,374.943Z" transform="translate(13.486 15.277)" fill="none" stroke="#38d5fc" stroke-miterlimit="10" stroke-width="0.449"/>
    <path id="Path_32" data-name="Path 32" d="M-117.045,386.37V295.4a13.47,13.47,0,0,0-6.732-11.664l-78.728-45.48a13.471,13.471,0,0,0-13.477,0l-78.728,45.48a13.47,13.47,0,0,0-6.733,11.664V386.37a13.472,13.472,0,0,0,6.733,11.665l78.728,45.479a13.471,13.471,0,0,0,13.477,0l78.728-45.479A13.473,13.473,0,0,0-117.045,386.37Z" transform="translate(-0.301)" fill="#adefff"/>
  </g>
</svg>
