<svg id="hyperdao-logo-up" xmlns="http://www.w3.org/2000/svg" width="253.106" height="44.842" viewBox="0 0 253.106 44.842">
  <path id="Path_15" data-name="Path 15" d="M37.116,8.96,27.059,3.122a10.757,10.757,0,0,0-10.776,0L6.2,8.934A10.77,10.77,0,0,0,.8,18.27V29.9a10.77,10.77,0,0,0,5.4,9.336L16.283,45.07a10.757,10.757,0,0,0,10.776,0l10.082-5.813a10.77,10.77,0,0,0,5.4-9.336V18.3A10.848,10.848,0,0,0,37.116,8.96ZM36.344,28.1c.026,4.527-3.755,7.15-6.353,8.333a2.285,2.285,0,0,1-3.292-1.62c-.746-4.861-2.546-8.153-7.33-9.49-.643-.18-1.132.412-1.029,1.08.514,3.369,1.595,6.276-.129,9.439-.514.952-1.98.952-2.983.566-2.6-1.029-7.844-3.652-7.9-8.307l.051-7.536c-.077-4.115,3.215-7.227,5.993-8.436a2.227,2.227,0,0,1,3.215,1.543c.669,4.038,2.443,8.05,7.561,9.413a.86.86,0,0,0,1-1.132c-.823-2.778-1.26-7.176.077-9.465a2.364,2.364,0,0,1,2.983-.669c3.112,1.157,8.153,3.446,8.153,8.745Z" transform="translate(-0.8 -1.675)" fill="#fff"/>
  <g id="Group_4" data-name="Group 4" transform="translate(46.192 11.812)">
    <path id="Path_16" data-name="Path 16" d="M194.108,57.787h-9.9V53.106A3.8,3.8,0,0,0,180.4,49.3h0V69.438h3.806V61.311h9.9v4.372a3.787,3.787,0,0,0,3.781,3.781h0V49.326h-3.781Z" transform="translate(-180.4 -48.863)" fill="#fff"/>
    <path id="Path_17" data-name="Path 17" d="M265.479,78.6l-1.466,3.909-1.363-3.987-2.16-6.121H256.4l5.684,13.966-1.132,2.623a2.549,2.549,0,0,0,2.341,3.549h0l8.667-20.113h-3.884Z" transform="translate(-236.853 -66.022)" fill="#fff"/>
    <path id="Path_18" data-name="Path 18" d="M332.127,71.1a5.667,5.667,0,0,0-4.6,2.263h0a2.225,2.225,0,0,0-2.212-1.955H324V91.521h1A2.525,2.525,0,0,0,327.524,89V83.934c1,1.569,3.215,2.006,4.707,2.006,4.552,0,7.176-3.266,7.176-7.433A7.1,7.1,0,0,0,332.127,71.1Zm-.283,11.445a3.949,3.949,0,0,1-4.038-4.038,4.038,4.038,0,1,1,8.076,0A3.949,3.949,0,0,1,331.844,82.545Z" transform="translate(-287.067 -65.056)" fill="#fff"/>
    <path id="Path_19" data-name="Path 19" d="M399.036,70.7a7.1,7.1,0,0,0-7.536,7.433c0,4.552,2.906,7.561,7.819,7.561a8.727,8.727,0,0,0,6.1-2.289l-2.238-2.212a5.761,5.761,0,0,1-3.806,1.337c-2.469,0-3.987-1.26-4.244-3.035h11.085C406.752,73.632,403.794,70.7,399.036,70.7Zm-3.858,5.838a3.816,3.816,0,0,1,3.986-2.778c2.006,0,3.446.926,3.678,2.778Z" transform="translate(-337.206 -64.759)" fill="#fff"/>
    <path id="Path_20" data-name="Path 20" d="M462.7,72.832h0a1.933,1.933,0,0,0-1.9-1.646H459.2v14.2h3.5V77.9a3.276,3.276,0,0,1,3.549-3.6,3.481,3.481,0,0,1,2.546.926l1.569-3.061A5.4,5.4,0,0,0,466.71,70.8,4.288,4.288,0,0,0,462.7,72.832Z" transform="translate(-387.494 -64.833)" fill="#fff"/>
    <path id="Path_21" data-name="Path 21" d="M515.7,49.2h-7.9V69.338h3.755V64.786h0V52.775H515.7c4.372,0,6.224,3.138,6.3,6.276.077,2.752-1.183,5.53-4.3,6.378a2.986,2.986,0,0,1-.411.077,3.589,3.589,0,0,0-3.215,3.549v.283h1.62c7.047,0,10.159-5.144,10.082-10.236C525.7,54.112,522.614,49.2,515.7,49.2Z" transform="translate(-423.595 -48.788)" fill="#fff"/>
    <path id="Path_22" data-name="Path 22" d="M674.665,47.6c-6.97,0-10.365,5.324-10.365,10.622s3.266,10.391,10.365,10.391S684.953,63.417,685,58.2C685.055,52.924,681.609,47.6,674.665,47.6Zm0,17.541c-4.758,0-6.533-3.549-6.61-6.841-.077-3.395,1.852-7.227,6.61-7.227s6.661,3.806,6.61,7.2C681.2,61.566,679.423,65.141,674.665,65.141Z" transform="translate(-539.844 -47.6)" fill="#fff"/>
    <path id="Path_23" data-name="Path 23" d="M754.3,114.567a2.071,2.071,0,0,0,4.141,0A2.071,2.071,0,0,0,754.3,114.567Z" transform="translate(-606.696 -95.817)" fill="#fff"/>
    <path id="Path_24" data-name="Path 24" d="M784.236,82.451A3.872,3.872,0,0,1,780.2,78.31a3.985,3.985,0,0,1,4.089-4.192,3.491,3.491,0,0,1,.746.077,4.7,4.7,0,0,0,4.321-1.286h0a6.8,6.8,0,0,0-5.118-2.109c-4.115,0-7.536,2.469-7.536,7.51s3.421,7.51,7.536,7.51a7.375,7.375,0,0,0,5.478-2.238h0a4.8,4.8,0,0,0-4.372-1.235A5.206,5.206,0,0,1,784.236,82.451Z" transform="translate(-623.335 -64.833)" fill="#fff"/>
    <path id="Path_25" data-name="Path 25" d="M839.33,71.2a7.407,7.407,0,1,0,7.459,7.407A7.231,7.231,0,0,0,839.33,71.2Zm.026,11.574c-2.572,0-3.858-2.006-3.858-4.192a3.9,3.9,0,0,1,3.858-4.192,3.993,3.993,0,0,1,3.858,4.192C843.214,80.742,841.9,82.774,839.356,82.774Z" transform="translate(-664.412 -65.13)" fill="#fff"/>
    <path id="Path_26" data-name="Path 26" d="M914.929,71.351a5.136,5.136,0,0,0-4.758,2.6,4.237,4.237,0,0,0-4.192-2.649,4.141,4.141,0,0,0-3.755,1.955l-.257-1.723H898.7V85.78h3.5V78.141c0-1.852,1.132-3.575,3.035-3.575,1.929,0,2.906,1.7,2.906,3.575v7.613h3.5V78.141a3.228,3.228,0,0,1,3.06-3.5c1.878,0,2.675,1.569,2.675,3.446v7.664h3.5V78.09C920.922,73.846,918.941,71.351,914.929,71.351Z" transform="translate(-713.958 -65.205)" fill="#fff"/>
    <g id="Group_3" data-name="Group 3" transform="translate(102.62 0.386)">
      <path id="Path_27" data-name="Path 27" d="M598.329,61.908H586.756l3.755-8.59,1.955,4.527a3.354,3.354,0,0,0,3.061,2.006h1.852L592.568,49.1h-4.141L579.4,69.238h4.115l1.723-3.806h10.519l1.7,3.806H601.6Z" transform="translate(-579.4 -49.1)" fill="#fff"/>
    </g>
  </g>
</svg>
