<svg xmlns="http://www.w3.org/2000/svg" width="400" height="70.867" viewBox="0 0 400 70.867">
  <g id="hyperdao-logo-up" transform="translate(-0.8 -1.675)">
    <path id="Path_15" data-name="Path 15" d="M58.192,13.188,42.3,3.961a17,17,0,0,0-17.031,0L9.336,13.147A17.02,17.02,0,0,0,.8,27.9V46.274A17.02,17.02,0,0,0,9.336,61.029l15.933,9.227a17,17,0,0,0,17.031,0l15.933-9.186a17.02,17.02,0,0,0,8.536-14.755V27.943A17.144,17.144,0,0,0,58.192,13.188ZM56.973,43.429c.041,7.154-5.934,11.3-10.04,13.169a3.61,3.61,0,0,1-5.2-2.561c-1.179-7.682-4.024-12.885-11.584-15-1.016-.285-1.788.65-1.626,1.707.813,5.325,2.52,9.918-.2,14.917-.813,1.5-3.13,1.5-4.715.894-4.105-1.626-12.4-5.772-12.478-13.129l.081-11.909c-.122-6.5,5.081-11.422,9.471-13.332a3.519,3.519,0,0,1,5.081,2.439c1.057,6.381,3.861,12.722,11.95,14.876a1.36,1.36,0,0,0,1.585-1.788c-1.3-4.39-1.992-11.34.122-14.958.894-1.585,3.008-1.707,4.715-1.057,4.918,1.829,12.885,5.447,12.885,13.82Z" fill="#fff"/>
    <g id="Group_4" data-name="Group 4" transform="translate(73.8 20.342)">
      <path id="Path_16" data-name="Path 16" d="M202.064,62.713H186.416v-7.4A6,6,0,0,0,180.4,49.3h0V81.126h6.016V68.282h15.649v6.91a5.985,5.985,0,0,0,5.975,5.975h0V49.341h-5.975Z" transform="translate(-180.4 -48.609)" fill="#fff"/>
      <path id="Path_17" data-name="Path 17" d="M270.748,82.2l-2.317,6.178-2.154-6.3L262.863,72.4H256.4l8.983,22.071-1.788,4.146a4.029,4.029,0,0,0,3.7,5.609h0l13.7-31.785h-6.138Z" transform="translate(-225.509 -62.32)" fill="#fff"/>
      <path id="Path_18" data-name="Path 18" d="M336.844,71.1a8.956,8.956,0,0,0-7.276,3.577h0a3.517,3.517,0,0,0-3.5-3.089H324v31.785h1.585a3.99,3.99,0,0,0,3.983-3.983V91.382c1.585,2.479,5.081,3.17,7.438,3.17,7.194,0,11.34-5.162,11.34-11.747C348.306,76.221,343.754,71.1,336.844,71.1ZM336.4,89.188a6.241,6.241,0,0,1-6.381-6.381,6.381,6.381,0,1,1,12.763,0A6.241,6.241,0,0,1,336.4,89.188Z" transform="translate(-265.632 -61.548)" fill="#fff"/>
      <path id="Path_19" data-name="Path 19" d="M403.409,70.7c-7.276,0-11.909,4.918-11.909,11.747,0,7.194,4.593,11.95,12.356,11.95,3.414,0,7.276-1.179,9.633-3.618l-3.536-3.5c-1.26,1.341-3.943,2.114-6.016,2.114-3.9,0-6.3-1.992-6.707-4.8H414.75C415.6,75.334,410.929,70.7,403.409,70.7Zm-6.1,9.227c.813-2.927,3.252-4.39,6.3-4.39,3.17,0,5.447,1.463,5.812,4.39Z" transform="translate(-305.696 -61.311)" fill="#fff"/>
      <path id="Path_20" data-name="Path 20" d="M464.728,74.011h0a3.055,3.055,0,0,0-3.008-2.6H459.2V93.846h5.528V82.018c0-4.146,2.683-5.69,5.609-5.69a5.5,5.5,0,0,1,4.024,1.463l2.479-4.837a8.534,8.534,0,0,0-5.772-2.154C468.792,70.841,466.476,71.247,464.728,74.011Z" transform="translate(-345.879 -61.37)" fill="#fff"/>
      <path id="Path_21" data-name="Path 21" d="M520.278,49.2H507.8V81.026h5.934V73.832h0V54.85h6.544c6.91,0,9.836,4.959,9.958,9.918.122,4.349-1.87,8.739-6.788,10.08a4.722,4.722,0,0,1-.65.122,5.672,5.672,0,0,0-5.081,5.609v.447h2.561c11.137,0,16.055-8.129,15.933-16.177C536.09,56.963,531.212,49.2,520.278,49.2Z" transform="translate(-374.725 -48.55)" fill="#fff"/>
      <path id="Path_22" data-name="Path 22" d="M680.68,47.6c-11.015,0-16.38,8.414-16.38,16.787s5.162,16.421,16.38,16.421,16.258-8.211,16.34-16.462C697.1,56.014,691.655,47.6,680.68,47.6Zm0,27.721c-7.52,0-10.324-5.609-10.446-10.812-.122-5.365,2.926-11.422,10.446-11.422s10.527,6.016,10.446,11.381C691,69.671,688.2,75.321,680.68,75.321Z" transform="translate(-467.613 -47.6)" fill="#fff"/>
      <path id="Path_23" data-name="Path 23" d="M754.3,115.759c0,4.309,6.544,4.309,6.544,0S754.3,111.41,754.3,115.759Z" transform="translate(-521.032 -86.128)" fill="#fff"/>
      <path id="Path_24" data-name="Path 24" d="M788.609,89.213a6.12,6.12,0,0,1-6.381-6.544,6.3,6.3,0,0,1,6.463-6.625,5.518,5.518,0,0,1,1.179.122,7.42,7.42,0,0,0,6.828-2.032h0a10.744,10.744,0,0,0-8.089-3.333c-6.5,0-11.909,3.9-11.909,11.869s5.406,11.869,11.909,11.869A11.656,11.656,0,0,0,797.267,91h0a7.592,7.592,0,0,0-6.91-1.951A8.229,8.229,0,0,1,788.609,89.213Z" transform="translate(-534.327 -61.37)" fill="#fff"/>
      <path id="Path_25" data-name="Path 25" d="M843.584,71.2C836.43,71.2,832,76.484,832,82.906c0,6.463,4.39,11.706,11.666,11.706s11.706-5.243,11.706-11.706C855.29,76.484,850.738,71.2,843.584,71.2Zm.041,18.291c-4.065,0-6.1-3.17-6.1-6.625,0-3.374,2.114-6.625,6.1-6.625,3.74,0,6.1,3.252,6.1,6.625C849.722,86.28,847.649,89.491,843.625,89.491Z" transform="translate(-567.15 -61.608)" fill="#fff"/>
      <path id="Path_26" data-name="Path 26" d="M924.348,71.381a8.116,8.116,0,0,0-7.52,4.105A6.7,6.7,0,0,0,910.2,71.3c-2.154,0-4.715.813-5.934,3.089l-.406-2.723H898.7V94.184h5.528V82.112c0-2.927,1.788-5.65,4.8-5.65,3.048,0,4.593,2.683,4.593,5.65V94.143h5.528V82.112c0-2.927,1.87-5.528,4.837-5.528s4.227,2.479,4.227,5.447V94.143h5.528V82.031C933.818,75.324,930.688,71.381,924.348,71.381Z" transform="translate(-606.739 -61.667)" fill="#fff"/>
      <g id="Group_3" data-name="Group 3" transform="translate(162.178 0.61)">
        <path id="Path_27" data-name="Path 27" d="M609.316,69.342H591.025l5.934-13.576,3.089,7.154a5.3,5.3,0,0,0,4.837,3.17h2.927l-7.6-16.99h-6.544L579.4,80.926h6.5l2.723-6.016h16.624l2.683,6.016h6.544Z" transform="translate(-579.4 -49.1)" fill="#fff"/>
      </g>
    </g>
  </g>
</svg>
