<svg xmlns="http://www.w3.org/2000/svg" xmlns:xlink="http://www.w3.org/1999/xlink" width="28" height="26.478" viewBox="0 0 28 26.478">
  <defs>
    <clipPath id="clip-path">
      <rect id="Rectangle_5" data-name="Rectangle 5" width="28" height="26.478" transform="translate(669 371.261)" fill="#1d3074"/>
    </clipPath>
  </defs>
  <g id="Group_7" data-name="Group 7" transform="translate(-669 -371.261)">
    <g id="Group_6" data-name="Group 6">
      <g id="Group_5" data-name="Group 5" clip-path="url(#clip-path)">
        <path id="Path_28" data-name="Path 28" d="M696.147,373.558a1.015,1.015,0,0,0-1.2.78l-.737,3.44a13.19,13.19,0,0,0-24.567,6.671,1.014,1.014,0,1,0,2.029,0,11.161,11.161,0,0,1,20.812-5.6l-3.383-.725a1.014,1.014,0,1,0-.424,1.984l5.8,1.244a1.033,1.033,0,0,0,.3.019,1.014,1.014,0,0,0,.907-.8l1.244-5.8a1.015,1.015,0,0,0-.779-1.2Zm0,0" fill="#1d3074"/>
        <path id="Path_29" data-name="Path 29" d="M695.126,383.12a1.015,1.015,0,0,0-.981,1.047,11.16,11.16,0,0,1-10.785,11.522c-.124,0-.247.006-.371.006a11.156,11.156,0,0,1-9.49-5.29l3.526.945a1.014,1.014,0,1,0,.525-1.959l-5.735-1.538a1.015,1.015,0,0,0-1.243.717l-1.537,5.735a1.016,1.016,0,0,0,.717,1.243,1.039,1.039,0,0,0,.263.035,1.014,1.014,0,0,0,.979-.753l.865-3.223a13.183,13.183,0,0,0,11.13,6.117c.145,0,.292,0,.438-.007A13.189,13.189,0,0,0,696.173,384.1a1.012,1.012,0,0,0-1.047-.98Zm0,0" fill="#1d3074"/>
      </g>
    </g>
  </g>
</svg>
