<?xml version="1.0" encoding="UTF-8"?>
<svg width="32px" height="32px" viewBox="0 0 32 32" version="1.1" xmlns="http://www.w3.org/2000/svg" xmlns:xlink="http://www.w3.org/1999/xlink">
    <title>开户核对</title>
    <g id="页面-1" stroke="none" stroke-width="1" fill="none" fill-rule="evenodd">
        <g id="中文" transform="translate(-806.000000, -2074.000000)" fill="#000000" fill-rule="nonzero">
            <g id="开户核对" transform="translate(806.000000, 2074.000000)">
                <rect id="矩形" opacity="0" x="0" y="0" width="32" height="32"></rect>
                <path d="M27.184,3.008 L22.192,3.008 C21.648,1.408 20.144,0.24 18.368,0.24 L13.648,0.24 C11.872,0.24 10.352,1.392 9.824,3.008 L4.816,3.008 C2.336,3.008 0.32,5.024 0.32,7.504 L0.32,27.12 C0.32,27.824 0.896,28.4 1.6,28.4 C2.304,28.4 2.88,27.824 2.88,27.12 L2.88,7.504 C2.88,6.432 3.744,5.568 4.816,5.568 L9.808,5.568 C9.808,5.584 9.824,5.584 9.824,5.6 C9.856,5.696 9.888,5.776 9.92,5.856 C9.952,5.936 10,6.016 10.032,6.112 C10.048,6.128 10.048,6.144 10.064,6.16 C10.112,6.24 10.144,6.32 10.192,6.4 C10.192,6.416 10.208,6.432 10.224,6.432 C10.272,6.496 10.32,6.576 10.368,6.64 C10.368,6.656 10.384,6.656 10.384,6.672 C10.432,6.752 10.496,6.816 10.56,6.88 C10.576,6.896 10.592,6.912 10.592,6.928 C10.656,6.992 10.72,7.072 10.784,7.136 C10.848,7.2 10.912,7.264 10.992,7.328 C11.008,7.344 11.024,7.36 11.04,7.36 C11.104,7.424 11.184,7.472 11.248,7.536 C11.264,7.552 11.28,7.552 11.28,7.568 C11.344,7.616 11.424,7.664 11.488,7.712 C11.504,7.712 11.504,7.728 11.52,7.728 C11.6,7.776 11.68,7.824 11.76,7.856 C11.776,7.872 11.792,7.872 11.808,7.888 C11.888,7.936 11.968,7.968 12.064,8 C12.144,8.032 12.24,8.064 12.32,8.096 C12.336,8.096 12.352,8.112 12.384,8.112 C12.464,8.144 12.56,8.16 12.656,8.192 C12.672,8.192 12.688,8.192 12.704,8.208 C12.784,8.224 12.864,8.24 12.96,8.256 C12.976,8.256 12.992,8.256 13.008,8.272 C13.104,8.288 13.2,8.304 13.296,8.304 L13.36,8.304 C13.456,8.304 13.552,8.32 13.648,8.32 L18.368,8.32 C18.464,8.32 18.56,8.32 18.656,8.304 L18.72,8.304 C18.816,8.288 18.912,8.288 19.008,8.272 C19.024,8.272 19.04,8.272 19.056,8.256 C19.136,8.24 19.232,8.224 19.312,8.208 C19.328,8.208 19.344,8.208 19.36,8.192 C19.456,8.176 19.536,8.144 19.632,8.112 C19.648,8.112 19.664,8.096 19.696,8.096 C19.792,8.064 19.872,8.032 19.952,8 C20.032,7.968 20.128,7.92 20.208,7.888 C20.224,7.872 20.24,7.872 20.256,7.856 C20.336,7.808 20.416,7.776 20.496,7.728 C20.512,7.728 20.512,7.712 20.528,7.712 C20.592,7.664 20.672,7.616 20.736,7.568 C20.752,7.552 20.768,7.552 20.768,7.536 C20.848,7.488 20.912,7.424 20.976,7.36 C20.992,7.344 21.008,7.328 21.024,7.328 C21.088,7.264 21.168,7.2 21.232,7.136 C21.296,7.072 21.36,7.008 21.424,6.928 C21.44,6.912 21.456,6.896 21.456,6.88 C21.52,6.816 21.568,6.736 21.632,6.672 C21.632,6.656 21.648,6.656 21.648,6.64 C21.696,6.576 21.744,6.496 21.792,6.432 C21.808,6.416 21.808,6.4 21.824,6.4 C21.872,6.32 21.92,6.24 21.952,6.16 C21.968,6.144 21.968,6.128 21.984,6.112 C22.032,6.032 22.064,5.952 22.096,5.856 C22.128,5.776 22.16,5.68 22.192,5.6 C22.192,5.584 22.208,5.584 22.208,5.568 L27.2,5.568 C28.272,5.568 29.136,6.432 29.136,7.504 L29.136,27.12 C29.136,28.176 28.272,29.04 27.216,29.04 L8.656,29.04 C7.952,29.04 7.376,29.616 7.376,30.32 C7.376,31.024 7.952,31.6 8.656,31.6 L27.2,31.6 C29.664,31.6 31.68,29.584 31.68,27.12 L31.68,7.504 C31.68,5.024 29.664,3.008 27.184,3.008 Z M13.648,5.76 C12.832,5.76 12.16,5.104 12.16,4.272 C12.16,3.44 12.816,2.784 13.648,2.784 L18.368,2.784 C19.184,2.784 19.856,3.44 19.856,4.272 C19.856,5.104 19.2,5.76 18.368,5.76 L13.648,5.76 Z" id="形状"></path>
                <path d="M12.432,23.2 C12.672,23.44 12.992,23.568 13.344,23.568 C13.696,23.568 14.016,23.44 14.256,23.2 L23.904,13.552 C24.4,13.056 24.4,12.24 23.904,11.744 C23.408,11.248 22.592,11.248 22.096,11.744 L13.328,20.48 L9.92,17.072 C9.424,16.576 8.608,16.576 8.112,17.072 C7.616,17.568 7.616,18.384 8.112,18.88 L12.432,23.2 Z" id="路径"></path>
            </g>
        </g>
    </g>
</svg>