<?xml version="1.0" encoding="UTF-8"?>
<svg width="48px" height="48px" viewBox="0 0 48 48" version="1.1" xmlns="http://www.w3.org/2000/svg" xmlns:xlink="http://www.w3.org/1999/xlink">
    <title>银行卡</title>
    <g id="页面-1" stroke="none" stroke-width="1" fill="none" fill-rule="evenodd">
        <g id="中文" transform="translate(-530.000000, -2656.000000)" fill="#FFFFFF" fill-rule="nonzero">
            <g id="银行卡" transform="translate(530.000000, 2656.000000)">
                <rect id="矩形" opacity="0" x="0" y="0" width="48" height="48"></rect>
                <path d="M38.5248,7.1328 L9.4008,7.1328 C6.0336,7.1328 3.2952,9.8712 3.2952,13.2384 L3.2952,34.7592 C3.2952,38.1264 6.0336,40.8648 9.4008,40.8648 L38.5248,40.8648 C41.892,40.8648 44.6304,38.1264 44.6304,34.7592 L44.6304,13.236 C44.6304,9.8712 41.892,7.1328 38.5248,7.1328 Z M9.4008,10.0128 L38.5248,10.0128 C40.3032,10.0128 41.7504,11.46 41.7504,13.2384 L41.7504,16.572 L6.1752,16.572 L6.1752,13.236 C6.1752,11.4576 7.6224,10.0128 9.4008,10.0128 Z M38.5248,37.9824 L9.4008,37.9824 C7.6224,37.9824 6.1752,36.5352 6.1752,34.7568 L6.1752,19.4496 L41.7504,19.4496 L41.7504,34.7568 C41.7504,36.5352 40.3032,37.9824 38.5248,37.9824 L38.5248,37.9824 Z" id="形状"></path>
                <path d="M19.1688,23.6496 L10.644,23.6496 C9.8496,23.6496 9.204,24.2952 9.204,25.0896 C9.204,25.884 9.8496,26.5296 10.644,26.5296 L19.1688,26.5296 C19.9632,26.5296 20.6088,25.884 20.6088,25.0896 C20.6088,24.2952 19.9632,23.6496 19.1688,23.6496 Z" id="路径"></path>
            </g>
        </g>
    </g>
</svg>