<?xml version="1.0" encoding="UTF-8"?>
<svg width="32px" height="31px" viewBox="0 0 32 31" version="1.1" xmlns="http://www.w3.org/2000/svg" xmlns:xlink="http://www.w3.org/1999/xlink">
    <title>编组</title>
    <g id="页面-1" stroke="none" stroke-width="1" fill="none" fill-rule="evenodd">
        <g id="中文" transform="translate(-1354.000000, -2075.000000)" fill="#000000" fill-rule="nonzero">
            <g id="编组" transform="translate(1354.000000, 2075.000000)">
                <path d="M27.2,13.006993 C27.2,5.85314685 21.12,0 13.6533333,0 C6.08,0.108391629 0,5.85314685 0,13.006993 C0,15.8251748 0.96,18.534965 2.77333334,20.7027972 C2.77333334,21.027972 2.56,21.8951049 2.45333334,22.4370629 C2.13333334,23.8461538 1.81333334,25.1468531 2.56,25.7972028 C2.88,26.013986 3.09333334,26.1223776 3.52,26.1223776 C4.26666666,26.1223776 5.12,25.7972028 6.08,25.472028 C6.72,25.2552447 7.89333334,24.8216783 8.21333334,24.9300699 C9.92,25.5804196 11.7333333,26.013986 13.6533333,26.013986 C21.12,26.013986 27.2,20.1608391 27.2,13.006993 Z M13.6533333,23.6293706 C12.0533333,23.6293706 10.4533333,23.3041958 8.96,22.6538461 C8.21333334,22.3286713 7.25333334,22.7622377 6.08,23.1958042 C5.44,23.4125874 4.48,23.7377622 4.05333334,23.7377622 C4.05333334,23.4125874 4.26666669,22.7622377 4.37333334,22.3286713 C4.69333334,21.1363636 5.01333334,20.0524475 4.48,19.4020979 C2.98666666,17.5594405 2.13333334,15.2832168 2.13333334,13.006993 C2.13333334,7.04545455 7.25333334,2.27622377 13.5466667,2.27622377 C19.84,2.27622377 24.96,6.93706292 24.96,12.8986014 C25.0666667,18.8601398 19.9466667,23.6293706 13.6533333,23.6293706 Z M19.9466667,11.7062937 C19.0933333,11.7062937 18.3466667,12.4650349 18.4533333,13.4405595 C18.4533333,14.4160839 19.2,15.1748252 19.9466667,15.1748252 C20.6933333,15.1748252 21.44,14.4160839 21.44,13.4405595 C21.44,12.5734266 20.8,11.7062937 19.9466667,11.7062937 Z M13.12,11.7062937 C12.2666667,11.7062937 11.52,12.4650349 11.6266667,13.4405595 C11.6266667,14.4160839 12.3733333,15.1748252 13.12,15.1748252 C13.8666667,15.1748252 14.6133333,14.4160839 14.6133333,13.4405595 C14.6133333,12.5734266 13.9733333,11.7062937 13.12,11.7062937 Z M4.8,13.5489511 C4.8,14.5244755 5.54666666,15.2832168 6.29333334,15.2832168 C7.04000003,15.2832168 7.78666666,14.5244755 7.78666666,13.5489511 C7.78666666,12.5734266 7.14666666,11.8146853 6.29333334,11.8146853 C5.44,11.7062937 4.8,12.5734266 4.8,13.5489511 Z M32,18.8601398 C32,16.2587412 31.1466667,13.8741259 29.76,11.9230769 C29.76,11.8146853 29.6533333,11.8146853 29.6533333,11.7062937 L29.5466667,11.7062937 C29.3333333,11.4895105 29.12,11.4895105 28.9066667,11.4895105 C28.3733333,11.4895105 27.9466667,12.0314686 27.9466667,12.5734266 C27.9466667,12.7902098 28.0533333,13.006993 28.16,13.2237762 L28.2666667,13.3321678 C29.3333333,14.9580419 30.08,16.9090909 30.08,18.9685315 C30.08,21.0279721 29.44,23.1958042 28.0533333,24.9300699 C27.6266667,25.5804196 27.84,26.4475525 28.0533333,27.6398601 C28.16,28.0734265 28.3733333,28.7237762 28.3733333,28.9405594 C28.0533333,28.9405594 27.2,28.6153846 26.6666667,28.3986014 C25.6,27.965035 24.7466667,27.6398602 24.1066667,27.9650349 C22.8266667,28.506993 21.44,28.8321678 20.0533333,28.8321678 C18.24,28.8321678 16.4266667,28.2902098 14.9333333,27.4230769 C14.8266667,27.4230769 14.8266667,27.3146853 14.72,27.3146853 C14.6133333,27.2062937 14.5066667,27.2062937 14.4,27.2062937 C13.8666667,27.2062937 13.44,27.7482518 13.44,28.2902098 C13.44,28.6153846 13.5466667,28.9405594 13.76,29.1573426 C13.8666667,29.2657342 13.8666667,29.2657342 13.9733333,29.2657342 C15.7866667,30.3496503 17.8133333,30.8916084 20.0533333,30.8916084 C21.76,30.8916084 23.36,30.5664335 24.8533333,29.9160839 C25.0666667,29.8076923 26.1333333,30.1328671 26.6666667,30.4580419 C27.52,30.6748252 28.2666667,31 28.9066667,31 C29.2266667,31 29.44,30.8916084 29.6533333,30.6748252 C30.4,30.1328671 30.08,28.9405595 29.76,27.6398601 C29.6533333,27.0979021 29.44,26.3391608 29.44,26.013986 C31.1466667,24.062937 32,21.56993 32,18.8601398 L32,18.8601398 Z" id="形状"></path>
            </g>
        </g>
    </g>
</svg>