<?xml version="1.0" encoding="UTF-8"?>
<svg width="48px" height="48px" viewBox="0 0 48 48" version="1.1" xmlns="http://www.w3.org/2000/svg" xmlns:xlink="http://www.w3.org/1999/xlink">
    <title>13转账</title>
    <g id="页面-1" stroke="none" stroke-width="1" fill="none" fill-rule="evenodd">
        <g id="中文" transform="translate(-1069.000000, -2656.000000)" fill="#FFFFFF" fill-rule="nonzero">
            <g id="13转账" transform="translate(1069.000000, 2656.000000)">
                <rect id="矩形" opacity="0" x="0" y="0" width="48" height="48"></rect>
                <path d="M33.1666667,18.2107 L33.1666667,21.0666667 L14.8333333,21.0666667 L14.8333333,18.1333333 L29.049,18.1333333 L25.8333333,14.7570667 L27.8573333,12.6304 L33.0933333,18.1304 L33.1666667,18.1304 L33.1666667,18.2077667 L33.1666667,18.2107 Z M14.8333333,29.7893 L14.8333333,26.9333333 L33.1666667,26.9333333 L33.1666667,29.8666667 L18.951,29.8666667 L22.1666667,33.2429333 L20.1426667,35.3696 L14.9066667,29.8696 L14.8333333,29.8696 L14.8333333,29.7922333 L14.8333333,29.7893 Z" id="形状"></path>
                <path d="M24,46 C11.8497355,46 2,36.1502645 2,24 C2,11.8497355 11.8497355,2 24,2 C36.1502645,2 46,11.8497355 46,24 C46,36.1502645 36.1502645,46 24,46 Z M24,4.93333335 C13.4697708,4.93333335 4.93333335,13.4697708 4.93333335,24 C4.93333335,34.5302292 13.4697708,43.0666667 24,43.0666667 C34.5302292,43.0666667 43.0666667,34.5302292 43.0666667,24 C43.0666667,18.9432056 41.0578629,14.0935243 37.4821693,10.5178307 C33.9064757,6.9421371 29.0567944,4.93333335 24,4.93333335 Z" id="形状"></path>
            </g>
        </g>
    </g>
</svg>