<?xml version="1.0" encoding="UTF-8"?>
<svg width="32px" height="32px" viewBox="0 0 32 32" version="1.1" xmlns="http://www.w3.org/2000/svg" xmlns:xlink="http://www.w3.org/1999/xlink">
    <title>编组</title>
    <g id="页面-1" stroke="none" stroke-width="1" fill="none" fill-rule="evenodd">
        <g id="中文" transform="translate(-1354.000000, -1813.000000)" fill="#000000" fill-rule="nonzero">
            <g id="编组" transform="translate(1354.000000, 1813.000000)">
                <path d="M16,29.7142857 C23.5741909,29.7142857 29.7142857,23.5741909 29.7142857,16 C29.7142857,8.42580914 23.5741909,2.28571428 16,2.28571428 C8.42580914,2.28571428 2.28571428,8.42580914 2.28571428,16 C2.28571428,23.5741909 8.42580914,29.7142857 16,29.7142857 Z M16,0 C24.836556,0 32,7.163444 32,16 C32,24.836556 24.836556,32 16,32 C7.163444,32 0,24.836556 0,16 C0,7.163444 7.163444,0 16,0 Z M11.7577143,8.40685716 C11.4707721,8.10976359 11.0458537,7.99061361 10.646277,8.09520264 C10.2467003,8.19979167 9.9346488,8.51184322 9.83005977,8.91141991 C9.72547073,9.31099661 9.84462071,9.73591497 10.1417143,10.0228572 L13.8285714,13.7142857 L11.4285714,13.7142857 C10.876589,13.7141017 10.4033568,14.1084619 10.304,14.6514286 L10.2857143,14.8571428 C10.2857143,15.4883254 10.7973888,16 11.4285714,16 L14.8571428,16 L14.8571428,18.2857143 L11.4285714,18.2857143 C10.876589,18.2855303 10.4033568,18.6798904 10.304,19.2228572 L10.2857143,19.4285714 C10.2857143,20.059754 10.7973889,20.5714285 11.4285714,20.5714286 L14.8571428,20.5714286 L14.8571428,23.9497143 C14.8569588,24.5016967 15.251319,24.9749289 15.7942857,25.0742857 L16,25.0925714 C16.6311826,25.0925714 17.1428571,24.5808968 17.1428571,23.9497143 L17.1428571,20.5714286 L20.5714286,20.5714286 C21.123411,20.5716126 21.5966432,20.1772524 21.696,19.6342857 L21.7142857,19.4285714 C21.7142857,18.7973889 21.2026111,18.2857143 20.5714286,18.2857143 L17.1428571,18.2857143 L17.1428571,16 L20.5714286,16 C21.123411,16.000184 21.5966432,15.6058239 21.696,15.0628572 L21.7142857,14.8571428 C21.7142857,14.2259603 21.2026111,13.7142857 20.5714286,13.7142857 L18.1668571,13.7142857 L21.8582857,10.0228572 C22.1553793,9.73591497 22.2745292,9.31099661 22.1699402,8.91141991 C22.0653512,8.51184322 21.7532996,8.19979167 21.3537229,8.09520264 C20.9541462,7.99061361 20.5292279,8.10976359 20.2422857,8.40685716 L16,12.6514286 L11.7577143,8.40685716 Z" id="形状"></path>
            </g>
        </g>
    </g>
</svg>