<?xml version="1.0" encoding="UTF-8"?>
<svg width="44px" height="44px" viewBox="0 0 44 44" version="1.1" xmlns="http://www.w3.org/2000/svg" xmlns:xlink="http://www.w3.org/1999/xlink">
    <title>投资</title>
    <g id="页面-1" stroke="none" stroke-width="1" fill="none" fill-rule="evenodd">
        <g id="中文" transform="translate(-802.000000, -2658.000000)" fill="#FFFFFF" fill-rule="nonzero">
            <g id="投资" transform="translate(802.000000, 2658.000000)">
                <rect id="矩形" opacity="0" x="0" y="0" width="44" height="44"></rect>
                <path d="M34.7964029,12.4679856 L34.7673861,12.4970024 C34.6164988,12.644988 33.2614149,13.8782014 30.0985851,13.3210791 C29.6901372,13.2479939 29.2737252,13.3983647 29.0062076,13.7155484 C28.7386899,14.0327321 28.6607089,14.4685409 28.8016392,14.8588098 C28.9425695,15.2490788 29.2810005,15.5345167 29.6894485,15.6076019 C30.334131,15.7223484 30.9874705,15.7815664 31.6422782,15.7846043 L22.2002158,25.7402638 L17.5372182,21.2745803 C17.0769335,20.8344149 16.3479361,20.8473633 15.9035731,21.3035971 L7.52932853,29.9244844 C7.230368,30.2200556 7.11460642,30.654183 7.22670861,31.0593655 C7.3388108,31.4645479 7.66125037,31.7774379 8.06961899,31.8773116 C8.47798762,31.9771854 8.90843975,31.8484283 9.19489208,31.5407194 L16.7653717,23.7526139 L21.4370743,28.221199 C21.6586422,28.4365569 21.9581162,28.5527863 22.2669544,28.5432854 C22.5757971,28.5366344 22.8692469,28.4071405 23.0823261,28.1834772 L36.4793765,14.0668106 L36.511295,14.0319904 C36.9295934,13.556812 36.8899625,12.8340854 36.4222153,12.4074936 C35.954468,11.9809018 35.2311561,12.0078142 34.7964029,12.4679856 L34.7964029,12.4679856 Z" id="路径" stroke="#FFFFFF" stroke-width="0.733333333"></path>
                <path d="M38.6846523,4.88009592 L5.31534773,4.88009592 C3.39228428,4.88009592 1.83333333,6.43904687 1.83333333,8.36211032 L1.83333333,35.6378897 C1.83333333,37.5609531 3.39228428,39.1199041 5.31534773,39.1199041 L38.6846523,39.1199041 C40.6077157,39.1199041 42.1666667,37.5609531 42.1666667,35.6378897 L42.1666667,8.36211032 C42.1666667,6.43904687 40.6077157,4.88009592 38.6846523,4.88009592 Z M39.8453237,35.6378897 C39.8453237,36.2789108 39.3256734,36.7985611 38.6846523,36.7985611 L5.31534773,36.7985611 C4.67432658,36.7985611 4.15467627,36.2789108 4.15467627,35.6378897 L4.15467627,8.36211032 C4.15467627,7.72108917 4.67432658,7.20143886 5.31534773,7.20143886 L38.6846523,7.20143886 C39.3256734,7.20143886 39.8453237,7.72108917 39.8453237,8.36211032 L39.8453237,35.6378897 Z" id="形状" stroke="#FFFFFF" stroke-width="0.733333333"></path>
            </g>
        </g>
    </g>
</svg>