<?xml version="1.0" encoding="UTF-8"?>
<svg width="32px" height="32px" viewBox="0 0 32 32" version="1.1" xmlns="http://www.w3.org/2000/svg" xmlns:xlink="http://www.w3.org/1999/xlink">
    <title>功能定义</title>
    <g id="页面-1" stroke="none" stroke-width="1" fill="none" fill-rule="evenodd">
        <g id="中文" transform="translate(-1080.000000, -1813.000000)" fill="#000000" fill-rule="nonzero">
            <g id="功能定义" transform="translate(1080.000000, 1813.000000)">
                <rect id="矩形" opacity="0" x="0" y="0" width="32" height="32"></rect>
                <path d="M22.1,10.968 L15.897,14.57 L9.801,11.079 C8.642,10.419 7.653,12.158 8.812,12.817 L15.022,16.373 L15.022,24.396 C15.022,24.9482847 15.4697153,25.396 16.022,25.396 C16.5742847,25.396 17.022,24.9482847 17.022,24.396 L17.022,16.333 C17.022,16.3 17.006,16.272 17.003,16.239 L23.089,12.705 C24.248,12.047 23.259,10.308 22.1,10.968 L22.1,10.968 Z" id="路径"></path>
                <path d="M27.509,7.265 L17.506,1.41 C16.5733547,0.864051883 15.4186453,0.864051883 14.486,1.41 L4.49,7.265 C3.56589474,7.80801693 2.99884594,8.80016205 2.99999824,9.872 L2.99999824,22.299 C2.99999824,23.386 3.582,24.389 4.523,24.924 L14.523,30.609 C15.4383957,31.1299898 16.5606043,31.1299898 17.476,30.609 L27.476,24.924 C28.4190652,24.3867025 29.0009824,23.3843845 28.9999982,22.299 L28.9999982,9.872 C29.0009459,8.79995765 28.4334897,7.80776561 27.509,7.265 Z M26.9999996,22.299 C26.9999996,22.661 26.806,22.996 26.492,23.174 L16.492,28.859 C16.1870601,29.0329391 15.8129399,29.0329391 15.508,28.859 L5.508,23.174 C5.19364493,22.9949008 4.99967254,22.6607948 4.99999959,22.299 L4.99999959,9.872 C4.99999959,9.514 5.189,9.184 5.497,9.003 L15.493,3.148 C15.8036372,2.96599515 16.1883628,2.96599515 16.499,3.148 L26.503,9.004 C26.811,9.183 26.9999996,9.514 26.9999996,9.872 L26.9999996,22.299 L26.9999996,22.299 Z" id="形状"></path>
            </g>
        </g>
    </g>
</svg>