<?xml version="1.0" encoding="UTF-8"?>
<svg width="32px" height="32px" viewBox="0 0 32 32" version="1.1" xmlns="http://www.w3.org/2000/svg" xmlns:xlink="http://www.w3.org/1999/xlink">
    <title>安全</title>
    <g id="页面-1" stroke="none" stroke-width="1" fill="none" fill-rule="evenodd">
        <g id="中文" transform="translate(-532.000000, -2074.000000)" fill="#000000" fill-rule="nonzero">
            <g id="安全" transform="translate(532.000000, 2074.000000)">
                <rect id="矩形" opacity="0" x="0" y="0" width="32" height="32"></rect>
                <path d="M20.1102536,15.4954796 L12.4471885,15.4954796 C11.8615215,15.4954796 11.3887541,15.0227122 11.3887541,14.4370452 C11.3887541,13.8513782 11.8615215,13.3786108 12.4471885,13.3786108 L20.1102536,13.3786108 C20.6959206,13.3786108 21.168688,13.8513782 21.168688,14.4370452 C21.168688,15.0227123 20.6959206,15.4954796 20.1102536,15.4954796 L20.1102536,15.4954796 Z" id="路径"></path>
                <path d="M16.2787211,19.3270121 C15.693054,19.3270121 15.2202867,18.8542447 15.2202867,18.2685777 L15.2202867,10.6055127 C15.2202867,10.0198457 15.693054,9.54707828 16.2787211,9.54707828 C16.8643881,9.54707828 17.3371555,10.0198457 17.3371555,10.6055127 L17.3371555,18.2685777 C17.3371555,18.8542447 16.8643881,19.3270121 16.2787211,19.3270121 Z" id="路径"></path>
                <path d="M16.2787211,31.047409 C16.1093716,31.047409 15.9400221,31.0050717 15.784785,30.9274532 C15.5237045,30.7863286 9.35656009,27.5122382 7.42315325,25.5294377 C5.42624034,23.4831312 4.49481809,21.5003308 4.092613,18.4379272 C3.72568906,15.6295479 3.18941566,6.35766263 3.16119075,5.96251378 C3.13296584,5.47563397 3.44343994,5.0310915 3.91620728,4.88996694 L15.9753032,1.27012128 C16.1728776,1.21367144 16.3845645,1.21367144 16.5821389,1.27012128 L28.6412348,4.88996694 C29.1140022,5.03109153 29.4244763,5.47563397 29.3962514,5.96251378 C29.3750827,6.35766262 28.8388092,15.6224917 28.4718853,18.4379272 C28.0696803,21.4932745 27.138258,23.4831312 25.1413451,25.5294377 C23.2079383,27.5122382 17.0407938,30.7863286 16.7797133,30.9274532 C16.6174201,31.0121279 16.4480706,31.047409 16.2787211,31.047409 L16.2787211,31.047409 Z M5.32745316,6.67519294 C5.46857775,9.06725469 5.8919515,15.9047409 6.18831313,18.1627343 C6.52701213,20.7523704 7.27497244,22.3470783 8.93318634,24.0476296 C10.2244763,25.3742007 14.2888644,27.7098126 16.2787211,28.7823594 C18.2615215,27.7027563 22.3259096,25.3671444 23.6242558,24.0476296 C25.2824697,22.3470783 26.03043,20.7453142 26.369129,18.1627343 C26.6654906,15.9047409 27.0888644,9.06725469 27.229989,6.67519294 L16.2787211,3.39404631 L5.32745316,6.67519294 Z" id="形状"></path>
            </g>
        </g>
    </g>
</svg>