<?xml version="1.0" encoding="UTF-8"?>
<svg width="32px" height="32px" viewBox="0 0 32 32" version="1.1" xmlns="http://www.w3.org/2000/svg" xmlns:xlink="http://www.w3.org/1999/xlink">
    <title>分期－身份类别</title>
    <g id="页面-1" stroke="none" stroke-width="1" fill="none" fill-rule="evenodd">
        <g id="中文" transform="translate(-532.000000, -4545.000000)" fill="#000000" fill-rule="nonzero">
            <g id="分期－身份类别" transform="translate(532.000000, 4545.000000)">
                <rect id="矩形" opacity="0" x="0" y="0" width="32" height="32"></rect>
                <path d="M16,29 C8.85,29 3,23.15 3,16 C3,8.85 8.85,3 16,3 C23.15,3 29,8.85 29,16 C29,23.15 23.15,29 16,29 Z M16,4.625 C9.6625,4.625 4.625,9.6625 4.625,16 C4.625,22.3375 9.6625,27.375 16,27.375 C22.3375,27.375 27.375,22.3375 27.375,16 C27.375,9.6625 22.3375,4.625 16,4.625 Z M15.8375,18.7625 C13.4,18.7625 11.45,16.65 11.45,14.375 C11.45,12.1 13.4,9.9875 15.8375,9.9875 C18.275,9.9875 20.225,11.9375 20.225,14.375 C20.225,16.8125 18.275,18.7625 15.8375,18.7625 Z M15.8375,11.6125 C14.375,11.6125 13.075,12.75 13.075,14.375 C13.075,15.8375 14.375,17.1375 15.8375,17.1375 C17.3,17.1375 18.6,15.8375 18.6,14.375 C18.6,12.75 17.4625,11.6125 15.8375,11.6125 Z M22.175,22.0125 C21.85,22.0125 21.525,21.85 21.525,21.525 C20.225,19.25 17.7875,18.7625 16,18.7625 C14.2125,18.7625 11.775,19.25 10.6375,21.6875 C10.475,22.0125 9.9875,22.175 9.5,22.0125 C9.175,21.85 9.0125,21.3625 9.175,20.875 C10.475,18.4375 12.9125,17.1375 16,17.1375 C19.0875,17.1375 21.525,18.4375 22.825,21.0375 C22.9875,21.3625 22.825,21.85 22.5,22.175 C22.3375,22.0125 22.175,22.0125 22.175,22.0125 Z" id="形状" stroke="#000000" stroke-width="0.2"></path>
            </g>
        </g>
    </g>
</svg>