<?xml version="1.0" encoding="UTF-8"?>
<svg width="32px" height="32px" viewBox="0 0 32 32" version="1.1" xmlns="http://www.w3.org/2000/svg" xmlns:xlink="http://www.w3.org/1999/xlink">
    <title>钱1</title>
    <g id="页面-1" stroke="none" stroke-width="1" fill="none" fill-rule="evenodd">
        <g id="中文" transform="translate(-1356.000000, -4545.000000)" fill="#000000" fill-rule="nonzero">
            <g id="钱1" transform="translate(1356.000000, 4545.000000)">
                <rect id="矩形" opacity="0" x="0" y="0" width="32" height="32"></rect>
                <path d="M2.51697647,28.6186817 L29.4829596,28.6186817 L2.51697647,28.6186817 Z M17.7979134,16.0004477 L16.8991006,16.0004477 L16.8991006,14.2027581 L19.595635,14.2027581 L19.595635,12.4050366 L16.8991006,12.4050366 L16.8991006,10.607315 L15.1008994,10.607315 L15.1008994,12.4050366 L14.2021186,12.4050366 C12.7151297,12.4050366 11.5056162,13.6146141 11.5056162,15.1016029 C11.5056162,16.5885278 12.7151297,17.7972738 14.2021186,17.7972738 L15.1008994,17.7972738 L15.1008994,19.5958268 L12.404365,19.5958268 L12.404365,21.392621 L15.1008674,21.392621 L15.1008674,23.191174 L16.8990686,23.191174 L16.8990686,21.392621 L17.7978814,21.392621 C19.2848383,21.392621 20.4943838,20.183907 20.4943838,18.6969501 C20.4943838,17.2099932 19.2848703,16.0004477 17.7979134,16.0004477 L17.7979134,16.0004477 Z M15.1008674,16.0004477 L14.2020866,16.0004477 C13.7061039,16.0004477 13.3032738,15.5966902 13.3032738,15.1016349 C13.3032738,14.6047887 13.7061358,14.2027901 14.2020866,14.2027901 L15.1008674,14.2027901 L15.1008674,16.0004477 Z M17.7979134,19.5958588 L16.8991006,19.5958588 L16.8991006,17.7973058 L17.7979134,17.7973058 C18.2930007,17.7973058 18.6967262,18.2010633 18.6967262,18.697014 C18.6967262,19.1929648 18.2930007,19.5958588 17.7979134,19.5958588 Z M31.2806172,16.8984291 C31.2806172,8.45943159 24.4392213,1.61797178 16.0001919,1.61797178 C7.56077869,1.61797178 0.719350844,8.45939962 0.719350844,16.8984291 C0.719350844,21.5945637 2.847056,25.7833313 6.18178037,28.5843067 L2.51697647,28.5843067 L2.51697647,30.3820282 L29.4829596,30.3820282 L29.4829596,28.5843067 L25.8120158,28.5843067 C29.1493944,25.7842267 31.2806172,21.5962905 31.2806172,16.8984291 Z M22.6871967,28.5843067 L9.31632091,28.5843067 C5.26275731,26.257313 2.51697647,21.8991246 2.51697647,16.8984291 C2.51697647,9.46447616 8.56495984,3.41655675 16.0001919,3.41655675 C23.4332814,3.41655675 29.4829596,9.46447616 29.4829596,16.8984291 C29.4829596,21.8982932 26.7389695,26.257313 22.6871967,28.5843067 Z" id="形状"></path>
            </g>
        </g>
    </g>
</svg>