<?xml version="1.0" encoding="UTF-8"?>
<svg width="44px" height="40px" viewBox="0 0 44 40" version="1.1" xmlns="http://www.w3.org/2000/svg" xmlns:xlink="http://www.w3.org/1999/xlink">
    <title>编组</title>
    <g id="页面-1" stroke="none" stroke-width="1" fill="none" fill-rule="evenodd">
        <g id="中文" transform="translate(-1350.000000, -1309.000000)" fill="#000000" fill-rule="nonzero">
            <g id="编组" transform="translate(1350.000000, 1309.941476)">
                <path d="M36.9414758,0 L7.05852417,0 C3.1653944,0 0,3.1653944 0,7.05852417 L0,31.0585242 C0,34.9516539 3.1653944,38.1170483 7.05852417,38.1170483 L36.9414758,38.1170483 C40.8346056,38.1170483 44,34.9516539 44,31.0585242 L44,7.05852417 C44,3.1653944 40.8346056,0 36.9414758,0 Z M41.1755725,31.0585242 C41.1755725,33.394402 39.2773537,35.2926209 36.9414758,35.2926209 L7.05852417,35.2926209 C4.72264631,35.2926209 2.82442748,33.394402 2.82442748,31.0585242 L2.82442748,7.05852417 C2.82442748,4.72264631 4.72264631,2.82442748 7.05852417,2.82442748 L36.9414758,2.82442748 C39.2773537,2.82442748 41.1755725,4.72264631 41.1755725,7.05852417 L41.1755725,31.0585242 Z" id="形状"></path>
                <path d="M18.1526718,18.351145 L22,16.3307888 L25.8473282,18.351145 L25.1145038,14.0712468 L28.2239186,11.0330789 L23.9236641,10.4122137 L22,6.51399491 L20.0763359,10.4122137 L15.7760814,11.0330789 L18.8854962,14.0712468 L18.1526718,18.351145 Z M34,21.1755725 L10,21.1755725 C9.22137405,21.1755725 8.59033079,21.8117048 8.59033079,22.5852417 C8.59033079,23.3587786 9.2264631,23.9949109 10,23.9949109 L34,23.9949109 C34.778626,23.9949109 35.4096692,23.3587786 35.4096692,22.5852417 C35.4096692,21.8117048 34.778626,21.1755725 34,21.1755725 L34,21.1755725 Z M31.1755725,26.8244275 L12.8244275,26.8244275 C12.0458015,26.8244275 11.4147583,27.4605598 11.4147583,28.2340967 C11.4147583,29.0076336 12.0508906,29.6437659 12.8244275,29.6437659 L31.1755725,29.6437659 C31.9541985,29.6437659 32.5852417,29.0076336 32.5852417,28.2340967 C32.5852417,27.4605598 31.9541985,26.8244275 31.1755725,26.8244275 Z" id="形状"></path>
            </g>
        </g>
    </g>
</svg>