<?xml version="1.0" encoding="UTF-8"?>
<svg width="44px" height="44px" viewBox="0 0 44 44" version="1.1" xmlns="http://www.w3.org/2000/svg" xmlns:xlink="http://www.w3.org/1999/xlink">
    <title>编组</title>
    <g id="页面-1" stroke="none" stroke-width="1" fill="none" fill-rule="evenodd">
        <g id="中文" transform="translate(-800.000000, -1307.000000)" fill="#000000" fill-rule="nonzero">
            <g id="编组" transform="translate(800.000000, 1307.000000)">
                <path d="M22,3.09919783 C24.5525337,3.09919783 27.0275876,3.59851305 29.3562904,4.58423008 C31.6075132,5.53551161 33.6262962,6.90001956 35.3652906,8.63470944 C37.1042849,10.3737038 38.4644884,12.3924868 39.4157699,14.6437096 C40.401487,16.9724124 40.9008022,19.4474663 40.9008022,22 C40.9008022,24.5525338 40.401487,27.0275876 39.4157699,29.3562904 C38.4644884,31.6075132 37.0999804,33.6262962 35.3652906,35.3652906 C33.6262962,37.1042849 31.6075132,38.4644884 29.3562904,39.4157699 C27.0275876,40.401487 24.5525337,40.9008022 22,40.9008022 C19.4474662,40.9008022 16.9724124,40.401487 14.6437096,39.4157699 C12.3924868,38.4644884 10.3737038,37.0999804 8.63470944,35.3652906 C6.89571511,33.6262962 5.53551161,31.6075132 4.58423008,29.3562904 C3.598513,27.0275876 3.09919779,24.5525337 3.09919779,22 C3.09919779,19.4474663 3.598513,16.9724124 4.58423008,14.6437096 C5.53551161,12.3924868 6.90001956,10.3737038 8.63470944,8.63470944 C10.3737038,6.89571511 12.3924868,5.53551161 14.6437096,4.58423008 C16.9724124,3.598513 19.4474663,3.09919783 22,3.09919783 M22,0 C9.84856193,0 0,9.84856193 0,22 C0,34.1514381 9.84856193,44 22,44 C34.151438,44 44,34.1514381 44,22 C44,9.84856197 34.1514381,0 22,0 Z" id="形状"></path>
                <path d="M22,11.8845627 C23.1880258,11.8845627 24.311485,12.3537468 25.15946,13.2017218 C26.0074349,14.0496968 26.476619,15.1731559 26.476619,16.3611818 L26.476619,27.6388182 C26.476619,28.8268441 26.0074349,29.9503033 25.15946,30.7982782 C24.311485,31.6462532 23.1880258,32.1154373 22,32.1154373 C20.8119742,32.1154373 19.6885149,31.6462532 18.84054,30.7982782 C17.9925651,29.9503032 17.5233809,28.8268441 17.5233809,27.6388182 L17.5233809,16.3611818 C17.5233809,15.1731559 17.9925651,14.0496967 18.84054,13.2017218 C19.688515,12.3537468 20.8119742,11.8845627 22,11.8845627 M22,9.30189785 C18.1173939,9.30189785 14.9407161,12.4785756 14.9407161,16.3611818 L14.9407161,27.6388182 C14.9407161,31.5214244 18.1173939,34.6981021 22,34.6981021 C25.8826061,34.6981021 29.0592839,31.5214244 29.0592839,27.6388182 L29.0592839,16.3611818 C29.0592839,12.4785756 25.8826061,9.30189785 22,9.30189785 Z" id="形状"></path>
                <path d="M22,22.0258267 C21.2854627,22.0258267 20.7086676,21.4490315 20.7086676,20.7344942 L20.7086676,16.9465858 C20.7086676,16.2320485 21.2854627,15.6552534 22,15.6552534 C22.7145372,15.6552534 23.2913324,16.2320485 23.2913324,16.9465858 L23.2913324,20.7344942 C23.2913324,21.4490315 22.7102328,22.0258267 22,22.0258267 Z" id="路径"></path>
            </g>
        </g>
    </g>
</svg>