<?xml version="1.0" encoding="UTF-8"?>
<svg width="32px" height="32px" viewBox="0 0 32 32" version="1.1" xmlns="http://www.w3.org/2000/svg" xmlns:xlink="http://www.w3.org/1999/xlink">
    <title>编组</title>
    <g id="页面-1" stroke="none" stroke-width="1" fill="none" fill-rule="evenodd">
        <g id="中文" transform="translate(-1080.000000, -2074.000000)" fill="#000000" fill-rule="nonzero">
            <g id="编组" transform="translate(1080.000000, 2074.000000)">
                <path d="M28.8117406,3.20356173 L25.04791,3.20356173 L25.04791,1.07647848 C25.0400701,0.479708504 24.5483336,0 23.9444406,0 C23.3405475,0 22.8488111,0.479708504 22.8409711,1.07647848 L22.8409711,3.20356173 L8.94285488,3.20356173 L8.94285488,1.07647848 C8.93501493,0.479708504 8.4432785,0 7.83938544,0 C7.23549238,0 6.74375596,0.479708504 6.735916,1.07647848 L6.735916,3.20356173 L3.18881743,3.20356173 C1.43927029,3.19502196 0.0128184019,4.58758105 0,6.31661219 L0,28.8862832 C0.0124918908,30.615559 1.43906233,32.0084808 3.18885463,31.9999611 L28.8117406,31.9999611 C30.5613731,32.0081549 31.9876102,30.6152164 32,28.8860994 L32,6.31661219 C31.9871817,4.58779735 30.5610704,3.19532704 28.8117406,3.20356173 Z M3.18881743,5.3580588 L6.735916,5.3580588 L6.735916,7.44225012 C6.74375596,8.0390201 7.23549238,8.5187286 7.83938544,8.5187286 C8.4432785,8.5187286 8.93501493,8.0390201 8.94285488,7.44225012 L8.94285488,5.3580588 L22.8417151,5.3580588 L22.8417151,7.44225012 C22.8495551,8.0390201 23.3412915,8.5187286 23.9451846,8.5187286 C24.5490776,8.5187286 25.0408141,8.0390201 25.048654,7.44225012 L25.048654,5.3580588 L28.8117406,5.3580588 C29.3504729,5.35534114 29.7897488,5.78415944 29.7936191,6.31657543 L29.7936191,9.86316028 L2.20716209,9.86316028 L2.20716209,6.31657543 C2.21103244,5.78424598 2.65017202,5.35546321 3.18881743,5.3580588 Z M28.8117406,29.844616 L3.18881743,29.844616 C2.65009957,29.8472765 2.21084645,29.4184642 2.20697608,28.8860626 L2.20697608,12.0185159 L29.7936191,12.0185159 L29.7936191,28.8860994 C29.7897488,29.4185154 29.3504729,29.8473337 28.8117406,29.844616 L28.8117406,29.844616 Z" id="形状"></path>
                <path d="M15.2959372,27.7019291 L15.2804989,27.7019291 C14.9909487,27.7005043 14.7138344,27.5854146 14.5101981,27.3819773 C14.3065617,27.1785399 14.1931086,26.9034438 14.19483,26.6172865 C14.2398058,23.4699342 16.4726365,19.4190421 18.0495422,16.9439401 L12.6674758,16.9439401 C12.2776956,16.9484566 11.9155524,16.7455349 11.7193311,16.4126613 C11.5231099,16.0797876 11.5231099,15.6683622 11.7193311,15.3354885 C11.9155524,15.0026149 12.2776956,14.7996933 12.6674758,14.8041358 L18.7887598,14.8041358 C19.4414204,14.8019151 20.0440546,15.1494436 20.3631358,15.7121245 C20.6776982,16.270533 20.6526193,16.9553545 20.2980344,17.4898288 C19.1392287,19.2447754 16.4391185,23.6495319 16.3962632,26.6472134 C16.382741,27.2368676 15.8927138,27.706567 15.2959372,27.7019291 L15.2959372,27.7019291 Z" id="路径"></path>
            </g>
        </g>
    </g>
</svg>