<?xml version="1.0" encoding="UTF-8"?>
<svg width="32px" height="32px" viewBox="0 0 32 32" version="1.1" xmlns="http://www.w3.org/2000/svg" xmlns:xlink="http://www.w3.org/1999/xlink">
    <title>账户安全</title>
    <g id="页面-1" stroke="none" stroke-width="1" fill="none" fill-rule="evenodd">
        <g id="中文" transform="translate(-806.000000, -1813.000000)" fill="#000000" fill-rule="nonzero">
            <g id="账户安全" transform="translate(806.000000, 1813.000000)">
                <rect id="矩形" opacity="0" x="0" y="0" width="32" height="32"></rect>
                <path d="M25.2219687,10.6355312 L24.401875,10.6355312 C24.40425,10.6048125 24.405625,10.5738437 24.4054687,10.5426875 L24.42375,8.7536875 C24.4059062,4.7528125 22.022625,1.54340625 18.3525625,0.577875 C17.6139062,0.38353125 16.834,0.28690625 16.0349687,0.29034411 C13.6955,0.3011875 11.5747187,1.19665625 10.0635625,2.8120625 C8.59296875,4.384375 7.7888125,6.52125 7.79965625,8.8255 L7.7315625,10.6123125 L7.8198125,10.6355313 L6.71940625,10.6355313 C4.40290625,10.6355313 2.5184375,12.5199375 2.5184375,14.8361563 L2.5184375,27.1713125 C2.5184375,29.4875 4.40284375,31.3719375 6.71940625,31.3719375 L25.2219375,31.3719375 C27.538125,31.3719375 29.4225625,29.4875312 29.4225625,27.1713125 L29.4225625,14.836125 C29.4225625,12.5199375 27.538125,10.6355313 25.2219375,10.6355313 L25.2219687,10.6355312 Z M16.0450313,2.52448419 C16.64075,2.52178125 17.2199375,2.59309375 17.7665,2.73690625 C20.44025,3.4403125 22.1766875,5.80615625 22.1903125,8.76265625 L22.1720625,10.5515 C22.1721875,10.5797812 22.17375,10.60775 22.1759688,10.6355937 L9.96428125,10.6355937 L10.0330625,8.81925 C10.016625,5.18771875 12.545,2.5403125 16.0450625,2.52448419 L16.0450313,2.52448419 Z M27.1889062,27.1713125 C27.1889062,28.2559375 26.3064688,29.13825 25.2219687,29.13825 L6.7194375,29.13825 C5.634625,29.13825 4.7521875,28.2557813 4.7521875,27.1713125 L4.7521875,14.8361563 C4.7521875,13.7515937 5.63465625,12.8694062 6.7194375,12.8694062 L25.2219687,12.8694062 C26.3064375,12.8694062 27.1889062,13.7515937 27.1889062,14.8361563 L27.1889062,27.1713125 Z M15.9706562,16.803125 C14.7880937,16.803125 13.8259375,17.76525 13.8259375,18.9478125 C13.8259375,19.6934375 14.218375,20.39025 14.8536875,20.7786563 L14.8536875,24.0876563 C14.8536875,24.7034063 15.354625,25.204375 15.9706875,25.204375 C16.5864062,25.204375 17.0874062,24.7034063 17.0874062,24.0876563 L17.0874062,20.7786563 C17.723,20.3905313 18.1154375,19.6935625 18.1154375,18.9478125 C18.115375,17.7652188 17.1532187,16.803125 15.9706562,16.803125 Z" id="形状"></path>
            </g>
        </g>
    </g>
</svg>