<?xml version="1.0" encoding="UTF-8"?>
<svg width="32px" height="32px" viewBox="0 0 32 32" version="1.1" xmlns="http://www.w3.org/2000/svg" xmlns:xlink="http://www.w3.org/1999/xlink">
    <title>资质证书</title>
    <g id="页面-1" stroke="none" stroke-width="1" fill="none" fill-rule="evenodd">
        <g id="中文" transform="translate(-532.000000, -1813.000000)" fill="#000000" fill-rule="nonzero">
            <g id="资质证书" transform="translate(532.000000, 1813.000000)">
                <rect id="矩形" opacity="0" x="0" y="0" width="32" height="32"></rect>
                <path d="M31.4459109,29.2978259 C31.3415506,29.4389128 31.1629704,29.503967 30.992314,29.4630647 L27.8929509,28.7431416 L26.8263502,31.6992976 C26.7632807,31.8668536 26.610007,31.9836335 26.4317208,31.9999798 L26.3844172,31.9999798 C26.2191523,32.0011927 26.0669735,31.9102352 25.9897878,31.7640972 L22.8489531,25.9703684 C22.3188927,26.023504 22.0007268,26.0176721 21.4466905,25.9587045 L18.3239997,31.7342894 C18.2442906,31.8837121 18.0870011,31.9752761 17.9177064,31.9708078 L17.8820667,31.9708078 C17.7068431,31.9529777 17.5576586,31.835599 17.4991012,31.6694898 L16.4448124,28.7023179 L13.3389694,29.4040972 C13.1656806,29.4400469 12.9871157,29.3735573 12.8795405,29.2330263 C12.7718046,29.0888985 12.7581278,28.8951427 12.8445487,28.7373097 L16.3975087,22.3007692 L16.3677009,22.2359696 C15.9958026,21.4107386 15.8049013,20.5154466 15.8078327,19.6102914 C15.8136647,16.0884352 18.6719733,13.2391985 22.1892935,13.2391985 L22.2184533,13.2391985 C25.7539174,13.2508624 28.6057461,16.124075 28.5882503,19.6575951 C28.5882503,20.5842288 28.3821877,21.445415 28.0050542,22.2891053 L31.4932146,28.8021092 C31.5696781,28.9615162 31.5580142,29.1565628 31.4459109,29.2978259 L31.4459109,29.2978259 Z M17.6112045,23.9116863 L15.7961687,27.1743442 L17.2107432,26.8555304 C17.2881459,26.8378563 17.3664904,26.8810713 17.39283,26.9559697 L17.8704027,28.3005606 L19.5260315,25.280253 C18.7426048,24.8493359 18.2417042,24.5544979 17.6112045,23.9116863 L17.6112045,23.9116863 Z M22.2009574,15.2978806 L22.1834616,15.2978806 C19.8095929,15.2982269 17.8833763,17.2189375 17.876182,19.5927955 C17.8645708,21.9702914 19.7910618,23.9175183 22.1659657,23.929184 C24.5459908,23.9313495 26.4796245,22.0084356 26.4907305,19.6284352 C26.5010925,17.2483644 24.5810201,15.3100194 22.2009574,15.2978806 L22.2009574,15.2978806 Z M26.7796945,23.9058543 C26.0487554,24.6374414 25.4538954,24.991247 24.5577175,25.4869637 L26.4550487,28.979012 L27.003253,27.4452064 C27.041174,27.3452817 27.146187,27.287827 27.2507873,27.3097753 L28.8591124,27.6752448 L26.7796945,23.9058543 L26.7796945,23.9058543 Z M6.02698681,22.2359696 L13.7225828,22.2359696 L13.7225828,24.247996 L6.02698681,24.247996 L6.02698681,22.2359696 Z M6.02698681,18.6843057 L6.02698681,16.6781112 L13.7225828,16.6781112 L13.7225828,18.6843057 L6.02698681,18.6843057 Z M6.02698681,5.55785841 L21.823824,5.55785841 L21.823824,7.56923681 L6.02698681,7.56923681 L6.02698681,5.55785841 Z M6.02698681,11.1150688 L17.2813747,11.1150688 L17.2813747,13.1270952 L6.02698681,13.1270952 L6.02698681,11.1150688 Z M26.5438241,1.99971447 L2.45653097,1.99971447 L2.45653097,27.793828 L11.0826486,27.793828 L11.0826486,29.7993745 L2.597794,29.7993745 C1.41973797,29.7993745 0.4529285,28.8085892 0.4529285,27.5812855 L0.4529285,2.218089 C0.4529285,0.99726525 1.413906,0 2.597794,0 L26.401913,0 C27.5806171,0 28.5467785,0.990785313 28.5467785,2.218089 L28.5467785,11.6989129 L26.5438241,11.6989129 L26.5438241,1.99971447 L26.5438241,1.99971447 Z" id="形状"></path>
            </g>
        </g>
    </g>
</svg>