<?xml version="1.0" encoding="UTF-8"?>
<svg width="32px" height="32px" viewBox="0 0 32 32" version="1.1" xmlns="http://www.w3.org/2000/svg" xmlns:xlink="http://www.w3.org/1999/xlink">
    <title>安全</title>
    <g id="页面-1" stroke="none" stroke-width="1" fill="none" fill-rule="evenodd">
        <g id="中文" transform="translate(-1081.000000, -4545.000000)" fill="#000000" fill-rule="nonzero">
            <g id="安全" transform="translate(1081.000000, 4545.000000)">
                <rect id="矩形" opacity="0" x="0" y="0" width="32" height="32"></rect>
                <path d="M27.6053125,17.2903125 L27.6053125,8.7959375 L27.6053125,7.7475 C27.606875,7.4590625 27.5878125,7.1734375 27.4178125,6.929375 C27.2690625,6.718125 27.0571875,6.5784375 26.8225,6.47875 C26.4978125,6.34125 26.17125,6.2075 25.845625,6.0725 L23.883125,5.2553125 L19.9196875,3.6053125 L17.9421875,2.78125 L16.959375,2.3728125 L16.4821875,2.1740625 C16.3428125,2.11625 16.21375,2.0465625 16.060625,2.0334375 C15.9075,2.0203125 15.78375,2.0665625 15.6484375,2.1228125 L15.1109375,2.3465625 L14.12125,2.75875 L12.1478125,3.5803125 L8.2096875,5.21875 L6.243125,6.0375 L5.298125,6.4309375 C5.031875,6.541875 4.798125,6.6446875 4.6225,6.8846875 C4.4740625,7.0875 4.410625,7.3259375 4.401875,7.5746875 C4.38909722,7.9428125 4.3940625,8.3121875 4.3959375,8.6803125 C4.39947917,9.3846875 4.40145833,10.0889583 4.401875,10.793125 L4.401875,15.074375 C4.401875,16.4934375 4.373125,17.9159375 4.401875,19.3346875 C4.4296875,20.6446875 5.18125,21.8159375 5.923125,22.8471875 C7.4384375,24.9540625 9.391875,26.8059375 11.55375,28.2403125 C12.6196875,28.9478125 13.79375,29.5965625 15.05625,29.8653125 C15.6519519,29.9951953 16.2679447,30.0016828 16.86625,29.884375 C17.5109375,29.759375 18.1265625,29.511875 18.7178125,29.2303125 C19.8953125,28.669375 20.97,27.9253125 21.985,27.1103125 C23.0143865,26.2878059 23.9710444,25.3781968 24.844375,24.3915625 C25.6953125,23.4253125 26.505,22.3915625 27.0753125,21.2309375 C27.3565625,20.6615625 27.59375,20.0596875 27.60375,19.4165625 C27.6165625,18.708125 27.6053125,18 27.6053125,17.2903125 L27.6053125,17.2903125 Z M24.27,22.3240625 C24.2670771,22.3279778 24.2643649,22.332046 24.261875,22.33625 C23.588683,23.1781688 22.8540701,23.9690814 22.0640625,24.7025 C21.6128125,25.1245833 21.145,25.5280208 20.660625,25.9128125 C20.5590625,25.9928125 20.52375,26.02 20.405625,26.10875 C20.2733333,26.2077083 20.1397917,26.305 20.005,26.400625 C19.758125,26.575625 19.5070833,26.7442708 19.251875,26.9065625 C18.7095642,27.2531482 18.1417964,27.5581863 17.5534375,27.8190625 C17.1575,27.9825 16.7271875,28.134375 16.3009375,28.1846875 C16.0986136,28.2023438 15.8951364,28.2023438 15.6928125,28.1846875 C14.9071875,28.0865625 14.1440625,27.7078125 13.46125,27.328125 C12.7509809,26.9346337 12.0731166,26.4853017 11.4340625,25.984375 L11.43,25.9815625 C10.0621875,24.90125 8.77375,23.6378125 7.7165625,22.296875 C7.7084375,22.2840625 7.7009375,22.273125 7.69875,22.274375 C7.685625,22.2575 7.6721875,22.24125 7.6590625,22.224375 C7.1590625,21.555 6.64,20.845 6.339375,20.061875 C6.264375,19.8659375 6.183125,19.6515625 6.176875,19.44 C6.1696875,19.19 6.176875,18.936875 6.176875,18.685625 L6.176875,7.9734375 C8.73520833,6.9109375 11.2926042,5.84635417 13.8490625,4.7796875 L15.7740625,3.9784375 C15.8365625,3.9528125 15.9409375,3.8846875 16.004375,3.8846875 C16.0590625,3.8846875 16.1584375,3.9471875 16.2084375,3.966875 L16.7153125,4.1778125 L17.7009375,4.588125 L21.5759375,6.201875 L25.82125,7.969375 C25.8109375,8.7271875 25.83,9.4853125 25.83,10.243125 L25.83,18.7975 C25.83,19.004375 25.8328125,19.211875 25.83,19.41875 C25.8271875,19.6196875 25.755,19.8159375 25.6878125,20.0034375 C25.6775,20.0309375 25.66625,20.0578125 25.6546875,20.0846875 C25.643125,20.1115625 25.621875,20.1378125 25.635625,20.13125 C25.631875,20.1396875 25.6284375,20.1484375 25.625,20.156875 C25.2603125,20.9375 24.7765625,21.628125 24.27,22.3240625 L24.27,22.3240625 Z" id="形状"></path>
                <path d="M22.3240625,16.0034375 C22.3239609,15.9911594 22.3227053,15.9789181 22.3203125,15.966875 C22.28125,15.59 22.0590625,15.253125 21.69,15.125 C21.46625,15.0475 21.21375,15.0771875 20.9809375,15.0771875 L16.9259375,15.0771875 L16.9259375,12.6065625 C16.9259375,12.1640625 16.9273958,11.7214583 16.9303125,11.27875 C16.9321875,10.9334375 16.9840625,10.5334375 16.8325,10.2115625 C16.55125,9.6178125 15.7453125,9.5075 15.3090625,9.9978125 C15.0590625,10.2790625 15.0753125,10.6103125 15.0753125,10.9634375 L15.0753125,15.078125 L12.60375,15.078125 C12.16125,15.078125 11.7186458,15.0767708 11.2759375,15.0740625 C10.930625,15.071875 10.530625,15.02 10.20875,15.1715625 C9.6134375,15.4528125 9.5046875,16.25875 9.995,16.695 C10.27625,16.945 10.6075,16.92875 10.960625,16.92875 L15.0753125,16.92875 L15.0753125,19.4003125 C15.0753125,19.8428125 15.0739583,20.2854167 15.07125,20.728125 C15.0690625,21.0734375 15.0171875,21.4734375 15.16875,21.7953125 C15.45,22.3890625 16.2559375,22.4996875 16.6921875,22.0090625 C16.9421875,21.7278125 16.9259375,21.396875 16.9259375,21.0434375 L16.9259375,16.92875 C17.994375,16.92875 19.0628125,16.9265625 20.1309375,16.92875 C20.4084375,16.92875 20.6859375,16.9340625 20.963125,16.93375 C21.1865625,16.93375 21.435,16.9578125 21.650625,16.89125 C22.025625,16.7759375 22.306875,16.439375 22.3215625,16.0475 C22.3240934,16.0329582 22.3249323,16.0181723 22.3240625,16.0034375 L22.3240625,16.0034375 Z" id="路径"></path>
            </g>
        </g>
    </g>
</svg>