<?xml version="1.0" encoding="UTF-8"?>
<svg width="36px" height="36px" viewBox="0 0 36 36" version="1.1" xmlns="http://www.w3.org/2000/svg" xmlns:xlink="http://www.w3.org/1999/xlink">
    <title>编组</title>
    <g id="页面-1" stroke="none" stroke-width="1" fill="none" fill-rule="evenodd">
        <g id="中文" transform="translate(-1079.000000, -1311.000000)" fill="#000000" fill-rule="nonzero">
            <g id="编组" transform="translate(1079.000000, 1311.000000)">
                <path d="M8.35707921,0 C3.74148522,0 0,3.7415369 0,8.35707917 C0,12.9726214 3.74148522,16.7143651 8.35707921,16.7143651 L16.7143134,16.7143651 L16.7143134,8.35707917 C16.7143134,3.7415369 12.9726215,0 8.35707921,0 Z M14.1428368,14.1426301 L8.35707921,14.1426301 C5.16662098,14.1426301 2.57152825,11.5474857 2.57152825,8.35707917 C2.57152825,5.16667262 5.16662098,2.57152825 8.35707921,2.57152825 C11.5474858,2.57152825 14.1428368,5.16667266 14.1428368,8.35707917 L14.1428368,14.1426301 Z M36,8.35707917 C36,3.7415369 32.2582564,0 27.6429208,0 C23.0273785,0 19.2858416,3.7415369 19.2858416,8.35707917 L19.2858416,16.7143651 L27.6429208,16.7143651 C32.2582564,16.7143651 36,12.9726215 36,8.35707917 Z M21.8569564,8.35707917 C21.8569564,5.16667262 24.4523076,2.57152825 27.6429208,2.57152825 C30.8333274,2.57152825 33.4286785,5.16667266 33.4286785,8.35707917 C33.4286785,11.5474857 30.8333273,14.1426301 27.6429208,14.1426301 L21.8569564,14.1426301 L21.8569564,8.35707917 Z M0,27.6429208 C0,32.2584631 3.74148522,36 8.35707921,36 C12.9726215,36 16.7143134,32.2583081 16.7143134,27.6429208 L16.7143134,19.2860483 L8.35707921,19.2860483 C3.74148522,19.2860483 0,23.0275335 0,27.6429208 Z M14.1428368,27.6429208 C14.1428368,30.8333273 11.5474857,33.4288852 8.35707921,33.4288852 C5.16662098,33.4288852 2.57152825,30.8333273 2.57152825,27.6429208 C2.57152825,24.4525142 5.16662098,21.8571632 8.35707921,21.8571632 L14.1428368,21.8571632 L14.1428368,27.6429208 Z M27.6429208,19.2860483 L19.2858416,19.2860483 L19.2858416,27.6429208 C19.2858416,32.2584631 23.0273268,36 27.6429208,36 C32.2583081,36 36,32.2585148 36,27.6429208 C36,23.0275335 32.2582564,19.2860483 27.6429208,19.2860483 Z M27.6429208,33.4288852 C24.4523076,33.4288852 21.8569564,30.8333273 21.8569564,27.6429208 L21.8569564,21.8571632 L27.6429208,21.8571632 C30.8333274,21.8571632 33.4284717,24.4525143 33.4284717,27.6429208 C33.4284717,30.8333273 30.8333273,33.4288852 27.6429208,33.4288852 Z" id="形状"></path>
            </g>
        </g>
    </g>
</svg>