<?xml version="1.0" encoding="UTF-8"?>
<svg width="44px" height="44px" viewBox="0 0 44 44" version="1.1" xmlns="http://www.w3.org/2000/svg" xmlns:xlink="http://www.w3.org/1999/xlink">
    <title>闪电</title>
    <g id="页面-1" stroke="none" stroke-width="1" fill="none" fill-rule="evenodd">
        <g id="中文" transform="translate(-525.000000, -1307.000000)" fill="#000000" fill-rule="nonzero">
            <g id="闪电" transform="translate(525.000000, 1307.000000)">
                <rect id="矩形" opacity="0" x="0" y="0" width="44" height="44"></rect>
                <path d="M17.0055417,25.2042083 L9.626375,25.2042083 C8.66295835,25.2042083 7.998375,24.239875 8.34120835,23.3401667 L15.673625,4.09383335 C15.8767097,3.560744 16.3878707,3.20833335 16.9583333,3.20833335 L29.3315,3.20833335 C30.30775,3.20833335 30.97325,4.1974167 30.60475,5.10170835 L26.335375,15.5810417 L34.3727083,15.5810417 C35.55475,15.5810417 36.1854167,16.974375 35.4057917,17.862625 L15.7002083,40.316375 C14.7422917,41.408125 12.96625,40.462125 13.3379583,39.05825 L17.0055417,25.2042083 Z M17.9057083,5.95833335 L11.6210417,22.4546667 L18.7912083,22.4546667 C19.2178698,22.4547086 19.6203383,22.6528131 19.8806085,22.9908951 C20.1408787,23.3289771 20.2294581,23.768727 20.120375,24.1812083 L17.4936667,34.1050417 L31.3371667,18.3305833 L24.29075,18.3305833 C23.3145,18.3305833 22.649,17.3415 23.0175,16.4372083 L27.286875,5.957875 L17.9057083,5.957875 L17.9057083,5.95833335 Z" id="形状"></path>
            </g>
        </g>
    </g>
</svg>