<?xml version="1.0" encoding="UTF-8"?>
<svg width="32px" height="32px" viewBox="0 0 32 32" version="1.1" xmlns="http://www.w3.org/2000/svg" xmlns:xlink="http://www.w3.org/1999/xlink">
    <title>交易</title>
    <g id="页面-1" stroke="none" stroke-width="1" fill="none" fill-rule="evenodd">
        <g id="中文" transform="translate(-807.000000, -4545.000000)" fill="#000000" fill-rule="nonzero">
            <g id="交易" transform="translate(807.000000, 4545.000000)">
                <rect id="矩形" opacity="0" x="0" y="0" width="32" height="32"></rect>
                <path d="M16.0625,28.940625 C8.928125,28.940625 3.125,23.1375 3.125,16.003125 C3.125,8.86875 8.928125,3.065625 16.0625,3.065625 C23.196875,3.065625 29,8.86875 29,16.003125 C29,23.1375 23.196875,28.940625 16.0625,28.940625 Z M16.0625,4.8375 C9.90625,4.8375 4.896875,9.846875 4.896875,16.003125 C4.896875,22.159375 9.90625,27.16875 16.0625,27.16875 C22.21875,27.16875 27.228125,22.159375 27.228125,16.003125 C27.228125,9.846875 22.21875,4.8375 16.0625,4.8375 Z" id="形状"></path>
                <path d="M23.015625,14.928125 L9.109375,14.928125 L9.109375,13.15625 L20.328125,13.15625 L19.396875,12.465625 L20.45,11.040625 L23.540625,13.328125 C23.846875,13.55625 23.975,13.953125 23.85625,14.31875 C23.7375,14.684375 23.396875,14.928125 23.015625,14.928125 L23.015625,14.928125 Z M11.675,20.965625 L8.584375,18.678125 C8.278125,18.45 8.15,18.053125 8.26875,17.6875 C8.3875,17.325 8.728125,17.078125 9.109375,17.078125 L23.015625,17.078125 L23.015625,18.85 L11.796875,18.85 L12.728125,19.540625 L11.675,20.965625 Z" id="形状"></path>
            </g>
        </g>
    </g>
</svg>