<?xml version="1.0" encoding="UTF-8"?>
<svg width="48px" height="48px" viewBox="0 0 48 48" version="1.1" xmlns="http://www.w3.org/2000/svg" xmlns:xlink="http://www.w3.org/1999/xlink">
    <title>icon-trade</title>
    <g id="页面-1" stroke="none" stroke-width="1" fill="none" fill-rule="evenodd">
        <g id="Apple-TV" transform="translate(-575.000000, -1644.000000)" fill-rule="nonzero">
            <g id="icon-trade" transform="translate(575.000000, 1644.000000)">
                <rect id="矩形" fill="#000000" opacity="0" x="0" y="0" width="48" height="48"></rect>
                <path d="M31.1952,22.572 L25.644,17.0208 C25.2663305,16.6428281 24.7539192,16.4304602 24.2196,16.4304602 C23.6852808,16.4304602 23.1728695,16.6428281 22.7952,17.0208 L17.2464,22.572 C16.8684281,22.9496695 16.6560602,23.4620808 16.6560602,23.9964 C16.6560602,24.5307192 16.8684281,25.0431305 17.2464,25.4208 L22.7976,30.972 C23.1752695,31.3499719 23.6876808,31.5623398 24.222,31.5623398 C24.7563192,31.5623398 25.2687305,31.3499719 25.6464,30.972 L31.1976,25.4208 C31.9824,24.6336 31.9824,23.3568 31.1952,22.572 L31.1952,22.572 Z" id="路径"></path>
                <path d="M24.2208,32.9976096 C23.3352,32.9976096 22.452,32.6616 21.78,31.9872 L16.2288,26.436 C15.5782642,25.7896718 15.2135331,24.9098229 15.2159876,23.9928 C15.2159876,23.0712 15.576,22.2024 16.2288,21.5496 L21.78,15.9984 C23.1264,14.652 25.3176,14.652 26.664,15.9984 L32.2152,21.5496 C33.5616,22.896 33.5616,25.0872 32.2152,26.4336 L26.664,31.9848 C26.0175045,32.6350864 25.1377646,32.9997723 24.2208,32.9976096 L24.2208,32.9976096 Z M24.2208,17.8704 C24.0744,17.8704 23.928,17.9256 23.8152,18.0384 L18.264,23.5896 C18.1176,23.736 18.096,23.9064 18.096,23.9952 C18.096,24.084 18.1176,24.2544 18.264,24.4008 L23.8152,29.952 C24.0384,30.1752 24.4032,30.1752 24.6264,29.952 L30.1776,24.4008 C30.4008,24.1776 30.4008,23.8128 30.1776,23.5896 L24.6264,18.0384 C24.516,17.928 24.3672,17.8704 24.2208,17.8704 L24.2208,17.8704 Z" id="形状" fill="#FFFFFF"></path>
                <path d="M24.2208,45.5928 C12.312,45.5928 2.6232,35.904 2.6232,23.9952 C2.6232,12.0864 12.312,2.3976 24.2208,2.3976 C36.1296,2.3976 45.8184,12.0864 45.8184,23.9952 C45.8184,35.904 36.1296,45.5928 24.2208,45.5928 Z M24.2208,5.2776 C13.9008,5.2776 5.5032,13.6728 5.5032,23.9952 C5.5032,34.3152 13.8984,42.7128 24.2208,42.7128 C34.5408,42.7128 42.9384,34.3176 42.9384,23.9952 C42.9384,13.6752 34.5408,5.2776 24.2208,5.2776 Z" id="形状" fill="#FFFFFF"></path>
            </g>
        </g>
    </g>
</svg>