<?xml version="1.0" encoding="UTF-8"?>
<svg width="32px" height="32px" viewBox="0 0 32 32" version="1.1" xmlns="http://www.w3.org/2000/svg" xmlns:xlink="http://www.w3.org/1999/xlink">
    <title>icon-saving</title>
    <defs>
        <path d="M1.01428729,12.8903496 C0.981052396,12.8526775 0.950400905,12.8128025 0.922542275,12.7709971 L0.185749633,11.665734 C-0.152836465,11.1578207 -0.0156334468,10.4715868 0.4922457,10.132978 C1.00012485,9.79440373 1.68631265,9.9316505 2.02489875,10.4395292 L2.23426116,10.7536457 C2.81851389,9.93852493 3.49817315,9.21259901 4.26225441,8.58733684 C4.12380786,8.09479606 4.05247748,7.58201199 4.05247748,7 C4.05247748,3.13401436 7.18628146,0 11.0520076,0 C14.7278187,0 17.7418291,2.83361216 18.0291196,6.43574407 C18.1751309,6.40824635 19.443568,5.96517383 20.1326919,5.74875022 C21.1350131,5.43401189 22.1542257,5.22173366 23.1531963,5.16038197 C23.6631826,5.11758087 24.2193176,5.42969378 24.5077134,5.90354578 C24.8862998,6.52559528 24.7612903,7.26634096 24.2396632,7.8590964 C24.1316486,7.98591063 23.1474277,9.33868779 23.1376522,9.35267846 C23.3040782,9.50892491 23.788952,9.96042638 24.1483672,10.4576998 C24.5077134,10.9549387 25.2583576,12.4049251 25.7467202,12.4049251 C26.9930155,12.4049251 28,13.2129297 28,14.595139 L28,17.7692255 C28,19.1694327 27.1182668,20.0647667 25.7226095,20.0647667 C25.1643328,20.0647667 24.936421,20.2763195 24.4247422,21.2466849 L24.4257785,21.2446813 C24.4800103,21.1419449 24.1926508,21.6906902 24.1184189,21.8277297 C23.6407644,22.7096948 23.1859772,23.3183754 22.529876,23.803489 L22.529876,26.1012066 C22.529876,27.104666 21.6481428,28 20.6432308,28 L18.2988969,28 C17.5118448,28 16.9160203,27.5752017 16.5184356,26.9362598 C16.2952907,26.577684 16.0254097,25.6917117 15.9908326,25.6194093 L10.8083444,25.6194093 C10.8082062,25.6456634 10.8009869,26.1469095 10.7646135,26.3684112 C10.6122463,27.2969082 9.99676715,28 8.92152658,28 C8.39513262,28 7.30673134,27.9909492 5.6518322,27.9728823 C4.90077349,27.9729514 4.31334284,27.5002739 3.60069544,26.6437684 C3.38293919,26.3820219 1.87101168,24.1346016 1.83353301,24.0769808 C1.20368411,23.0364893 0.403678596,21.0037999 0.135939273,19.3511042 C-0.13003838,17.7094283 0.0240904884,15.926602 0.343885438,14.7709033 C0.524473902,14.1145508 0.748862322,13.4867323 1.01425275,12.8903496 L1.01428729,12.8903496 Z M15.7739745,6.19614084 C15.3916921,3.93369359 13.4230775,2.21052632 11.0520076,2.21052632 C8.40701526,2.21052632 6.26285541,4.35483011 6.26285541,7 C6.26285541,7.09572384 6.26565336,7.18757865 6.27121471,7.27632443 C7.95354063,6.418748 9.90357134,5.95142498 12.0473167,5.95142498 C12.6746094,5.95142498 13.5414548,6.00092778 14.5971097,6.08918992 C14.9896348,6.12218397 15.381932,6.1578351 15.7739745,6.19614084 L15.7739745,6.19614084 Z M8.59741381,25.7886101 C8.59765561,25.7633923 8.60086806,25.3126854 8.61596316,25.1291485 C8.69810535,24.128349 9.01296071,23.4089175 10.0936935,23.4089175 L16.3453083,23.4089175 C17.3898751,23.4089175 17.9842488,24.3376909 18.2146476,25.2985565 C18.2424544,25.4145237 18.3060127,25.5781627 18.4053225,25.7894737 L20.3195326,25.7894737 C20.3520371,24.0186345 20.3834018,23.079774 20.4135574,22.9728921 C20.5067877,22.6427468 20.6982571,22.3547808 21.0197792,22.1616749 C21.580992,21.8066918 21.9660379,21.3444469 22.1748821,20.7749402 C22.220651,20.6501295 22.5080796,20.142769 22.4711536,20.2125497 C23.327498,18.5905989 24.1879185,17.8542404 25.7917292,17.8542404 C25.7742852,15.6950477 25.7592592,14.6154514 25.7467548,14.6154514 C24.3304756,14.6154514 23.5979317,14.0603499 23.0048015,12.8932514 C23.014128,12.9116293 22.6526747,12.2002813 22.3532253,11.7482617 C22.1535694,11.4469267 21.82203,11.104898 21.3585725,10.7221408 C20.7475148,10.1104893 20.6278939,9.12302416 21.1125259,8.39537099 C21.166965,8.31557233 21.554947,7.75964172 21.6544986,7.61994226 C21.3681408,7.68809929 19.8935538,8.16195129 19.5358311,8.32590125 C19.0154821,8.65442298 17.1761258,8.65442298 15.5534894,8.39564735 C13.9308875,8.13683717 12.5988231,8.16195129 12.0473512,8.16195129 C8.91876317,8.16195129 6.54392816,9.4537913 4.56854322,11.3603573 C1.83356755,14 2.10711002,17.6964394 2.31788868,18.9975374 C2.53733751,20.3520418 3.23406079,22.1223974 3.70567026,22.9022824 C3.73641313,22.9485035 5.31932559,25.6904335 5.79110777,25.7399709 C6.26288995,25.7894737 5.81269687,25.7570706 5.82209244,25.7641523 C7.10697176,25.7779702 8.03081232,25.7861228 8.59741381,25.7886446 L8.59741381,25.7886101 Z M18.7882958,14 C18.1835593,14 17.6831068,13.5037629 17.6831068,12.8947368 C17.6831068,12.2744491 18.1835593,11.7894737 18.7882958,11.7894737 C19.3930322,11.7894737 19.8934847,12.2744491 19.8934847,12.8947368 C19.8934847,13.5150246 19.3930322,14 18.7882958,14 Z" id="path-1"></path>
    </defs>
    <g id="页面-1" stroke="none" stroke-width="1" fill="none" fill-rule="evenodd">
        <g id="Apple-TV" transform="translate(-814.000000, -3232.000000)">
            <g id="icon-saving" transform="translate(814.000000, 3232.000000)">
                <rect id="矩形" fill="#000000" fill-rule="nonzero" opacity="0" x="0" y="0" width="32" height="32"></rect>
                <g id="路径-4" transform="translate(2.000000, 2.000000)">
                    <mask id="mask-2" fill="white">
                        <use xlink:href="#path-1"></use>
                    </mask>
                    <use id="蒙版" fill="#2C2C2C" fill-rule="nonzero" xlink:href="#path-1"></use>
                    <path d="M4.09258056,8.66170854 C5.64414406,7.6263076 6.45188597,7.10860713 6.51580629,7.10860713 C6.57972662,7.10860713 8.17424014,6.22283495 11.2993468,4.45129057 L15.7739745,6.19614084 L18.0291196,6.43574407 L19.3310112,2.21052632 L16.9534269,0.10322847 L10.8814869,-0.903108183 L5.93037542,0.375686537 L2.91104313,4.19815245 L4.09258056,8.66170854 Z" fill="#A6173B" fill-rule="nonzero" mask="url(#mask-2)"></path>
                </g>
            </g>
        </g>
    </g>
</svg>