<?xml version="1.0" encoding="UTF-8"?>
<svg width="48px" height="48px" viewBox="0 0 48 48" version="1.1" xmlns="http://www.w3.org/2000/svg" xmlns:xlink="http://www.w3.org/1999/xlink">
    <title>icon-leaf</title>
    <defs>
        <path d="M41.2019412,3.70881436 C41.0660037,2.63537686 40.9441287,1.71193936 40.8925662,1.03693936 C40.8550662,0.540064356 40.4894412,0.127564356 40.0019412,0.0244393556 C39.5144412,-0.0786856444 39.0175662,0.151001856 38.7785037,0.591626856 C38.7456912,0.647876856 38.5253787,0.957251856 37.2644412,1.63693936 C36.2988162,2.15256436 35.0378787,2.72443936 33.5753787,3.38537686 C30.6503787,4.70725186 27.0081912,6.35256436 23.8488162,8.47131436 C20.0144412,11.0400644 17.6706912,13.7681894 16.6910037,16.8103769 C16.6347537,16.9791269 16.5831912,17.1478769 16.5363162,17.3213144 C15.7300662,16.4353769 14.5347537,15.2306894 13.0300662,14.0400644 C11.3331912,12.6994394 9.5941287,11.6494394 7.8597537,10.9181894 C5.6472537,9.99006436 3.4347537,9.57756436 1.2878787,9.69475186 C0.978503697,9.71350186 0.687878697,9.85412686 0.491003697,10.0931894 C0.289441197,10.3322519 0.200378697,10.6369394 0.233191197,10.9463144 C0.312878697,11.6353769 0.242566197,12.8025644 0.162878697,14.1572519 C0.0175661974,16.6135019 -0.165246303,19.6650644 0.284753697,22.8291269 C0.533191197,24.5822519 0.959753697,26.1900644 1.5456912,27.6103769 C2.2394412,29.2791269 3.1910037,30.7510019 4.3675662,31.9885019 C5.9566287,33.6572519 8.0097537,34.9369394 10.4613162,35.7853769 C12.8847537,36.6291269 15.7628787,37.0744394 19.0347537,37.1166269 C19.0581912,38.2135019 18.8378787,39.3431894 18.3691287,40.4916269 C18.1347537,41.0681894 18.4113162,41.7244394 18.9878787,41.9588144 C19.1285037,42.0150644 19.2691287,42.0431894 19.4097537,42.0431894 C19.8550662,42.0431894 20.2722537,41.7806894 20.4503787,41.3447519 C21.0972537,39.7603769 21.2988162,38.3400644 21.2800662,37.1400644 C24.6222537,37.1260019 27.5988162,36.6431894 30.1441287,35.7056894 C32.7878787,34.7306894 35.0285037,33.2447519 36.8003787,31.2900644 C38.4503787,29.4713144 39.7253787,27.2072519 40.5878787,24.5635019 C41.3144412,22.3463144 41.7738162,19.8056894 41.9472537,17.0072519 C42.2660037,11.9541269 41.6238162,6.99475186 41.2019412,3.70881436 L41.2019412,3.70881436 Z M5.9894412,30.4275644 C1.7097537,25.9416269 2.1269412,18.9291269 2.4035037,14.2885019 C2.4550662,13.3931894 2.5019412,12.6103769 2.5113162,11.9353769 C6.1722537,12.1041269 9.4253787,14.0635019 11.5863162,15.7697519 C14.2347537,17.8556894 15.8894412,20.0400644 15.9081912,20.0635019 L15.9363162,20.0447519 C15.7347537,21.3666269 15.6597537,22.7353769 15.7019412,24.1369394 C15.7675662,26.1806894 16.0910037,28.2947519 16.6675662,30.4228769 C17.1644412,32.2556894 17.7550662,33.7744394 18.2285037,34.8431894 C12.7066287,34.6369394 8.5956912,33.1556894 5.9894412,30.4275644 L5.9894412,30.4275644 Z M35.1316287,29.7619394 C32.3378787,32.8463144 28.1894412,34.5431894 22.7800662,34.8291269 C22.3910037,34.8572519 22.0347537,34.8713144 21.7394412,34.8760019 C21.6738162,33.0056894 21.8425662,26.9588144 26.1035037,21.1697519 C30.3128787,15.4510019 34.9488162,12.5072519 34.9956912,12.4791269 C35.5206912,12.1510019 35.6847537,11.4572519 35.3519412,10.9275644 C35.0238162,10.4025644 34.3300662,10.2385019 33.8003787,10.5713144 C33.5988162,10.6978769 28.7706912,13.7541269 24.2894412,19.8385019 C21.3550662,23.8228769 20.2206912,27.9056894 19.7800662,30.6291269 C19.6910037,31.1869394 19.6253787,31.7119394 19.5785037,32.1994394 C19.5550662,32.1291269 19.5269412,32.0588144 19.5035037,31.9791269 L19.5035037,31.9744394 C19.2738162,31.3322519 19.0441287,30.6103769 18.8331912,29.8322519 C18.5097537,28.6322519 18.2097537,27.1931894 18.0503787,25.6041269 C18.0175662,25.3791269 18.0035037,25.2572519 18.0035037,25.2572519 C18.0035037,25.2572519 18.0081912,25.2525644 18.0175662,25.2385019 C17.8206912,22.8619394 17.9613162,20.1806894 18.8238162,17.4994394 C19.6441287,14.9588144 21.6972537,12.6150644 25.0956912,10.3369394 C28.1050662,8.32131436 31.6488162,6.71818936 34.4988162,5.43381436 C36.4066287,4.57131436 37.8456912,3.91037686 38.8816287,3.30568936 C38.9097537,3.53068936 38.9378787,3.76037686 38.9706912,3.99943936 C39.8191287,10.5853769 41.3988162,22.8431894 35.1316287,29.7619394 Z" id="path-1"></path>
    </defs>
    <g id="页面-1" stroke="none" stroke-width="1" fill="none" fill-rule="evenodd">
        <g id="Apple-TV" transform="translate(-1348.000000, -1203.000000)">
            <g id="icon-leaf" transform="translate(1348.000000, 1203.000000)">
                <rect id="矩形" fill="#000000" fill-rule="nonzero" opacity="0" x="0" y="0" width="48" height="48"></rect>
                <g id="路径-2" transform="translate(3.005871, 2.989623)">
                    <mask id="mask-2" fill="white">
                        <use xlink:href="#path-1"></use>
                    </mask>
                    <use id="蒙版" fill="#2C2C2C" fill-rule="nonzero" xlink:href="#path-1"></use>
                    <path d="M21.4874281,18.4720044 C22.6926958,16.849973 32.3964232,11.3136454 33.723184,9.89229568 C34.6076912,8.94472918 35.6297871,9.98398519 36.7894717,13.0100637 C36.4691239,14.2679943 35.447028,17.1047057 33.723184,21.5201977 C31.137418,28.1434358 29.7880929,29.3438874 27.8127777,31.4525524 C25.8374624,33.5612173 22.3675161,34.8760019 21.7394412,34.8760019 C21.1113663,34.8760019 19.059431,32.4957763 19.3427677,30.4478875 C19.5316588,29.0826283 19.9356065,26.275281 20.5546107,22.0258457 C20.3729772,20.7379725 20.6839163,19.5533587 21.4874281,18.4720044 Z" fill="#A6173B" mask="url(#mask-2)"></path>
                </g>
            </g>
        </g>
    </g>
</svg>