<?xml version="1.0" encoding="UTF-8"?>
<svg width="48px" height="48px" viewBox="0 0 48 48" version="1.1" xmlns="http://www.w3.org/2000/svg" xmlns:xlink="http://www.w3.org/1999/xlink">
    <title>icon-license</title>
    <g id="页面-1" stroke="none" stroke-width="1" fill="none" fill-rule="evenodd">
        <g id="Apple-TV" transform="translate(-1297.000000, -1644.000000)" fill-rule="nonzero">
            <g id="icon-license" transform="translate(1297.000000, 1644.000000)">
                <rect id="矩形" fill="#000000" opacity="0" x="0" y="0" width="48" height="48"></rect>
                <path d="M23.5,2.28699998 L29.711,8.499 L38.501,8.49999998 L38.499,17.286 L44.713,23.5 L38.499,29.711 L38.5,38.501 L29.711,38.499 L23.501,44.713 L17.286,38.499 L8.49999998,38.5 L8.49999998,29.711 L2.28800002,23.501 L8.49999998,17.286 L8.49999998,8.49999998 L17.286,8.499 L23.5,2.28699998 Z M23.5,6.52899998 L18.53,11.499 L11.5,11.499 L11.5,18.529 L6.53000002,23.499 L11.5,28.469 L11.5,35.5 L18.53,35.499 L23.5,40.47 L28.47,35.499 L35.501,35.5 L35.5,28.47 L40.471,23.499 L35.5,18.529 L35.501,11.499 L28.47,11.499 L23.5,6.52899998 L23.5,6.52899998 Z M29.658,18.086 L31.779,20.207 L22.233,29.753 L15.516,23.036 L17.637,20.914 L22.233,25.51 L29.658,18.086 L29.658,18.086 Z" id="形状" fill="#FFFFFF"></path>
            </g>
        </g>
    </g>
</svg>