<?xml version="1.0" encoding="UTF-8"?>
<svg width="32px" height="32px" viewBox="0 0 32 32" version="1.1" xmlns="http://www.w3.org/2000/svg" xmlns:xlink="http://www.w3.org/1999/xlink">
    <title>icon-investment</title>
    <g id="页面-1" stroke="none" stroke-width="1" fill="none" fill-rule="evenodd">
        <g id="Apple-TV" transform="translate(-629.000000, -3540.000000)" fill-rule="nonzero">
            <g id="icon-investment" transform="translate(629.000000, 3540.000000)">
                <rect id="矩形" fill="#000000" opacity="0" x="0" y="0" width="32" height="32"></rect>
                <g id="编组-5" transform="translate(3.000000, 3.000000)">
                    <path d="M1.78616037,19.1790475 C1.46140393,18.7559923 1.32338244,18.524939 1.10904322,18.093748 L0.849238077,17.6186244 C0.289841454,16.152522 0.00205079557,14.5964561 7.66173147e-14,13.0268477 C0.000896571384,5.83269058 5.82066965,0.00089843791 13,-1.87332331e-13 C20.1641269,-1.87332331e-13 26,5.81863697 26,12.9731523 C25.9991034,20.1673094 20.1793303,25.9991016 13,26 C9.33837121,26 5.94791406,24.524188 3.49437922,21.9044997 C4.12115915,21.3057138 4.61154134,20.9282183 5.47052211,20.1992615 C7.42559765,22.2754022 10.1513467,23.4475917 13,23.4372614 C15.7554551,23.4376931 18.3981776,22.3410234 20.3465786,20.3885986 C22.2949796,18.4361737 23.3893891,15.7879934 23.3889583,13.0268477 C23.3898199,10.2654202 22.2956006,7.6168218 20.3471529,5.66404497 C18.3987052,3.71126813 15.7557365,2.61437513 13,2.61480694 C10.2442635,2.61437513 7.60129481,3.71126814 5.6528471,5.66404498 C3.7043994,7.61682181 2.61018011,10.2654202 2.61104172,13.0268477 C2.61404647,13.8254896 2.70333352,14.6214582 2.87734199,15.4008386 C3.6681239,17.9635772 4.61478891,17.1256024 3.77691731,17.8334064 L1.78616037,19.1790475 Z" id="路径" fill="#2C2C2C"></path>
                    <path d="M6.76630026,15.345516 L6.97739196,15.5342637 L9.73132649,18.0237812 C10.0528354,18.3459541 10.6032975,18.3589712 10.9962528,18.0677139 L17.3566076,11.6210026 L17.3566076,14.5335753 C18.0099067,14.5369396 18.66322,14.5363972 19.3165126,14.5319482 L19.3165126,9.26328307 L19.3165126,8.830465 L19.3148888,8.66124289 L19.3148888,8.28049315 L13.0308519,8.28049315 C13.0324756,8.49202077 13.0340994,8.71168409 13.0324756,8.95900871 L13.0292281,9.48457352 L13.0259805,10.246073 L15.8010242,10.246073 L10.2850362,15.8954878 L10.0528354,15.6823331 L7.42230826,13.2627824 C7.00012491,12.9422367 6.51461404,12.9292196 6.15088683,13.2025784 L3.04296777,15.8954878 C3.16475143,16.2436949 3.51386459,17.0540084 3.87434422,17.7422867 L6.76630026,15.345516 Z" id="路径" fill="#A6173B"></path>
                </g>
            </g>
        </g>
    </g>
</svg>