<?xml version="1.0" encoding="UTF-8"?>
<svg width="241px" height="32px" viewBox="0 0 241 32" version="1.1" xmlns="http://www.w3.org/2000/svg" xmlns:xlink="http://www.w3.org/1999/xlink">
    <title>编组 8备份</title>
    <defs>
        <linearGradient x1="100%" y1="50%" x2="0%" y2="50%" id="linearGradient-1">
            <stop stop-color="#FFFFFF" offset="0%"></stop>
            <stop stop-color="#000000" offset="100%"></stop>
        </linearGradient>
        <linearGradient x1="0%" y1="50%" x2="100%" y2="50%" id="linearGradient-2">
            <stop stop-color="#FF0084" offset="0%"></stop>
            <stop stop-color="#BF0F29" offset="100%"></stop>
        </linearGradient>
    </defs>
    <g id="页面-1" stroke="none" stroke-width="1" fill="none" fill-rule="evenodd">
        <g id="中文" transform="translate(-320.000000, -5155.000000)">
            <g id="编组-8备份" transform="translate(320.000000, 5155.000000)">
                <g id="组_2985" opacity="0.998">
                    <polygon id="路径_3371" fill="#F60048" points="22.0111235 0 4.05151938 0 4.05151938 7.21777778 17.9596041 7.21777778 22.8926401 15.9991111 17.9596041 24.7795556 4.05151938 24.7795556 4.05151938 31.9991111 22.0119877 31.9991111 31 15.9991111"></polygon>
                    <polygon id="路径_3372" fill="url(#linearGradient-1)" fill-rule="nonzero" opacity="0" style="mix-blend-mode: multiply;" points="22.0111235 0 4.05151938 0 4.05151938 7.21777778 17.9596041 7.21777778 22.8926401 15.9991111 17.9596041 24.7795556 4.05151938 24.7795556 4.05151938 31.9991111 22.0119877 31.9991111 31 15.9991111"></polygon>
                    <polygon id="路径_3373" fill="url(#linearGradient-2)" points="4.04892668 32 13.0300251 16 4.04892668 0 0 7.21955556 4.92612211 16.0008889 0 24.7813333"></polygon>
                </g>
                <g id="组_2749" transform="translate(41.015135, 3.339211)" fill="#FFFFFF" fill-rule="nonzero">
                    <path d="M2.27373675e-13,0.774302935 L5.13513514,0.774302935 C8.44648649,0.774302935 10.907027,1.18475339 12.5167568,2.00565429 C14.2127977,2.91249305 15.5978739,4.30717218 16.492973,6.00943807 C18.3033121,9.51596004 18.5532901,13.6227422 17.1816216,17.3229516 C16.656664,18.7069801 15.8323227,19.9578894 14.7675676,20.9861948 C13.8261252,21.9054613 12.6848666,22.5945825 11.432973,22.9997083 C10.2358559,23.3712399 8.16234234,23.5570056 5.21243243,23.5570056 L2.27373675e-13,23.5570056 L2.27373675e-13,0.774302935 Z M4.30594595,4.95592456 L4.30594595,19.3288975 L6.31945946,19.3288975 C8.30144144,19.3288975 9.73927928,19.1015101 10.632973,18.6467354 C11.5863025,18.1305994 12.3531227,17.3276601 12.8248649,16.3516002 C13.4279885,15.1177274 13.7202596,13.7550947 13.6762162,12.382411 C13.6762162,9.96403266 12.9998198,8.08799663 11.647027,6.75430293 C10.4286486,5.55574438 8.47225225,4.95610474 5.77783784,4.95538402 L4.30594595,4.95592456 Z" id="路径_3360"></path>
                    <polygon id="路径_3361" points="21.8854054 0.774302935 26.1908108 0.774302935 26.1908108 23.5570056 21.8854054 23.5570056"></polygon>
                    <path d="M52.1021622,4.49160023 L49.0475676,7.51160023 C47.3389367,5.56824428 44.8784758,4.45158868 42.2908108,4.44511375 C40.1870321,4.38978654 38.1517707,5.19530101 36.6556757,6.67538402 C35.1741617,8.08522494 34.3508027,10.0510926 34.3854054,12.0959246 C34.3488729,14.208369 35.204511,16.2383505 36.7421622,17.6872759 C38.2903787,19.2065753 40.3882793,20.0334879 42.5567568,19.9791678 C43.8836267,20.0233872 45.1964976,19.6963396 46.3475676,19.0348435 C47.4508721,18.3162466 48.3162048,17.2865007 48.8340541,16.0759246 L42.2362162,16.0759246 L42.2362162,12.0029516 L53.6956757,12.0029516 L53.7259459,12.9629516 C53.7259459,14.9570923 53.1913696,16.9147734 52.1778378,18.6321408 C51.231543,20.3301069 49.8458048,21.7421707 48.1659459,22.7202489 C46.3983704,23.6913066 44.4053658,24.1774827 42.3891892,24.1294381 C40.1837061,24.1680879 38.0055044,23.6375003 36.0648649,22.5888975 C34.216206,21.5662514 32.692001,20.0448557 31.6659459,18.1980867 C30.5945547,16.3267683 30.0362782,14.2057276 30.0475676,12.0494381 C30.0066187,9.14210674 31.0756049,6.32852736 33.0367568,4.1818705 C35.4010811,1.52817681 38.478018,0.201149782 42.2675676,0.200789421 C44.1763801,0.185973095 46.0681953,0.560253078 47.8275676,1.30078942 C49.4614923,2.05106886 50.9182398,3.13847153 52.1021622,4.49160023 L52.1021622,4.49160023 Z" id="路径_3362"></path>
                    <polygon id="路径_3363" points="57.3994595 0.774302935 61.7048649 0.774302935 61.7048649 23.5570056 57.3994595 23.5570056"></polygon>
                    <polygon id="路径_3364" points="64.3372973 0.774302935 76.9318919 0.774302935 76.9318919 5.04943807 72.7789189 5.04943807 72.7789189 23.5570056 68.3794595 23.5570056 68.3794595 5.04943807 64.3372973 5.04943807"></polygon>
                    <path d="M86.8535135,0.774302935 L91.2518919,0.774302935 L100.014595,23.5570056 L95.5081081,23.5570056 L93.7243243,18.8640327 L84.427027,18.8640327 L82.572973,23.5570056 L78.0664865,23.5570056 L86.8535135,0.774302935 Z M89.08,6.81538402 L86.0232432,14.6370056 L92.1189189,14.6370056 L89.08,6.81538402 Z" id="路径_3365"></path>
                    <polygon id="路径_3366" points="103.367568 0.774302935 107.703784 0.774302935 107.703784 19.4229516 114.022703 19.4229516 114.022703 23.5580867 103.367568 23.5580867"></polygon>
                    <g id="编组-2" transform="translate(117.822703, -0.000000)">
                        <path d="M0,22.7964651 L0,0.0116002321 L3.58216216,0.0116002321 C5.11256126,-0.0424663777 6.64378176,0.0926092744 8.14108108,0.413762394 C9.41430726,0.718787715 10.5559348,1.4246072 11.3978378,2.42727591 C12.2020324,3.40232569 12.6311005,4.63278113 12.6075676,5.8964651 C12.6186764,6.71696346 12.4300082,7.52784696 12.0578378,8.2591678 C11.6187889,9.04859407 11.0074164,9.72888222 10.2691892,10.2494381 C11.4880715,10.7650241 12.5392469,11.6099325 13.3048649,12.6894381 C13.961151,13.7217656 14.2955112,14.925989 14.2654054,16.1488975 C14.2772157,17.3867832 13.9327083,18.6019412 13.272973,19.6494381 C12.6576655,20.6602868 11.7713503,21.4784383 10.7145946,22.0110597 C9.35072501,22.5950273 7.87228486,22.8624402 6.39027027,22.7932219 L0,22.7964651 Z M4.33675676,4.14781645 L4.33675676,8.94889753 L5.28540541,8.94889753 C6.12476356,9.01504573 6.96010616,8.77884144 7.64054054,8.28295158 C8.15924848,7.82742758 8.44251404,7.16063955 8.41027027,6.47105969 C8.43863026,5.82353589 8.16944998,5.19856777 7.67945946,4.77430293 C7.03610346,4.30842697 6.24818728,4.08620894 5.45621622,4.14727591 L4.33675676,4.14781645 Z M4.33675676,12.82133 L4.33675676,18.6591678 L5.42432432,18.6591678 C7.22612613,18.6591678 8.43981982,18.4321408 9.06540541,17.9780867 C9.69468053,17.5191005 10.0485336,16.7725295 10.0054054,15.9948435 C10.0403462,15.0861779 9.62824701,14.217963 8.90216216,13.6705192 C8.16666667,13.1025912 6.94504505,12.8186273 5.2372973,12.8186273 L4.33675676,12.82133 Z" id="路径_3367"></path>
                        <path d="M25.3502703,0.0116002321 L29.7486486,0.0116002321 L38.5113514,22.7943029 L34.0037838,22.7943029 L32.22,18.10133 L22.9227027,18.10133 L21.0686486,22.7943029 L16.5621622,22.7943029 L25.3502703,0.0116002321 Z M27.5767568,6.05160023 L24.5194595,13.8737624 L30.6145946,13.8737624 L27.5767568,6.05160023 Z" id="路径_3368"></path>
                        <polygon id="路径_3369" points="41.8783784 0.0116002321 46.0405405 0.0116002321 55.7881081 15.0040327 55.7881081 0.0116002321 60.1254054 0.0116002321 60.1254054 22.7943029 55.9535135 22.7943029 46.2162162 7.84943807 46.2162162 22.7948435 41.8783784 22.7948435"></polygon>
                        <polygon id="路径_3370" points="65.3594595 0.0116002321 69.7427027 0.0116002321 69.7427027 7.86619483 75.927027 0.0116002321 81.1345946 0.0116002321 73.1783784 10.1791678 81.9086486 22.7943029 76.7659459 22.7943029 69.7427027 12.6716002 69.7427027 22.7943029 65.3594595 22.7943029"></polygon>
                    </g>
                </g>
            </g>
        </g>
    </g>
</svg>