<svg width="427" height="856" viewBox="0 0 427 856" fill="none" xmlns="http://www.w3.org/2000/svg">
<path d="M423 250H425C426.105 250 427 250.895 427 252V350C427 351.105 426.105 352 425 352H423V250Z" fill="#1E1E1F"/>
<path d="M1 184C1 182.895 1.89543 182 3 182H4V212H3C1.89543 212 1 211.105 1 210V184Z" fill="#1E1E1F"/>
<path d="M1 244C1 242.895 1.89543 242 3 242H4V302H3C1.89543 302 1 301.105 1 300V244Z" fill="#1E1E1F"/>
<path d="M1 324C1 322.895 1.89543 322 3 322H4V382H3C1.89543 382 1 381.105 1 380V324Z" fill="#1E1E1F"/>
<path fill-rule="evenodd" clip-rule="evenodd" d="M68 0C32.6538 0 4 28.6538 4 64V792C4 827.346 32.6538 856 68 856H359C394.346 856 423 827.346 423 792V64C423 28.6538 394.346 0 359 0H68ZM74 22C47.4903 22 26 43.4904 26 70V786C26 812.51 47.4903 834 74 834H353C379.51 834 401 812.51 401 786V70C401 43.4903 379.51 22 353 22H299C296.239 22 294 24.2386 294 27V34C294 46.1503 284.15 56 272 56H155C142.85 56 133 46.1503 133 34V27C133 24.2386 130.761 22 128 22H74Z" fill="#1E1E1F"/>
<circle cx="152" cy="36" r="6" fill="#444445"/>
</svg>
