<svg width="427" height="854" viewBox="0 0 427 854" fill="none" xmlns="http://www.w3.org/2000/svg">
<path d="M421 248H425C426.105 248 427 248.895 427 250V348C427 349.105 426.105 350 425 350H421V248Z" fill="white"/>
<path d="M1 181.875C1 180.839 1.89543 180 3 180H7V210H3C1.89543 210 1 209.161 1 208.125V181.875Z" fill="white"/>
<path d="M1 242.875C1 241.839 1.89543 241 3 241H7V301H3C1.89543 301 1 300.161 1 299.125V242.875Z" fill="white"/>
<path d="M1 322.875C1 321.839 1.89543 321 3 321H7V381H3C1.89543 381 1 380.161 1 379.125V322.875Z" fill="white"/>
<path d="M133 26V33C133 45.1503 142.85 55 155 55H272C284.15 55 294 45.1503 294 33V26C294 23.2386 296.239 21 299 21H128C130.761 21 133 23.2386 133 26Z" fill="white"/>
<circle cx="154" cy="37" r="6" fill="#DEDEE4"/>
<path fill-rule="evenodd" clip-rule="evenodd" d="M74 5C38.6538 5 10 33.6538 10 69V785C10 820.346 38.6538 849 74 849H355C390.346 849 419 820.346 419 785V69C419 33.6538 390.346 5 355 5H74ZM74 21C47.4903 21 26 42.4903 26 69V785C26 811.51 47.4903 833 74 833H353C379.51 833 401 811.51 401 785V69C401 42.4903 379.51 21 353 21H74Z" fill="white"/>
<path fill-rule="evenodd" clip-rule="evenodd" d="M73 0C34.8924 0 4 30.8923 4 69V785C4 823.108 34.8924 854 73 854H354C392.108 854 423 823.108 423 785V69C423 30.8924 392.108 0 354 0H73ZM75 7C39.6538 7 11 35.6538 11 71V783C11 818.346 39.6538 847 75 847H352C387.346 847 416 818.346 416 783V71C416 35.6538 387.346 7 352 7H75Z" fill="#F0F0F0"/>
<rect x="4" y="89" width="7" height="6" fill="#E4E4E4"/>
<rect x="349" width="7" height="6" transform="rotate(90 349 0)" fill="#E4E4E4"/>
<rect x="80" y="847" width="7" height="6" transform="rotate(90 80 847)" fill="#E4E4E4"/>
<rect x="4" y="760" width="7" height="6" fill="#E4E4E4"/>
<rect x="416" y="760" width="7" height="6" fill="#E4E4E4"/>
<rect x="416" y="89" width="7" height="6" fill="#E4E4E4"/>
</svg>
