<?xml version="1.0" encoding="UTF-8"?>
<svg width="48px" height="48px" viewBox="0 0 48 48" version="1.1" xmlns="http://www.w3.org/2000/svg" xmlns:xlink="http://www.w3.org/1999/xlink">
    <title>icon-group</title>
    <g id="页面-1" stroke="none" stroke-width="1" fill="none" fill-rule="evenodd">
        <g id="Apple-TV" transform="translate(-523.000000, -1203.000000)">
            <g id="icon-group" transform="translate(523.000000, 1203.000000)">
                <rect id="矩形" fill="#000000" fill-rule="nonzero" opacity="0" x="0" y="0" width="48" height="48"></rect>
                <path d="M5.31120729,43.2316648 C4.60398716,43.2310053 4.00880098,42.7019382 3.92530091,41.9996644 C3.87710152,41.593741 3.5089459,37.9235258 5.44622979,34.1727465 C6.73333009,31.6798055 10.2460012,30.4847708 13.7335295,29.4743489 C14.4116912,29.2785556 15.0520851,29.0936754 15.4519635,28.9375222 C15.5278201,28.8156596 15.6529994,28.353566 15.5488973,27.397121 C12.1035769,25.4768486 11.2958492,19.7365739 11.2476498,17.8255562 C9.84200365,14.2571964 10.019234,11.0778553 11.7463878,9.08140547 C12.6672584,8.01647173 13.9326395,7.43171307 15.287893,7.45995866 C16.7751733,4.99237447 18.9082505,4.44324377 20.5078176,4.44324377 C22.105459,4.44324377 23.9728778,4.96225653 26.9536973,6.23427112 C27.4007052,6.4246079 28.5034067,6.59659574 29.1438006,6.65768754 C29.5944157,6.70059141 29.9963515,6.95906448 30.2223432,7.35126655 C30.4483349,7.74346862 30.4703961,8.22083009 30.2815416,8.63220426 C30.2429179,8.84147842 30.206755,9.34545897 30.1818261,9.68863222 C30.1276353,10.4407781 30.0807733,11.0898918 29.9435574,11.6190687 C31.1060134,13.6031611 30.6830784,16.6198225 30.3486249,17.5741277 L30.194986,18.0123623 C30.1211196,18.2226394 29.9982177,18.4122921 29.8364596,18.5656122 C29.7159343,23.0002772 28.3604134,26.0868036 25.971521,27.3968535 C25.8671514,28.353031 25.9923307,28.8156596 26.0684547,28.9375222 C26.45191,29.0870954 27.0465653,29.2598857 27.7323769,29.4587818 L27.7704657,29.4694809 C31.2754869,30.4845033 34.7866067,31.6789495 36.0736535,34.1728 C38.0163939,37.9331015 37.6159271,41.8112 37.5975781,41.9744681 C37.5132158,42.7413787 36.8210918,43.2916328 36.0563745,43.2097313 C35.2894027,43.1250974 34.7358268,42.4353716 34.8191854,41.6682602 C34.8227696,41.6367514 35.1456681,38.4669325 33.5899672,35.4551927 C32.7460766,33.820586 29.015893,32.7400316 27.0114723,32.1596596 L26.9526274,32.142969 C26.1804742,31.9186091 25.5136,31.7249556 25.0057678,31.5228498 C23.8835939,31.0755745 22.679786,29.7994942 23.3141885,26.2574541 C23.4106538,25.7345361 23.7722485,25.2994796 24.2687076,25.109014 C26.0386043,24.4488802 27.0495611,21.8249824 27.0495611,17.9074578 C27.0495611,17.4138553 27.2908255,16.9507453 27.6946091,16.6683429 L27.7099088,16.6497264 C27.972304,15.9005763 28.0807927,13.5322261 27.3809653,12.8318638 C27.0970762,12.5486584 26.9379615,12.1638599 26.9389325,11.7628644 C26.9389325,11.421831 27.050952,11.0978091 27.2579793,10.8332207 C27.3185362,10.5224122 27.3642748,9.88800973 27.3933228,9.48674043 C27.3993143,9.39911489 27.4056267,9.31475258 27.4116717,9.23338602 C26.8767173,9.13345654 26.2988061,8.99345897 25.8559173,8.80478055 C23.2824122,7.70641216 21.682845,7.23805957 20.5067477,7.23805957 C19.6102711,7.23805957 18.3103319,7.47033678 17.3766225,9.47855562 C17.1261855,10.0108573 16.5915567,10.3513104 16.0032875,10.3530991 C15.8951198,10.3530991 15.7617556,10.3369435 15.6565836,10.3122821 C15.511218,10.2744799 15.3617001,10.2549815 15.2115015,10.2542395 C14.6992827,10.2542395 14.2303951,10.4810067 13.8595112,10.9099331 C12.8255514,12.1049678 12.8507477,14.3810383 13.9269155,16.9986772 C14.0076936,17.1980547 14.0449264,17.4012839 14.0397909,17.6094347 C14.0055538,19.3385678 14.9342881,24.2730942 17.230366,25.1021666 C17.7377697,25.2876109 18.1088541,25.7281196 18.2054274,26.2596474 C18.8403112,29.8005641 17.6360219,31.0763769 16.5139015,31.5231173 C15.9891112,31.7323915 15.3035137,31.9301106 14.5097483,32.1596596 C12.5053812,32.7402991 8.77241581,33.8216559 7.92938116,35.4551927 C6.35094468,38.5116012 6.6968462,41.6384097 6.7004304,41.6695976 C6.74733461,42.0663452 6.62224922,42.4642036 6.35675207,42.7627332 C6.09125493,43.0612629 5.71071777,43.2316648 5.31120729,43.2316648 L5.31120729,43.2316648 Z" id="路径" fill="#2C2C2C" fill-rule="nonzero"></path>
                <path d="M43.3028669,38.8455204 C42.9212418,38.8458916 42.5560607,38.6902004 42.2920982,38.4145891 C42.0281357,38.1389777 41.88835,37.7674176 41.9051915,37.3861641 C41.9043356,37.1925106 41.8583295,33.9273629 40.3820158,31.3418213 C39.7934055,30.3108571 37.1925106,29.5573739 36.0821058,29.2358128 L36.0344948,29.2221179 C35.4938164,29.0651623 35.0268012,28.9296049 34.6581641,28.7822249 C33.7356353,28.4143903 32.7373033,27.4025775 33.2267331,24.6718492 C33.3297653,24.1459891 33.6907526,23.7231076 34.173335,23.5464122 C35.1862176,23.1687343 35.7956377,21.4645301 35.7956377,18.9909544 C35.7955845,18.5617729 35.9822334,18.1537969 36.3070006,17.8732207 C36.4502614,17.3040292 36.4285957,16.0756134 36.1511684,15.797865 C35.8735577,15.5216035 35.7180903,15.1457076 35.7194602,14.754062 C35.7194602,14.5439854 35.7627915,14.3412912 35.8451745,14.155341 C35.8665726,13.944997 35.8057483,13.5765739 35.6115599,13.275555 C35.3692255,12.900017 35.0281921,12.4831805 34.0530772,12.296107 C33.554943,12.2101779 33.1420246,11.8619772 32.9732249,11.3855025 C32.8044251,10.9090278 32.9060523,10.3785401 33.2389974,9.99818623 C33.5719425,9.61783236 34.0843142,9.44689239 34.5789374,9.55114894 C36.0799125,9.83874043 37.1861982,10.5612498 37.9602237,11.7598152 C38.4839441,12.571662 38.719752,13.5782322 38.6206249,14.4741739 C39.4809386,15.9893252 39.171093,18.1703878 38.913138,18.9049872 L38.8073775,19.2068085 C38.755264,19.3557719 38.6782024,19.4947903 38.5794869,19.617921 C38.4422711,23.3842675 37.0695246,25.0534322 35.8982954,25.7926322 C35.8851891,26.006614 35.8931599,26.1621252 35.9071222,26.2634991 C36.1509009,26.3453471 36.4751903,26.4398736 36.8142444,26.5381982 L36.8405641,26.5455805 C39.1820596,27.2240632 41.7479684,28.0972158 42.8093179,29.9559149 C44.6411088,33.1645714 44.7410918,37.1486979 44.6904316,37.6025532 C44.6114002,38.3094934 44.0142102,38.8444272 43.3028669,38.8455204 L43.3028669,38.8455204 Z" id="路径" fill="#A6173B"></path>
            </g>
        </g>
    </g>
</svg>