<?xml version="1.0" encoding="UTF-8"?>
<svg width="48px" height="48px" viewBox="0 0 48 48" version="1.1" xmlns="http://www.w3.org/2000/svg" xmlns:xlink="http://www.w3.org/1999/xlink">
    <title>icon-save-trust</title>
    <g id="页面-1" stroke="none" stroke-width="1" fill="none" fill-rule="evenodd">
        <g id="Apple-TV" transform="translate(-798.000000, -1203.000000)">
            <g id="icon-save-trust" transform="translate(798.000000, 1203.000000)">
                <rect id="矩形" fill="#000000" fill-rule="nonzero" opacity="0" x="0" y="0" width="48" height="48"></rect>
                <path d="M24,43.92 C23.7772723,43.92 23.5576094,43.8680953 23.35848,43.76832 C21.714,42.9444 7.29024,35.52288 7.29024,28.73832 C7.29024,22.73832 6.726,10.36176 6.72,10.23744 C6.69068882,9.58178199 7.1128756,8.99085922 7.74264,8.80608 L23.59512,4.13832 C23.8592969,4.06070279 24.1402231,4.06070279 24.4044,4.13832 L40.25664,8.80584 C40.8855503,8.98973051 41.3078787,9.57894997 41.28,10.2336 C41.27448,10.3656 40.71,23.47488 40.71,28.7376 C40.71,36.20952 26.2452,43.03608 24.59568,43.78968 C24.4087802,43.8753863 24.2056139,43.92 24,43.92 Z M9.624,11.22288 C9.76296,14.42808 10.14744,23.74488 10.14744,28.73832 C10.14744,32.4072 18.41184,37.99728 24.02688,40.9092 C29.62368,38.23512 37.85088,32.8452 37.85088,28.73832 C37.85088,24.32688 38.24016,14.52888 38.37672,11.2236 L24,6.99 L9.624,11.22288 Z" id="形状" fill="#2C2C2C" fill-rule="nonzero"></path>
                <path d="M29.9427896,18.9152058 L31.3503309,20.4061326 L22.1386948,29.0786601 L16.509703,23.6619555 L17.9336182,22.1867669 L22.1537691,26.248064 L29.9427896,18.9152058 Z" id="路径" stroke="#B80038" stroke-width="0.8" fill="#A6173B"></path>
            </g>
        </g>
    </g>
</svg>