<?xml version="1.0" encoding="UTF-8"?>
<svg width="32px" height="32px" viewBox="0 0 32 32" version="1.1" xmlns="http://www.w3.org/2000/svg" xmlns:xlink="http://www.w3.org/1999/xlink">
    <title>icon-financial-management</title>
    <g id="页面-1" stroke="none" stroke-width="1" fill="none" fill-rule="evenodd">
        <g id="Apple-TV" transform="translate(-444.000000, -3232.000000)" fill-rule="nonzero">
            <g id="icon-financial-management" transform="translate(444.000000, 3232.000000)">
                <rect id="矩形" fill="#000000" opacity="0" x="0" y="0" width="32" height="32"></rect>
                <path d="M16,21.8125 C15.125,21.8125 14.3125,21.5 13.6875,20.875 L11.1875,18.375 C10.5625,17.75 10.25,16.9375 10.25,16.0625 C10.25,15.1875 10.5625,14.375 11.1875,13.75 L13.6875,11.25 C14.3125,10.625 15.125,10.3125 16,10.3125 C16.875,10.3125 17.6875,10.625 18.3125,11.25 L20.8125,13.75 C21.4375,14.375 21.75,15.1875 21.75,16.0625 C21.75,16.9375 21.4375,17.75 20.8125,18.375 L18.3125,20.875 C17.6875,21.4375 16.875,21.8125 16,21.8125 L16,21.8125 Z M16,12.0625 C15.625,12.0625 15.25,12.1875 15,12.5 L12.5,15 C12.25,15.25 12.0625,15.625 12.0625,16 C12.0625,16.375 12.1875,16.75 12.5,17 L15,19.5 C15.5,20 16.4375,20 17,19.5 L19.5,17 C19.75,16.75 19.9375,16.375 19.9375,16 C19.9375,15.625 19.8125,15.25 19.5,15 L17,12.5 C16.75,12.25 16.375,12.0625 16,12.0625 Z" id="形状" stroke="#A6173B" stroke-width="0.8" fill="#A6173B"></path>
                <path d="M16,29.6875 C8.43750001,29.6875 2.3125,23.5625 2.3125,16 C2.3125,8.43750001 8.43750001,2.3125 16,2.3125 C23.5625,2.3125 29.6875,8.43750001 29.6875,16 C29.6875,23.5625 23.5625,29.6875 16,29.6875 Z M16,4.1875 C9.49999999,4.1875 4.1875,9.49999999 4.1875,16 C4.1875,22.5 9.49999999,27.8125 16,27.8125 C22.5,27.8125 27.8125,22.5 27.8125,16 C27.8125,9.49999999 22.5,4.1875 16,4.1875 Z" id="形状" stroke="#2C2C2C" stroke-width="0.8" fill="#2C2C2C"></path>
            </g>
        </g>
    </g>
</svg>