<?xml version="1.0" encoding="UTF-8"?>
<svg width="32px" height="32px" viewBox="0 0 32 32" version="1.1" xmlns="http://www.w3.org/2000/svg" xmlns:xlink="http://www.w3.org/1999/xlink">
    <title>icon-loan</title>
    <g id="页面-1" stroke="none" stroke-width="1" fill="none" fill-rule="evenodd">
        <g id="Apple-TV" transform="translate(-999.000000, -3540.000000)" fill-rule="nonzero">
            <g id="icon-loan" transform="translate(999.000000, 3540.000000)">
                <rect id="矩形" fill="#000000" opacity="0" x="0" y="0" width="32" height="32"></rect>
                <g id="编组-4" transform="translate(4.000000, 1.000000)">
                    <path d="M23.8540731,14.0199657 C23.8626571,13.9639515 23.8722981,13.9082373 23.8800787,13.8519231 C23.8988111,13.7169233 23.9186006,13.5826092 23.9328931,13.4461094 C23.9409696,13.3687952 23.9446484,13.2921239 23.951245,13.2151097 C23.9547546,13.1741383 23.9579683,13.133167 23.9610552,13.092067 C23.9781385,12.8676673 23.9893441,12.6442105 23.9941646,12.4216965 C23.9944183,12.4090108 23.9950526,12.3965394 23.9953063,12.3838966 C23.9966595,12.3123253 23.999704,12.2404968 24,12.1690969 C24,12.1668255 24,12.1645541 24,12.1621541 C24,12.1375112 23.9982663,12.1132541 23.9981394,12.0885256 C23.9971669,11.9065973 23.9934458,11.7250975 23.9845235,11.5447549 C23.9831704,11.517755 23.9803373,11.4912264 23.978815,11.4642693 C23.968878,11.2876124 23.9565306,11.111427 23.939109,10.9364415 C23.9338657,10.8837702 23.9260429,10.8318274 23.9201229,10.7793703 C23.9036316,10.6329705 23.8867597,10.4866993 23.8650673,10.3415852 C23.8522126,10.2552711 23.8357636,10.1701569 23.8210905,10.084357 C23.8024427,9.97567146 23.7850634,9.86660019 23.7635824,9.75881463 C23.7398603,9.63924337 23.7119097,9.52147211 23.6847202,9.40318657 C23.6727534,9.3513295 23.6627318,9.29878672 23.6501307,9.24718679 C23.6478473,9.23767252 23.6460713,9.22798682 23.6437456,9.21847255 C23.6411239,9.20788685 23.6379525,9.19738686 23.6352886,9.18671545 C23.6040819,9.06140134 23.5688159,8.93788723 23.5338459,8.81415884 C23.5130415,8.74023037 23.4937171,8.66561619 23.4716018,8.59237344 C23.4436089,8.50023071 23.41236,8.4096737 23.3822528,8.31851669 C23.3478325,8.21368827 23.3144271,8.10838842 23.2773851,8.00497428 C23.2597521,7.95607435 23.2400471,7.90816013 23.2218644,7.8595602 C22.6384106,6.29583386 21.7516016,4.90066443 20.6420754,3.73495181 C20.6087545,3.699809 20.5763639,3.66380905 20.5425779,3.62896624 C20.4709041,3.55542349 20.3969893,3.48445217 20.3235819,3.41288084 C20.2509356,3.34173808 20.178839,3.27003819 20.1043744,3.20069543 C20.0919848,3.18920973 20.0796798,3.1775526 20.0672479,3.16615262 C20.0403966,3.14142408 20.0121077,3.1182384 19.9850451,3.09368129 C19.8721431,2.99125287 19.7582263,2.8900673 19.6414763,2.79192458 C19.6207565,2.77452461 19.5993178,2.75806749 19.5784711,2.74075323 C19.4482896,2.63243427 19.315879,2.52689689 19.1813268,2.42421082 C19.1709246,2.41641083 19.1602264,2.40886799 19.1498242,2.401068 C19.0044339,2.29109482 18.8566087,2.18446772 18.7064619,2.08126846 L18.6965671,2.07475418 C18.5398056,1.96738911 18.3805564,1.86380306 18.2189537,1.76408319 C18.2166703,1.76271177 18.2143446,1.76142606 18.2120612,1.76001177 C18.0499337,1.66006485 17.8854521,1.56409425 17.7187599,1.47218361 C17.711656,1.46824076 17.7043829,1.46464076 17.6972789,1.46069791 C17.5355966,1.37184512 17.3719232,1.28676569 17.2063879,1.20552685 C17.1877401,1.19644115 17.1686271,1.18812687 17.1499369,1.17908403 C16.9958913,1.10476985 16.8405771,1.03259852 16.682768,0.964712908 C16.6436963,0.947870074 16.603652,0.932827239 16.5643689,0.916412977 C16.4263917,0.858813059 16.2880762,0.801984569 16.147435,0.749441787 C16.0796516,0.724113251 16.010515,0.70165614 15.9421818,0.677484746 C15.8284341,0.637413375 15.7150247,0.596442005 15.5995856,0.5597992 C15.4964516,0.526842105 15.3917107,0.497956431 15.2874349,0.467742189 C15.2045555,0.443870794 15.1224796,0.418156545 15.0387968,0.396085148 C14.8991705,0.358970916 14.7577259,0.326613819 14.6161544,0.294556722 C14.6111648,0.293485295 14.6062596,0.292199583 14.60127,0.290999584 C14.5609297,0.281913883 14.5212237,0.270813899 14.4807989,0.262113911 C14.4748367,0.260913913 14.4687476,0.2599282 14.4627431,0.258642488 C14.3568182,0.236185377 14.2494979,0.217671118 14.1425158,0.198085431 C14.0493611,0.180856884 13.956587,0.162256911 13.8628403,0.14729979 C13.7879106,0.135428378 13.7120083,0.126514105 13.6366135,0.11601412 C13.5097574,0.0983141453 13.3829858,0.0803998851 13.2551571,0.0667284761 C13.2002706,0.0609856272 13.1447499,0.0574284894 13.0896521,0.0524570679 C12.9419492,0.0387856589 12.7940772,0.0261428198 12.6451904,0.0179999743 C12.5960971,0.0154285494 12.5464963,0.0148285502 12.4972761,0.0127714103 C12.4735963,0.0117856974 12.4498742,0.0110999841 12.4261944,0.0102856996 C12.3412008,0.00711427555 12.2559534,0.00248571073 12.1712135,0.00119999829 C12.1270676,0.000599999143 12.0827102,0.00111428412 12.0384374,0.000985712877 C12.0255827,0.000985712877 12.0129393,-2.21689017e-13 12.0000423,-2.21689017e-13 C11.959702,-2.21689017e-13 11.9199115,0.00227142533 11.8796135,0.00265713906 C11.7788897,0.00364285194 11.6781659,0.00462856482 11.5779496,0.00809998843 C11.546447,0.00929998671 11.5150289,0.0101571283 11.483484,0.0116571262 C11.4394227,0.0135428378 11.3958264,0.0170999756 11.3518919,0.0194571151 C11.2340848,0.0257999631 11.1165315,0.0334285237 10.9994855,0.0433285095 C10.9374952,0.0484713593 10.8758431,0.0547284932 10.8141064,0.0609427701 C10.6495066,0.0771315206 10.4852619,0.0968358712 10.3214817,0.120042686 C10.3147583,0.121028399 10.3080772,0.121542684 10.3013538,0.122528396 C10.28537,0.124799822 10.2697244,0.12805696 10.2537828,0.130456956 C10.1629961,0.143999794 10.0724631,0.158271202 9.98226833,0.173914037 C9.91850197,0.18488545 9.85486247,0.19619972 9.79143439,0.208156845 C9.76640144,0.212913982 9.74157992,0.218271117 9.71658926,0.223113967 C9.64089842,0.238071088 9.56533444,0.253413924 9.49006646,0.269828186 C9.41953444,0.285085307 9.34908699,0.300513856 9.27902011,0.31705669 C9.24434609,0.32528525 9.21001036,0.334199523 9.1754632,0.342599511 C9.11901221,0.356570919 9.06273037,0.37079947 9.00657538,0.385542306 C8.93151882,0.405127993 8.85650455,0.424627965 8.7819977,0.445713649 C8.7342575,0.459085058 8.68694016,0.473442181 8.63949596,0.487499304 C8.60313053,0.498299288 8.56693424,0.509656415 8.53069567,0.520842113 C8.45327113,0.544584936 8.37576202,0.567942046 8.29901405,0.593184867 C8.2369391,0.613584838 8.17545615,0.634970521 8.11388863,0.656227634 L8.09798933,0.661970483 C8.07223753,0.67097047 8.04682402,0.680570456 8.02119907,0.689699015 C7.95671386,0.71267041 7.89197494,0.735127521 7.82799715,0.759170344 C7.71385454,0.802426844 7.60037533,0.847460681 7.48759981,0.894255865 C7.44755555,0.910798699 7.40717301,0.926741533 7.36734018,0.943627223 C7.23549401,0.999804979 7.10466948,1.05841464 6.97493181,1.11942697 C6.95526911,1.12872696 6.9353527,1.13755552 6.91573228,1.1468555 C6.7713991,1.21548548 6.62844547,1.28705705 6.48695848,1.36152663 L6.47152432,1.3695409 C5.72797344,1.76188382 5.0271992,2.23239988 4.38076579,2.77332461 C4.37518412,2.77808175 4.36951788,2.7826246 4.36393621,2.78738173 C4.24700137,2.88562647 4.13190821,2.9861014 4.01871833,3.08875273 C4.00205789,3.10388128 3.98531288,3.11875269 3.96877929,3.13388124 C3.86860555,3.22586252 3.7699541,3.31953259 3.67286617,3.41485226 C3.64381611,3.44326651 3.61472377,3.47146647 3.58592742,3.50018071 C3.54402261,3.5421378 3.50131437,3.58340917 3.46004384,3.62596625 C3.41513676,3.67199475 3.37196338,3.71990897 3.32777515,3.7667089 C3.29077544,3.80592313 3.25390259,3.84530879 3.21745259,3.88499445 C3.18920595,3.91589441 3.15985989,3.94568008 3.13195154,3.97683718 C3.07786853,4.03683709 3.02551923,4.09859414 2.97253564,4.1597512 C2.94551528,4.19112258 2.91853721,4.22240825 2.89185513,4.25399392 C2.80542641,4.3560008 2.72066092,4.45944325 2.63759312,4.56427919 C2.61818412,4.5888363 2.5988597,4.61326484 2.57961985,4.63803623 C2.49178063,4.75068478 2.40589987,4.86488794 2.32201729,4.98059288 C2.30835912,4.99949286 2.29474322,5.01830712 2.28116961,5.0372928 C2.19442278,5.15838757 2.10990785,5.28110865 2.02766874,5.40539228 C2.01697053,5.42163511 2.00627233,5.43774937 1.99561642,5.45399221 C1.91285356,5.5803206 1.83244075,5.70821443 1.75442058,5.83760595 C1.74418752,5.85453449 1.73403903,5.87154875 1.72389054,5.88856302 C1.47607631,6.30406072 1.25315371,6.73429467 1.05633118,7.1769326 C0.988689871,7.32950288 0.924008974,7.48340371 0.862325837,7.63854623 C0.841070774,7.69236019 0.820209412,7.74633302 0.799743469,7.80046029 C0.760830213,7.90267527 0.723305436,8.0054277 0.687179776,8.10868842 C0.662932576,8.17833184 0.639336275,8.2482063 0.616394043,8.3183024 C0.599395319,8.37015947 0.580451467,8.42103083 0.564087023,8.47310218 C0.553473392,8.50695928 0.545016315,8.54167351 0.534698681,8.57565918 C0.509042115,8.65991255 0.484289609,8.74444599 0.460445547,8.82924453 C0.45198847,8.85911592 0.444334816,8.88924444 0.436089166,8.91920154 L0.434270894,8.92584439 C0.417356741,8.98798716 0.399766021,9.04974421 0.383824431,9.11222984 C0.36661428,9.17951546 0.350249836,9.24714393 0.33418139,9.31481526 C0.321749487,9.36688662 0.310713002,9.41934369 0.298957665,9.47158647 C0.290712015,9.5084007 0.282043512,9.54491494 0.274136145,9.58185774 C0.26813162,9.60997199 0.261112247,9.63770052 0.255276864,9.66590048 C0.251724891,9.68321474 0.247200355,9.70005757 0.243690668,9.71737183 C0.238278139,9.74411465 0.234641596,9.77150033 0.229398209,9.79832886 C0.205126398,9.92175725 0.184152848,10.0460856 0.163686722,10.1705855 C0.158274193,10.2036283 0.15142396,10.2361139 0.146307429,10.2692853 C0.142586315,10.2933282 0.138526918,10.3171995 0.134974946,10.3412424 C0.0806549187,10.7018172 0.0425024726,11.064704 0.0206352674,11.4287837 C0.0190707082,11.4552265 0.0192821351,11.4820122 0.0178867175,11.508455 C0.0151381675,11.5606978 0.0145461721,11.6134548 0.0124741883,11.6659119 C0.0119667637,11.6783833 0.0116284806,11.6908547 0.0111633414,11.7033261 C0.00938735526,11.7516261 0.00739994221,11.7997117 0.00617366607,11.8478402 C0.00389025533,11.9392115 0.00126856152,12.0304542 0.00101484922,12.1222113 C0.000972563833,12.1355827 1.92291664e-14,12.1487398 1.92291664e-14,12.1621969 C1.92291664e-14,12.187354 0.00257940843,12.2118683 0.00274854996,12.2370254 C0.0037211138,12.3825252 0.00456682148,12.528025 0.0107404876,12.6742962 C0.0108250583,12.6762676 0.0109941999,12.6781533 0.011121056,12.6801247 C0.0150958821,12.7724818 0.0231723905,12.8653959 0.0292192004,12.9581386 C0.0330671703,13.0176243 0.0361540034,13.0773242 0.040847681,13.1365955 C0.0495584701,13.2457525 0.0606795261,13.3552523 0.0723502921,13.4647093 C0.0790313828,13.5274521 0.0863890396,13.5898092 0.0940426941,13.6522519 C0.103472335,13.7295661 0.109899713,13.8064517 0.120809342,13.8838516 C0.122543043,13.8961087 0.12550302,13.9078087 0.127279006,13.9200658 C0.141064041,14.0155943 0.160980457,14.1090227 0.177006618,14.2038226 C0.189015667,14.2749653 0.196077326,14.3476509 0.209312651,14.4184937 C0.218869148,14.469665 0.233373035,14.519165 0.243521527,14.570122 C0.259124834,14.6484219 0.270922456,14.7282647 0.288005751,14.8058788 C0.30990958,14.9053501 0.338875068,15.0020357 0.363189164,15.1006499 C0.391562656,15.2159354 0.419724722,15.3310495 0.451311904,15.4451779 C0.471651174,15.5185064 0.488311615,15.5936349 0.509919446,15.6662776 L0.510173159,15.667349 C0.512033716,15.6736919 0.514613124,15.6797347 0.516515966,15.6860347 C0.546961443,15.7877774 0.584130295,15.8861773 0.61707061,15.9866343 C0.639059009,16.0535342 0.655846307,16.1225341 0.678976412,16.188834 C0.680667827,16.188234 0.682401528,16.187634 0.684092943,16.1869483 C0.722361216,16.2973053 0.757035231,16.4093337 0.79826348,16.5180193 C0.823761567,16.5853049 0.854207043,16.6498476 0.880846835,16.7165761 C0.956537673,16.9060044 1.03104452,17.096247 1.11553072,17.2805325 C1.12508721,17.3013181 1.13667341,17.3208181 1.14635676,17.3416038 C1.15185386,17.3533895 1.15612469,17.3658609 1.16166407,17.3776466 C1.16243375,17.3772635 1.16319507,17.3768634 1.16394748,17.3764466 C1.31841599,17.7057604 1.48950265,18.0241457 1.67086467,18.3354167 C1.49937982,18.4179681 1.3296095,18.5041296 1.16166407,18.5938449 C0.908078623,18.729659 0.65838343,18.8718588 0.414692761,19.0233157 C0.460614689,19.9308144 0.616013475,20.8091274 0.864355536,21.6470691 C1.34979174,21.282441 1.86673056,20.9591701 2.40861776,20.6782847 C3.16235616,20.2870565 3.95844444,19.9860333 4.78082781,19.781286 C5.62078468,19.5725292 6.49740297,19.4594293 7.3999845,19.4594293 C9.86137442,19.4594293 12.1337064,20.286271 13.9679618,21.6762976 C13.9285095,21.6848262 13.8890995,21.6933119 13.8494781,21.7012404 C13.7084987,21.7295261 13.5673078,21.7570403 13.4244677,21.7789403 C13.3108046,21.7963403 13.1957038,21.8089403 13.0807298,21.8221831 C12.9424144,21.8382117 12.8040989,21.8540688 12.6643457,21.8640545 C12.5381238,21.8729688 12.4104642,21.8762259 12.2829738,21.8799973 C12.1392035,21.8844545 11.9957292,21.889983 11.8507749,21.8877973 C11.8094621,21.8871116 11.7683607,21.8856116 11.727217,21.8844116 C11.7040023,21.8837259 11.6809145,21.8822259 11.6576998,21.8813259 C11.4480912,21.873783 11.237806,21.8619116 11.0261676,21.8400545 C10.6814634,21.8043036 10.3388975,21.7498541 9.99994362,21.6769405 L9.99994362,21.6772405 C9.66892715,21.6055871 9.34186221,21.5163208 9.0201067,21.4098123 L8.762335,23.8706659 C9.16527242,23.98488 9.5799229,24.0716656 9.99994362,24.1445227 L9.99994362,24.1516369 C10.2084951,24.1872512 10.4192878,24.215794 10.6311375,24.2406939 C10.6655578,24.2447654 10.698625,24.2525654 10.7331722,24.2562511 C10.7880586,24.2622082 10.8424376,24.2645653 10.8972395,24.2697082 C10.9803725,24.2776367 11.0639707,24.2839796 11.1475689,24.2901939 C11.2422882,24.2970081 11.3369652,24.3043367 11.4313462,24.3088796 C11.51875,24.313251 11.6067459,24.3150081 11.6946572,24.3174081 L11.6946995,24.3177938 C11.7023955,24.3180081 11.7101337,24.3177938 11.7178296,24.3178795 C11.7335175,24.3182653 11.7492054,24.318651 11.7649356,24.318951 C11.8394847,24.320451 11.9142452,24.3237938 11.9885407,24.3240081 C11.9923886,24.3240081 11.9961097,24.3242224 11.9999577,24.3242224 C12.0350969,24.3242224 12.0696863,24.3218653 12.1047832,24.3215653 C12.1245727,24.321351 12.1442777,24.3205795 12.1640673,24.3202795 C12.1894385,24.3199795 12.2148943,24.3192081 12.2403078,24.3186938 C12.3612018,24.3163367 12.4822225,24.3148367 12.6023553,24.3087938 C12.6311516,24.3074224 12.6595251,24.3044224 12.6882369,24.302751 C12.7056162,24.3017653 12.7230801,24.2998796 12.7405016,24.2988081 C12.8942513,24.2892082 13.0477472,24.2787939 13.2001015,24.2632796 C13.2645444,24.2567653 13.3280148,24.2472511 13.3921617,24.2396225 C13.5234155,24.2240654 13.6547539,24.2089368 13.7848661,24.1890512 C13.8797967,24.1746083 13.9735012,24.1563941 14.067713,24.1396798 C14.1646311,24.1224513 14.2619298,24.1067227 14.358129,24.087137 C14.4812218,24.0621942 14.6026654,24.03288 14.7243627,24.00408 C14.7631807,23.9948657 14.8025061,23.9871514 14.8411972,23.9776372 C14.870501,23.9703943 14.8999316,23.9635801 14.9291508,23.9561658 C15.0459854,23.9263801 15.161213,23.892523 15.2766944,23.8592659 C15.3570789,23.8362088 15.4381823,23.8146088 15.5177634,23.789966 C15.5991205,23.7646375 15.6790398,23.7361375 15.7596358,23.709009 C15.8716075,23.6715948 15.9839175,23.6349948 16.0942823,23.5944092 C16.1321277,23.5805663 16.1690429,23.5647092 16.2067191,23.5504806 C16.8955058,23.2890953 17.5529589,22.96921 18.1707907,22.592582 C18.7450262,22.2425254 19.2834037,21.8429259 19.7869803,21.4054837 C19.8052053,21.3896266 19.8232189,21.373598 19.8413593,21.3576981 C19.8515924,21.3486981 19.8615295,21.3394838 19.8717202,21.3304838 C19.9463962,21.2643553 20.0227636,21.2001126 20.0957482,21.132227 C20.145053,21.0864127 20.1912286,21.0372985 20.2397722,20.9907129 C20.2665389,20.9649986 20.2940667,20.9400558 20.3206219,20.9139987 C20.3515748,20.8838273 20.3811323,20.8522416 20.4117892,20.8216417 C20.5074434,20.7261307 20.6015273,20.6290175 20.6940018,20.5303421 C20.7208953,20.5016279 20.7490151,20.4741136 20.7756549,20.4450136 C20.8188283,20.3980851 20.8600565,20.3493995 20.902511,20.3016996 C20.4635465,21.494155 19.8353971,22.593782 19.0443644,23.5538235 C18.4816772,24.2369178 17.8409519,24.8498794 17.1356445,25.3798352 C15.307013,26.7534046 13.0458021,27.5674749 10.6000578,27.5674749 C7.34099638,27.5674749 4.41548209,26.1173627 2.4001184,23.8272945 L2.4001184,27.1426755 C4.6680104,28.9296872 7.51111048,30 10.6000578,30 C13.1578584,30 15.5499426,29.2689868 17.5853495,28.0036743 C18.3841627,27.5070036 19.1259752,26.9262044 19.8030911,26.2765339 C22.384656,23.7994803 24,20.2978853 24,16.4189337 C24,15.6704776 23.9371216,14.9368501 23.821598,14.221094 C23.8328459,14.1541941 23.8438824,14.0872513 23.8540731,14.0199657 Z M21.5940885,12.295311 C21.5910862,12.4792107 21.5828406,12.6617391 21.569859,12.8430245 C21.5669836,12.8842102 21.5648693,12.9252672 21.5614865,12.9666243 C21.5580614,13.0087957 21.5547208,13.0509671 21.5507037,13.0930099 C21.5422991,13.1790768 21.5327699,13.265027 21.5221188,13.3508381 C21.4989887,13.5361092 21.472518,13.7201375 21.4396623,13.901723 C21.4361103,13.921523 21.4332772,13.9414944 21.4295984,13.9612086 C21.418139,14.0226657 21.4053265,14.0836513 21.3927255,14.1447227 C21.3764735,14.2238801 21.3592479,14.302829 21.3410528,14.3815509 C21.33323,14.4154937 21.3259146,14.4495651 21.3177535,14.4832936 C21.2966613,14.5692181 21.2743888,14.6548406 21.2509426,14.7401361 C21.2371709,14.7910989 21.2229766,14.8419435 21.2083612,14.8926644 C21.198551,14.9265215 21.1890368,14.9605501 21.1788883,14.9944072 C21.1464077,15.1019999 21.112095,15.2090157 21.0759657,15.3154067 C21.0690732,15.3358067 21.0620538,15.3561638 21.0550344,15.3765637 C21.0409111,15.4172351 21.0267455,15.4578208 21.012157,15.4983207 C20.9688273,15.618433 20.9231359,15.7376566 20.8751101,15.8559202 C20.856124,15.9026344 20.8366727,15.9489629 20.81701,15.9952914 C20.7654463,16.1168695 20.711465,16.2373796 20.6550993,16.3567481 C20.6346331,16.3999909 20.6136596,16.4428479 20.5925592,16.4858336 C20.5346792,16.6037762 20.4744667,16.7205282 20.4119583,16.8360188 C20.38756,16.8807824 20.3628223,16.9253551 20.3377475,16.9697329 C20.2761338,17.0794267 20.2124117,17.1878901 20.1466175,17.295061 C20.1157289,17.3450618 20.0843941,17.394778 20.0526171,17.4442037 C19.9902766,17.5418469 19.9262323,17.638362 19.8605146,17.7337032 C19.8201559,17.7918395 19.7791931,17.8495426 19.7376333,17.906803 C19.6776002,17.9900511 19.616236,18.0723047 19.553565,18.1535312 C19.5014612,18.2207488 19.4484872,18.2872688 19.3946565,18.3530738 C19.3393635,18.4211984 19.2831467,18.4885476 19.2260224,18.5551021 C19.160521,18.6309528 19.0938856,18.7057899 19.0261394,18.7795875 C18.9807192,18.8292518 18.9347949,18.8784401 18.8883736,18.9271444 C18.8637213,18.9528586 18.8383077,18.9778015 18.8133594,19.0032586 C18.7546775,19.0638553 18.6952192,19.1236746 18.6349996,19.1827012 C18.6017633,19.2150583 18.568231,19.2472439 18.534445,19.2790867 C18.4738077,19.3362152 18.4116059,19.3915437 18.3495733,19.4470436 C18.3175209,19.4757579 18.2861029,19.5051578 18.2537123,19.5334435 C18.2042384,19.5766006 18.1538342,19.6186434 18.1035146,19.6609433 C18.0247856,19.7270238 17.9450253,19.7918319 17.8642639,19.8553431 C17.8434595,19.8716716 17.8234585,19.8889002 17.802485,19.9050144 C17.7689527,19.9308572 17.7341941,19.9552858 17.7002812,19.9807429 C17.5920729,20.0617856 17.4832726,20.1421855 17.3718083,20.2187711 C17.3657615,20.2229283 17.3600107,20.2273854 17.3539216,20.2315425 C17.2704503,20.2885424 17.1841458,20.3412138 17.0988985,20.3955566 C17.0191905,20.4464279 16.93999,20.4981136 16.8587175,20.5464992 C16.7727513,20.5978849 16.6848823,20.6461848 16.597267,20.6947847 C16.5859768,20.700999 16.5744328,20.7069561 16.5631426,20.7132133 C14.1647157,18.4303451 10.9422311,17.0270757 7.40011135,17.0270757 C6.21426004,17.0270757 5.06760728,17.1931469 3.9719507,17.4877893 C3.7423923,17.1334664 3.53601921,16.7642596 3.35416123,16.382548 C3.29743747,16.263268 3.24311767,16.1428289 3.19123565,16.0213057 C3.17009979,15.971988 3.1493511,15.9225008 3.12899156,15.8728488 C3.08348204,15.7611861 3.04004728,15.6486664 2.9987103,15.5353492 C2.98716639,15.5037636 2.97617219,15.4719208 2.96496656,15.4401208 C2.91690454,15.3047436 2.87183118,15.1682955 2.82978019,15.0308785 C2.8146843,14.9812929 2.80056099,14.9314072 2.78626853,14.8815216 C2.75408341,14.7701621 2.72385865,14.6582302 2.69560866,14.5457792 C2.69383268,14.5387507 2.69184526,14.5317221 2.69006928,14.5246935 C2.67181035,14.4494474 2.65442984,14.3739851 2.6379314,14.2983224 C2.62199379,14.2268413 2.60685465,14.1551796 2.5925169,14.0833513 C2.5864278,14.0526656 2.57970443,14.02228 2.57391133,13.9915943 C2.55615147,13.8975659 2.54059044,13.8026374 2.52549456,13.7075376 C2.5199256,13.6725714 2.51456935,13.6375708 2.50942612,13.6025377 C2.50227989,13.5540235 2.49483766,13.5055521 2.488368,13.4566522 C2.46301785,13.2650471 2.44330412,13.0727192 2.42925303,12.8799245 C2.42663133,12.8437959 2.42219137,12.8081817 2.41995024,12.7719246 C2.41927368,12.7609532 2.41931596,12.7497675 2.4186394,12.7386675 C2.40679949,12.5378392 2.40235952,12.3379967 2.40271772,12.1390541 C2.40271772,12.1111541 2.40396637,12.0830399 2.40426237,12.0551399 C2.4053195,11.9590543 2.41132403,11.8642973 2.41512971,11.7688975 C2.4206691,11.6292262 2.42599705,11.4895979 2.43745639,11.3512124 C2.43893638,11.3333838 2.43990895,11.3156838 2.44151579,11.2977696 C2.45077629,11.1923412 2.46481504,11.088327 2.4773738,10.9837986 C2.49238511,10.8596845 2.50900326,10.7359561 2.52870825,10.6131277 C2.53297908,10.5861277 2.53585448,10.5586992 2.54033673,10.5318707 C2.56122571,10.4071566 2.58744265,10.2843282 2.61298302,10.1612855 C2.64397821,10.013 2.67471968,9.86475734 2.71239596,9.71865754 C2.73835919,9.61751483 2.7689738,9.51834355 2.79806615,9.41835797 C2.84618692,9.25387249 2.89502653,9.08964416 2.95147752,8.92854439 C2.97963959,8.84805879 3.01152277,8.76937319 3.04167225,8.68991616 C3.10751059,8.51660212 3.17504035,8.34410237 3.25030833,8.17545975 C3.28143037,8.10568842 3.31589296,8.03788852 3.34853728,7.96897433 C3.42968293,7.797846 3.51302742,7.62791767 3.60372957,7.4622322 C3.6421247,7.39207515 3.68390266,7.32427525 3.7239892,7.25518964 C3.81490278,7.09820415 3.90763463,6.94224723 4.00696299,6.79070458 C4.05994658,6.71013327 4.11669356,6.63243338 4.17191828,6.55344778 C4.26460784,6.4207194 4.35801625,6.28837673 4.45709091,6.16053406 C4.52043441,6.07897703 4.5878796,6.00097714 4.65376023,5.92160583 C4.76454793,5.78737745 4.87744991,5.65516335 4.99525699,5.52710639 C5.08084261,5.43436367 5.16934592,5.34457808 5.25839893,5.25530678 C5.26398061,5.24977821 5.26973142,5.24433537 5.27535537,5.23867823 C5.39958983,5.11434984 5.52450086,4.9906643 5.65541641,4.87315018 C5.77271606,4.76845033 5.89521682,4.66996476 6.01733701,4.57109347 C6.11552367,4.49120787 6.21261091,4.41025084 6.31405355,4.33426524 C6.38809525,4.27893674 6.46217925,4.22360825 6.53774323,4.17046547 C6.69973854,4.05616563 6.86651209,3.9482515 7.03594962,3.84393737 C7.12352265,3.7899803 7.21113797,3.73623752 7.3004447,3.68519474 C7.47339192,3.58632345 7.65056768,3.49396644 7.83044971,3.40568085 C7.91628903,3.36350948 8.00204379,3.32103811 8.08919397,3.28135246 C8.29086318,3.19033861 8.49557619,3.10641719 8.70296632,3.02973853 C8.76998865,3.00470999 8.8366727,2.97886717 8.90428703,2.95529578 C9.14767196,2.87122254 9.39431281,2.7971621 9.64360469,2.7332961 C9.68043526,2.72378182 9.71688526,2.71319612 9.75388497,2.70411042 C10.0409563,2.63395099 10.3310584,2.57720545 10.6232725,2.53405352 C10.6312221,2.53285352 10.6390872,2.53126781 10.6470369,2.53011067 C10.6540562,2.52912496 10.6611602,2.52852496 10.6682218,2.52753925 C10.8424799,2.50281071 11.0161883,2.48429645 11.1894738,2.46933933 C11.2471087,2.46441077 11.3050397,2.46025363 11.3629707,2.45648221 C11.4919834,2.44765365 11.620531,2.4422108 11.7487825,2.43878223 C11.7905605,2.4377108 11.8322962,2.43621081 11.8742433,2.43569652 C11.9039276,2.43531081 11.9335274,2.43417663 11.9632963,2.43417663 C12.0359426,2.43389652 12.1079546,2.43706795 12.1803472,2.43843937 C12.3123198,2.44079651 12.4442502,2.44336794 12.5748698,2.4512965 C12.6565652,2.45622506 12.7374994,2.46483934 12.8187719,2.4718679 C12.9176351,2.48039646 13.0163715,2.48948216 13.114389,2.50096786 C13.2308852,2.51481069 13.3461129,2.53195353 13.4611292,2.54986779 C13.4649348,2.55046779 13.4688251,2.55093921 13.4726308,2.55153921 C13.5575821,2.56491062 13.642618,2.57785346 13.7268082,2.59341058 C13.8001311,2.60695342 13.8721854,2.62371054 13.9448317,2.63883909 C14.0026358,2.6510105 14.0604822,2.66288191 14.1179057,2.67616761 C14.1883109,2.69241044 14.2590966,2.70745328 14.3289098,2.72523896 C14.4676482,2.7605532 14.6048642,2.80036743 14.7414037,2.84185308 C14.7902011,2.85668163 14.8394213,2.87043876 14.8878803,2.88599588 C15.0379907,2.93469624 15.1869076,2.98709744 15.3344985,3.0431528 C15.3685806,3.05600992 15.4030431,3.06809562 15.436956,3.08125274 C15.5913301,3.14190358 15.7441168,3.2066255 15.8951604,3.27535246 C15.9221385,3.28752387 15.9494549,3.29909529 15.9763061,3.31148098 C16.1276907,3.38207646 16.2772477,3.45662987 16.4248272,3.53506638 C16.451467,3.5491235 16.478445,3.56258062 16.504958,3.57693775 C16.646614,3.65365192 16.7856906,3.73482324 16.923245,3.81852312 C16.956143,3.83853737 16.9894639,3.85782306 17.0220659,3.87822303 C17.1486684,3.95729435 17.2725223,4.04043709 17.395319,4.12525125 C17.4381118,4.15486549 17.4813698,4.18375117 17.5236551,4.21405112 C17.6317789,4.2913653 17.7372809,4.37232233 17.8421909,4.45396507 C17.8973311,4.49712215 17.9530209,4.53946494 18.0071885,4.58382202 C18.0950575,4.65539335 18.1805586,4.72979324 18.2659751,4.80453599 C18.3340122,4.86410734 18.4023454,4.92329297 18.4686489,4.98487859 C18.5367707,5.04783565 18.6028627,5.11314984 18.6692508,5.17816403 C18.748409,5.25586392 18.827525,5.33364952 18.9040192,5.41400655 C18.9248659,5.43586366 18.9446978,5.45874934 18.965333,5.48073503 C19.0052081,5.52359211 19.0442798,5.5671349 19.0833938,5.61059198 C19.1550676,5.69017759 19.2268258,5.76976319 19.2959202,5.85170593 C19.3627311,5.93116296 19.4267934,6.01284855 19.4910249,6.09427701 C19.5459114,6.16387691 19.6013898,6.23296252 19.6544157,6.30389099 C19.7269774,6.40126228 19.7963677,6.50103357 19.8652929,6.60110486 C19.9060983,6.66029049 19.9477494,6.71870469 19.9872439,6.77887603 C20.0499108,6.87419018 20.1089412,6.97207575 20.1683099,7.06966133 C20.2190524,7.15288978 20.2695834,7.23624681 20.3179156,7.32114668 C20.3768895,7.42545555 20.4339843,7.5308443 20.4891714,7.63726052 C20.5277531,7.71135092 20.5653622,7.78595739 20.6019888,7.8610602 C20.768125,8.2008743 20.9145545,8.55022475 21.0405305,8.90733013 C21.0674485,8.98383811 21.0934138,9.06068696 21.1184202,9.13785837 C21.1630219,9.27520235 21.2045988,9.41353648 21.2431198,9.55275778 C21.2569049,9.60272914 21.2692945,9.65321478 21.2823184,9.70348614 C21.2939891,9.74870036 21.3059136,9.79374315 21.3169501,9.83930023 C21.3473276,9.96294053 21.3752838,10.087179 21.400802,10.2119426 C21.4057917,10.2366711 21.4097665,10.2618282 21.414587,10.286771 C21.4331503,10.3827709 21.4504873,10.4791993 21.4663021,10.5763563 C21.4832585,10.6794705 21.4995384,10.7828417 21.5131966,10.8868559 C21.5136617,10.890413 21.5139154,10.8939702 21.5143806,10.8974416 C21.5403902,11.1016119 21.5601188,11.3065539 21.5735378,11.5119693 C21.5751024,11.5356264 21.5776395,11.5589835 21.5790349,11.5825549 C21.5843629,11.6737976 21.5862657,11.7658546 21.5890988,11.8576973 C21.5906211,11.9053973 21.5925662,11.9533115 21.5933697,12.0009257 C21.5948496,12.0931542 21.5959491,12.1854254 21.5948074,12.2781682 C21.5944411,12.2838763 21.5942015,12.289592 21.5940885,12.295311 L21.5940885,12.295311 Z" id="形状" fill="#000000"></path>
                    <polygon id="路径" fill="#A6173B" points="16.4284214 7.36691805 14.7313821 5.64689193 12.0000423 8.41515941 9.26870247 5.64689193 7.57166315 7.36691805 10.303003 10.1351427 7.2000592 10.1351427 7.2000592 12.567582 10.8000677 12.567582 10.8000677 15.8108346 13.2000169 15.8108346 13.2000169 12.567582 16.7999831 12.567582 16.7999831 10.1351427 13.6970816 10.1351427"></polygon>
                </g>
            </g>
        </g>
    </g>
</svg>