<?xml version="1.0" encoding="UTF-8"?>
<svg width="32px" height="32px" viewBox="0 0 32 32" version="1.1" xmlns="http://www.w3.org/2000/svg" xmlns:xlink="http://www.w3.org/1999/xlink">
    <title>icon-fund</title>
    <g id="页面-1" stroke="none" stroke-width="1" fill="none" fill-rule="evenodd">
        <g id="Apple-TV" transform="translate(-1186.000000, -3227.000000)" fill-rule="nonzero">
            <g id="icon-fund" transform="translate(1186.000000, 3227.000000)">
                <g id="金融" transform="translate(3.000000, 3.000000)">
                    <rect id="矩形" stroke="#979797" stroke-width="0.742857143" fill="#000000" opacity="0" x="0" y="0" width="26" height="26"></rect>
                    <path d="M9.03742107,6.28536393 L12.9867501,10.2346303 L16.8759075,6.34571252 C17.0903226,6.12371279 17.4078387,6.03467962 17.7064183,6.11283293 C18.0049979,6.19098624 18.2381752,6.42416357 18.3163285,6.72274318 C18.3944818,7.02132279 18.3054486,7.33883882 18.0834489,7.55325393 L14.8897501,10.7456303 L17.1030688,10.7466059 C17.5747143,10.7466059 17.9570585,11.1289501 17.9570585,11.6005956 C17.9570585,12.0722411 17.5747143,12.4545853 17.1030688,12.4545853 L13.8097501,12.4536303 L13.8097501,14.6406303 L17.1030688,14.6413681 C17.5747143,14.6413681 17.9570585,15.0237123 17.9570585,15.4953578 C17.9570585,15.9670033 17.5747143,16.3493475 17.1030688,16.3493475 L13.8097501,16.3486303 L13.8106539,19.9008058 C13.8106539,20.3724513 13.4283098,20.7547955 12.9566643,20.7547955 C12.7301722,20.7547955 12.5129565,20.6648218 12.3528024,20.5046677 C12.1926483,20.3445136 12.1026746,20.127298 12.1026746,19.9008058 L12.1017501,16.3486303 L8.37073979,16.3493475 C7.89909432,16.3493475 7.51675012,15.9670033 7.51675012,15.4953578 C7.51675012,15.0237123 7.89909432,14.6413681 8.37073979,14.6413681 L12.1017501,14.6406303 L12.1017501,12.4536303 L8.37073979,12.4545853 C7.89909432,12.4545853 7.51675012,12.0722411 7.51675012,11.6005956 C7.51675012,11.1289501 7.89909432,10.7466059 8.37073979,10.7466059 L11.0807501,10.7456303 L7.82987969,7.49290532 C7.60787974,7.27849025 7.5188464,6.96097412 7.59699967,6.66239437 C7.67515295,6.36381463 7.90833039,6.13063719 8.20691013,6.05248392 C8.50548987,5.97433064 8.82300601,6.06336398 9.03742107,6.28536393 Z" id="形状结合" stroke="#A6173B" stroke-width="0.742857143" fill="#A6173B"></path>
                    <path d="M25.3387852,14.633625 C25.5234418,14.7699724 25.6468063,14.9684117 25.6907567,15.1868396 C25.7260255,15.3206508 25.7312962,15.462798 25.7027447,15.6029605 C24.5316402,21.6275729 19.2198245,26 13.0733762,26 C6.96600428,25.9996403 1.69982175,21.7072056 0.467919436,15.7253657 C0.402627797,15.406535 0.512389974,15.0770906 0.755859616,14.8611311 C0.999329259,14.6451715 1.33951754,14.5755062 1.64827882,14.6783773 C1.9570401,14.7812484 2.1874662,15.0410274 2.25275784,15.3598581 C3.31105792,20.4939887 7.83130637,24.1777796 13.0733762,24.1781554 C17.7570636,24.1781554 21.8755369,21.2215477 23.4450476,16.9408833 L22.1444544,17.4993869 C22.030828,17.5484318 21.9083993,17.5738086 21.7846401,17.5739689 C21.3521864,17.5743085 20.9790991,17.2705435 20.891769,16.8469991 C20.8044388,16.4234548 21.0269393,15.9968862 21.4242565,15.8261365 L24.4257455,14.5349041 C24.7256275,14.4007637 25.0745061,14.4384856 25.3387852,14.633625 Z M12.9253513,0 C19.0327233,0.000359735502 24.2989058,4.29279441 25.5308081,10.2746343 C25.6317402,10.7675038 25.3140122,11.2488752 24.8211427,11.3498073 C24.3282732,11.4507394 23.8469018,11.1330114 23.7459697,10.6401419 C22.6876696,5.50601126 18.1674212,1.82222045 12.9253513,1.82184463 C8.24093163,1.82184463 4.12190271,4.77937698 2.55254551,9.06112474 L3.85484244,8.5000438 C4.15392897,8.37091591 4.499202,8.41130404 4.76041264,8.6059724 C5.02162327,8.80064076 5.15901899,9.1199636 5.12076939,9.44348135 C5.0825198,9.7669991 4.87444592,10.045477 4.57504041,10.1738635 L1.57355138,11.4650959 C1.45988389,11.5139454 1.33745679,11.5391084 1.21373708,11.5391084 C0.846924328,11.5374259 0.5238409,11.3171449 0.382386026,10.9912883 C0.287769447,10.8101193 0.256211214,10.6005874 0.295982857,10.3964702 C1.46708735,4.37242708 6.77662576,0 12.9253513,0 Z" id="形状结合" stroke="#000000" stroke-width="0.5" fill="#000000"></path>
                </g>
            </g>
        </g>
    </g>
</svg>