<?xml version="1.0" encoding="UTF-8"?>
<svg width="48px" height="48px" viewBox="0 0 48 48" version="1.1" xmlns="http://www.w3.org/2000/svg" xmlns:xlink="http://www.w3.org/1999/xlink">
    <title>icon-new</title>
    <g id="页面-1" stroke="none" stroke-width="1" fill="none" fill-rule="evenodd">
        <g id="Apple-TV" transform="translate(-1073.000000, -1203.000000)">
            <g id="icon-new" transform="translate(1073.000000, 1203.000000)">
                <rect id="矩形" fill="#000000" fill-rule="nonzero" opacity="0" x="0" y="0" width="48" height="48"></rect>
                <path d="M23.2861176,25.8306074 C23.7444556,25.8795946 24.2074204,25.8842199 24.6664063,25.8436899 L24.6664063,25.8436899 L24.6664063,35.4710938 L23.286675,35.4710938 L23.286675,35.4710938 Z" id="路径" stroke="#B80038" stroke-width="0.8" fill="#A6173B"></path>
                <path d="M22.3139063,3.51890625 C25.8510938,3.15796875 29.5007813,3.96 32.5457813,5.80171875 C35.626875,7.64015625 38.0826563,10.501875 39.4270313,13.8290625 C40.1784375,15.6721875 40.588125,17.6526562 40.640625,19.6425 C40.6659375,21.5634375 40.6457813,23.4853125 40.6523438,25.4071875 C40.6514063,28.8975 40.6542187,32.3878125 40.6509375,35.878125 C41.548125,35.9423437 42.4246875,36.2803125 43.1203125,36.8521875 C43.8632812,37.4559375 44.4,38.3109375 44.6128125,39.2446875 C44.8167188,40.1254687 44.743125,41.0695312 44.3957813,41.9048437 C44.03625,42.7823437 43.3790625,43.5328125 42.55875,44.008125 C41.8964063,44.398125 41.1290625,44.596875 40.3617188,44.6015625 C29.4698437,44.6020312 18.5775,44.6010937 7.685625,44.6020312 C7.00828125,44.6020312 6.328125,44.4604687 5.72015625,44.1576562 C4.89046875,43.7559375 4.19578125,43.0809375 3.770625,42.2629687 C3.33421875,41.44125 3.17953125,40.4760937 3.32484375,39.5582812 C3.44625,38.7571875 3.80296875,37.9945312 4.333125,37.3823437 C5.07375,36.5189062 6.16640625,35.960625 7.30359375,35.8889062 C7.32421875,33.5671875 7.30640625,31.2445312 7.3125,28.9223437 L7.3125,20.25 C7.30734375,18.7026562 7.49953125,17.1520312 7.9134375,15.66 C8.799375,12.4223437 10.7020312,9.4771875 13.276875,7.32609375 C15.8151562,5.18625 19.00875,3.838125 22.3139062,3.51890625 M16.246875,7.854375 C13.7596875,9.42375 11.769375,11.7660938 10.629375,14.4778125 C9.88921875,16.224375 9.5109375,18.1185937 9.49265625,20.0142188 C9.49211498,25.2998437 9.49171875,30.5854687 9.49265625,35.8712109 L25.0664062,35.8712109 C29.535,35.8712109 34.0035938,35.8715625 38.4721875,35.870625 C38.473125,30.8198438 38.4721875,25.7690625 38.4727656,20.7182813 C38.4745313,19.824375 38.4534375,18.9271875 38.3207813,18.0417187 C38.1510293,16.8459468 37.8309992,15.676388 37.3682812,14.5607812 C36.05625,11.375625 33.5639063,8.70046875 30.485625,7.15640625 C28.6223437,6.21796875 26.5532812,5.6896875 24.4673437,5.62546875 C21.5864062,5.51953125 18.6796875,6.305625 16.246875,7.854375 M7.2009375,38.0971875 C6.39515625,38.2560937 5.71453125,38.9071875 5.51953125,39.705 C5.33296875,40.4076562 5.54109375,41.1965625 6.04265625,41.7215625 C6.44765625,42.1645312 7.04203125,42.418125 7.640625,42.4214062 C18.5320313,42.4228125 29.4234375,42.4209375 40.3148438,42.4223437 C40.8834375,42.4284375 41.4496875,42.2109375 41.86125,41.8176562 C42.2629688,41.439375 42.5132812,40.905 42.5414063,40.35375 C42.5775,39.75 42.343125,39.1373437 41.9160938,38.7089062 C41.5125,38.2921875 40.9364062,38.0517187 40.3565625,38.0507812 C29.6221875,38.0503125 18.8882812,38.0507812 8.15390625,38.0507812 C7.83609375,38.0545312 7.51453125,38.0310937 7.2009375,38.0971875 L7.2009375,38.0971875 Z" id="形状" stroke="#2C2C2C" stroke-width="0.8" fill="#2C2C2C" fill-rule="nonzero"></path>
                <path d="M18.6623438,15.1964063 C19.8360938,13.4798438 21.8714063,12.3871875 23.9545313,12.38625 C25.5585938,12.3492188 27.1626563,12.9459375 28.363125,14.0090625 C29.63625,15.1190625 30.45,16.7395312 30.5676563,18.4260938 C30.703125,20.094375 30.1654688,21.804375 29.0934375,23.090625 C28.09125,24.3145313 26.630625,25.1526562 25.0664063,25.3921875 C24.345,25.5046875 23.6053125,25.49625 22.8857813,25.370625 C21.4514063,25.119375 20.1135938,24.3660938 19.1484375,23.27625 C18.2076562,22.2234375 17.6235938,20.8579688 17.518125,19.449375 C17.3934375,17.9564063 17.8026563,16.4245313 18.6623438,15.1964063 M23.3704688,14.6142187 C21.9998438,14.8167187 20.7628125,15.7242187 20.1464063,16.963125 C19.666875,17.8992188 19.54875,19.0125 19.81875,20.02875 C20.1951563,21.5235937 21.4289063,22.760625 22.9214063,23.145 C23.908125,23.4084375 24.9890625,23.3146875 25.9096875,22.8698438 C26.6526563,22.5201562 27.2892188,21.9529687 27.7289063,21.2601562 C28.580625,19.9485937 28.63125,18.1715625 27.8592188,16.8121875 C27.3642188,15.9225 26.551875,15.2109375 25.5989063,14.85 C24.8939063,14.5757812 24.1167188,14.5007812 23.3704688,14.6142187 L23.3704688,14.6142187 Z" id="形状" stroke="#2C2C2C" stroke-width="0.8" fill="#2C2C2C" fill-rule="nonzero"></path>
            </g>
        </g>
    </g>
</svg>