<?xml version="1.0" encoding="UTF-8"?>
<svg width="48px" height="48px" viewBox="0 0 48 48" version="1.1" xmlns="http://www.w3.org/2000/svg" xmlns:xlink="http://www.w3.org/1999/xlink">
    <title>icon-bank</title>
    <g id="页面-1" stroke="none" stroke-width="1" fill="none" fill-rule="evenodd">
        <g id="Apple-TV" transform="translate(-936.000000, -1644.000000)" fill-rule="nonzero">
            <g id="icon-bank" transform="translate(936.000000, 1644.000000)">
                <rect id="矩形" fill="#000000" opacity="0" x="0" y="0" width="48" height="48"></rect>
                <path d="M43.42944,14.928 L25.81584,4.116 C24.702836,3.42869406 23.297164,3.42869406 22.18416,4.116 L4.5708,14.928 C3.60284696,15.5226013 3.14843435,16.6883916 3.45864957,17.7812092 C3.76886479,18.8740267 4.76800846,19.6271999 5.904,19.6245669 L42.096,19.6245669 C43.2318283,19.6269256 44.2307153,18.873794 44.5409374,17.7811487 C44.8511595,16.6885035 44.3970537,15.5228404 43.42944,14.928 Z M8.38776,16.38648 L23.88624,6.87288 C23.955934,6.82970071 24.044066,6.82970071 24.11376,6.87288 L39.61224,16.38648 L8.38776,16.38648 Z M12.528,36.22056 L12.528,25.10256 C12.528,24.206003 11.801197,23.4792 10.90464,23.4792 C10.008083,23.4792 9.28128,24.206003 9.28128,25.10256 L9.28128,36.22056 C9.28128,37.117117 10.008083,37.84392 10.90464,37.84392 C11.801197,37.84392 12.528,37.117117 12.528,36.22056 Z M25.8396,36.22056 L25.8396,25.10256 C25.8396,24.206003 25.112797,23.4792 24.21624,23.4792 C23.319683,23.4792 22.59288,24.206003 22.59288,25.10256 L22.59288,36.22056 C22.59288,37.1171832 23.3197368,37.84404 24.21636,37.84404 C25.1129832,37.84404 25.83984,37.1171832 25.83984,36.22056 L25.8396,36.22056 Z M39.15144,36.22056 L39.15144,25.10256 C39.15144,24.206003 38.424637,23.4792 37.52808,23.4792 C36.631523,23.4792 35.90472,24.206003 35.90472,25.10256 L35.90472,36.22056 C35.90472,37.1171832 36.6315768,37.84404 37.5282,37.84404 C38.4248232,37.84404 39.15168,37.1171832 39.15168,36.22056 L39.15144,36.22056 Z M42.12744,41.40168 L6.144,41.40168 C5.56083227,41.3945799 5.01889901,41.7016278 4.72524628,42.2055158 C4.43159355,42.7094038 4.43159355,43.3322762 4.72524628,43.8361642 C5.01889901,44.3400522 5.56083227,44.6471001 6.144,44.64 L42.12768,44.64 C42.7108477,44.6471001 43.252781,44.3400522 43.5464337,43.8361642 C43.8400864,43.3322762 43.8400864,42.7094038 43.5464337,42.2055158 C43.252781,41.7016278 42.7108477,41.3945799 42.12768,41.40168 L42.12744,41.40168 Z" id="形状" fill="#FFFFFF"></path>
            </g>
        </g>
    </g>
</svg>