<?xml version="1.0" encoding="UTF-8"?>
<svg width="32px" height="33px" viewBox="0 0 32 33" version="1.1" xmlns="http://www.w3.org/2000/svg" xmlns:xlink="http://www.w3.org/1999/xlink">
    <title>icon-copyright</title>
    <g id="页面-1" stroke="none" stroke-width="1" fill="none" fill-rule="evenodd">
        <g id="Apple-TV" transform="translate(-944.000000, -2113.000000)" fill-rule="nonzero">
            <g id="icon-copyright" transform="translate(944.000000, 2113.666667)">
                <rect id="矩形" fill="#000000" opacity="0" x="0" y="0.333333344" width="32" height="32"></rect>
                <path d="M21.3333333,11.3333333 C21.3333333,8.8 19.2,6.66666669 16.6666667,6.66666669 L10.6666667,6.66666669 L10.6666667,20 L13.3333333,20 L13.3333333,16 L16.9333333,16 L19.3333333,20 L22.6666667,20 L19.6,14.9333333 C20.6666667,14.1333333 21.3333333,12.8 21.3333333,11.3333333 L21.3333333,11.3333333 Z M16.6666667,13.3333333 L13.3333333,13.3333333 L13.3333333,9.33333334 L16.6666667,9.33333334 C17.7333333,9.33333334 18.6666667,10.2666667 18.6666667,11.3333333 C18.6666667,12.4 17.7333333,13.3333333 16.6666667,13.3333333 Z M16,3.83693077e-13 C8.66666666,3.83693077e-13 2.66666666,6 2.66666666,13.3333333 C2.66666666,20.6666667 8.66666666,26.6666667 16,26.6666667 C23.3333333,26.6666667 29.3333333,20.6666667 29.3333333,13.3333333 C29.3333333,6 23.3333333,3.83693077e-13 16,3.83693077e-13 Z M16,24 C10.1333333,24 5.33333334,19.2 5.33333334,13.3333333 C5.33333334,7.46666669 10.1333333,2.66666669 16,2.66666669 C21.8666667,2.66666669 26.6666667,7.46666669 26.6666667,13.3333333 C26.6666667,19.2 21.8666667,24 16,24 Z" id="形状" fill="#A6173B"></path>
            </g>
        </g>
    </g>
</svg>