<svg xmlns="http://www.w3.org/2000/svg" width="956.103" height="697.302" viewBox="0 0 956.103 697.302">
  <g id="Group_10" data-name="Group 10" transform="translate(-484.948 -4952.349)">
    <g id="Group_9" data-name="Group 9">
      <text id="_·以美国为支点_撬动加拿大_墨西哥_·" data-name="·以美国为支点,撬动加拿大、墨西哥 ·" transform="translate(964 5261)" font-size="14" font-family="Helvetica" opacity="0.6"><tspan x="-108.89" y="0">·</tspan><tspan y="0" font-family="PingFangSC-Regular, PingFang SC">以美国为支点</tspan><tspan y="0">,</tspan><tspan y="0" font-family="PingFangSC-Regular, PingFang SC">撬动加拿大、墨西哥</tspan><tspan y="0"></tspan><tspan x="-110.834" y="32">· </tspan><tspan y="32" font-family="PingFangSC-Regular, PingFang SC">以中国为支点</tspan><tspan y="32">,</tspan><tspan y="32" font-family="PingFangSC-Regular, PingFang SC">撬动日韩以及俄罗斯</tspan><tspan y="32"></tspan><tspan x="-110.834" y="64">· </tspan><tspan y="64" font-family="PingFangSC-Regular, PingFang SC">以菲律宾为支点</tspan><tspan y="64">,</tspan><tspan y="64" font-family="PingFangSC-Regular, PingFang SC">撬动泰国、马来西</tspan><tspan y="64"></tspan><tspan x="-54.834" y="96" xml:space="preserve">   </tspan><tspan y="96" font-family="PingFangSC-Regular, PingFang SC">亚等东南亚国家</tspan><tspan y="96"></tspan><tspan x="-117.834" y="128">· </tspan><tspan y="128" font-family="PingFangSC-Regular, PingFang SC">以马耳他为支点</tspan><tspan y="128">,</tspan><tspan y="128" font-family="PingFangSC-Regular, PingFang SC">撬动整个欧洲及非洲</tspan></text>
      <text id="全球布局_四大支点" data-name="全球布局 四大支点" transform="translate(964 5218)" fill="#a6173b" font-size="20" font-family="PingFangSC-Regular, PingFang SC"><tspan x="-82.778" y="0">全球布局</tspan><tspan y="0" font-family="Helvetica"> </tspan><tspan y="0">四大支点</tspan></text>
    </g>
    <g id="Group_6" data-name="Group 6">
      <g id="椭圆形" transform="translate(534 5055)" fill="none" stroke="#a6173b" stroke-miterlimit="10" stroke-width="2" stroke-dasharray="8 8">
        <ellipse cx="429" cy="246" rx="429" ry="246" stroke="none"/>
        <ellipse cx="429" cy="246" rx="428" ry="245" fill="none"/>
      </g>
      <g id="椭圆形备份_18" data-name="椭圆形备份 18" transform="matrix(0.966, -0.259, 0.259, 0.966, 484.948, 5174.416)" fill="none" stroke="#a6173b" stroke-miterlimit="10" stroke-width="1" stroke-dasharray="8 8" opacity="0.4">
        <ellipse cx="429" cy="246" rx="429" ry="246" stroke="none"/>
        <ellipse cx="429" cy="246" rx="428.5" ry="245.5" fill="none"/>
      </g>
      <g id="椭圆形备份_19" data-name="椭圆形备份 19" transform="matrix(0.966, 0.259, -0.259, 0.966, 612.287, 4952.349)" fill="none" stroke="#a6173b" stroke-miterlimit="10" stroke-width="1" stroke-dasharray="8 8" opacity="0.4">
        <ellipse cx="429" cy="246" rx="429" ry="246" stroke="none"/>
        <ellipse cx="429" cy="246" rx="428.5" ry="245.5" fill="none"/>
      </g>
      <g id="椭圆形备份_14" data-name="椭圆形备份 14" transform="translate(558 5071)">
        <circle id="椭圆形备份_11" data-name="椭圆形备份 11" cx="71" cy="71" r="71" fill="#a6173b"/>
      </g>
      <g id="椭圆形备份_15" data-name="椭圆形备份 15" transform="translate(558 5389)">
        <circle id="椭圆形备份_11-2" data-name="椭圆形备份 11" cx="71" cy="71" r="71" fill="#a6173b"/>
      </g>
      <g id="椭圆形备份_13" data-name="椭圆形备份 13" transform="translate(1226 5071)">
        <circle id="椭圆形备份_12" data-name="椭圆形备份 12" cx="71" cy="71" r="71" fill="#a6173b"/>
      </g>
      <g id="椭圆形备份_16" data-name="椭圆形备份 16" transform="translate(1226 5389)">
        <circle id="椭圆形备份_12-2" data-name="椭圆形备份 12" cx="71" cy="71" r="71" fill="#a6173b"/>
      </g>
      <text id="整合_全球市场资源" data-name="整合 全球市场资源" transform="translate(628.5 5131)" fill="#fff" font-size="18" font-family="PingFangSC-Regular, PingFang SC"><tspan x="-20.5" y="0">整合</tspan><tspan y="0" font-family="Helvetica"> </tspan><tspan font-size="16"><tspan x="-48" y="30">全球市场资源</tspan></tspan></text>
      <text id="输出_全球化业务" data-name="输出 全球化业务" transform="translate(1297.5 5131)" fill="#fff" font-size="18" font-family="PingFangSC-Regular, PingFang SC"><tspan x="-18" y="0">输出</tspan><tspan y="0" font-family="Helvetica"></tspan><tspan font-size="16"><tspan x="-40" y="30">全球化业务</tspan></tspan></text>
      <text id="输出_企业责任" data-name="输出 企业责任" transform="translate(1296.5 5449)" fill="#fff" font-size="18" font-family="PingFangSC-Regular, PingFang SC"><tspan x="-20.5" y="0">输出</tspan><tspan y="0" font-family="Helvetica"> </tspan><tspan font-size="16"><tspan x="-32" y="30">企业责任</tspan></tspan></text>
      <text id="整合_全球智慧资源" data-name="整合 全球智慧资源" transform="translate(628.5 5449)" fill="#fff" font-size="18" font-family="PingFangSC-Regular, PingFang SC"><tspan x="-20.5" y="0">整合</tspan><tspan y="0" font-family="Helvetica"> </tspan><tspan font-size="16"><tspan x="-48" y="30">全球智慧资源</tspan></tspan></text>
    </g>
  </g>
</svg>
