<svg xmlns="http://www.w3.org/2000/svg" width="260" height="850" viewBox="0 0 260 850"><defs><linearGradient id="a" x1="47.619%" x2="47.619%" y1="0%" y2="100%"><stop offset="0%" stop-color="#7B7B7B"/><stop offset="100%" stop-color="#000000"/></linearGradient><linearGradient id="b" x1="94.234%" x2="-2.629%" y1="51.519%" y2="51.519%"><stop offset="0%" stop-color="#434343"/><stop offset="100%" stop-color="#000000"/></linearGradient><linearGradient id="c" x1="97.619%" x2="-2.381%" y1="50%" y2="50%"><stop offset="0%" stop-color="#7B7B7B"/><stop offset="100%" stop-color="#000000"/></linearGradient></defs><g fill="none" fill-rule="evenodd"><rect width="202" height="142" x="1" y="1" stroke="#C7C7C7" stroke-width="2"/><rect width="2" height="142" x="71" y="1" fill="#C7C7C7" fill-rule="nonzero"/><rect width="70" height="2" x="1" y="67" fill="#C7C7C7" fill-rule="nonzero"/><rect width="2" height="75" x="29" y="68" fill="#C7C7C7" fill-rule="nonzero"/><rect width="41" height="2" x="30" y="104" fill="#C7C7C7" fill-rule="nonzero"/><path stroke="#C7C7C7" stroke-width="2" d="M168.690563,291.217212 L87.7660483,269.414253 C86.8712592,269.173176 85.3199163,269.170787 84.425791,269.409409 L2.68840149,291.223286 C2.34842116,291.314019 2.34944638,291.310484 2.58991366,291.573634 L33.0005228,324.852792 C33.5570909,325.46186 34.7854906,326.003906 35.6073095,326.003906 L137.414918,326.003906 C138.224036,326.003906 139.434199,325.451817 139.967837,324.837431 L168.813712,291.626645 C169.054919,291.348939 169.043781,291.312377 168.690563,291.217212 Z"/><path stroke="#C7C7C7" stroke-width="2" d="M168.690563,249.217212 L87.7660483,227.414253 C86.8712592,227.173176 85.3199163,227.170787 84.425791,227.409409 L2.68840149,249.223286 C2.34842116,249.314019 2.34944638,249.310484 2.58991366,249.573634 L33.0005228,282.852792 C33.5570909,283.46186 34.7854906,284.003906 35.6073095,284.003906 L137.414918,284.003906 C138.224036,284.003906 139.434199,283.451817 139.967837,282.83743 L168.813712,249.626645 C169.054919,249.348939 169.043781,249.312377 168.690563,249.217212 Z"/><path stroke="#C7C7C7" stroke-width="2" d="M168.690563,208.217212 L87.7660483,186.414253 C86.8712592,186.173176 85.3199163,186.170787 84.425791,186.409409 L2.68840149,208.223286 C2.34842116,208.314019 2.34944638,208.310484 2.58991366,208.573634 L33.0005228,241.852792 C33.5570909,242.46186 34.7854906,243.003906 35.6073095,243.003906 L137.414918,243.003906 C138.224036,243.003906 139.434199,242.451817 139.967837,241.83743 L168.813712,208.626645 C169.054919,208.348939 169.043781,208.312377 168.690563,208.217212 Z M34,327 L34,242 L34,327 Z M139,327 L139,242 L139,327 Z M1,291.37931 L1,207.616116 L1,291.37931 Z M170,291.37931 L170,207.616116 L170,291.37931 Z"/><rect width="190" height="142" x="1" y="381" stroke="#C7C7C7" stroke-width="2" rx="4"/><circle cx="17" cy="452" r="4" fill="#C7C7C7" fill-rule="nonzero"/><rect width="56" height="101" x="161" y="430" fill="#FFFFFF" fill-rule="nonzero" stroke="#C7C7C7" stroke-width="2" rx="4"/><polygon fill="url(#a)" fill-rule="nonzero" points="8 582 8 582 4 591 0 583 8 566"/><polygon fill="url(#b)" fill-rule="nonzero" points="17 600 8 582 8 566 17 584"/><polygon fill="url(#c)" fill-rule="nonzero" points="26 582 26 582 30 591 34 583 26 566"/><polygon fill="url(#b)" fill-rule="nonzero" points="17 600 26 582 26 566 17 584"/><polygon fill="#FFFFFF" points="7 644 3.294 636.588 1.647 640.294 0 637 3.294 630 7 637.412 10.706 630 14 637 12.353 640.294 10.706 636.588"/><polyline stroke="#FFFFFF" stroke-linecap="round" stroke-linejoin="round" stroke-width="2" points="1 710 14.502 723.413 1 736.825"/><path stroke="#FFFFFF" stroke-linecap="round" stroke-width="2" d="M1.55712891,786.308105 L18.8427735,803.59375"/><path stroke="#FFFFFF" stroke-linecap="round" stroke-width="2" d="M1.5572265,786.308105 L18.8428711,803.59375" transform="matrix(-1 0 0 1 20.4 0)"/></g></svg>