  <svg id="Layer_1" data-name="Layer 1" xmlns="http://www.w3.org/2000/svg" xmlns:xlink="http://www.w3.org/1999/xlink"
        viewBox="0 0 222.3 300">
        <defs>
            <style>
                .cls-1 {
                    fill: none;
                }

                .cls-2 {
                    fill: #8e94a3;
                }

                .cls-3 {
                    fill: #b4b6c1;
                }

                .cls-4 {
                    fill: #c9233b;
                }

                .cls-5 {
                    fill: #dd2238;
                }

                .cls-6 {
                    fill: #ff1d25;
                }

                .cls-7 {
                    fill: #af223d;
                }

                .cls-8 {
                    fill: #931d3a;
                }

                .cls-9 {
                    fill: #ffad00;
                }

                .cls-10 {
                    fill: #e68900;
                }

                .cls-11 {
                    fill: #ffce2a;
                }

                .cls-12 {
                    clip-path: url(#clip-path);
                }

                .cls-13 {
                    fill: #fdeb95;
                }
            </style>
            <clipPath id="clip-path" transform="translate(0.15 0.08)">
                <path class="cls-1"
                    d="M148.36,86.83h-7.47a22.46,22.46,0,0,1-21.14-14.94h-17.5A22.46,22.46,0,0,1,81.11,86.83H73.64v49.92a57,57,0,0,0,10.9,33.68A58.05,58.05,0,0,0,111,190.63a59.47,59.47,0,0,0,7.71-3.59,57.64,57.64,0,0,0,18.75-16.61,57,57,0,0,0,10.9-33.68V86.83Z" />
            </clipPath>
        </defs>
        <title>red-cloth-layer</title>
        <g id="Stick">
            <rect class="cls-2" width="222.3" height="20.92" />
            <rect class="cls-3" width="111.15" height="20.92" />
        </g>
        <g id="Cloth">
            <polygon class="cls-4" points="38.48 20.59 16.12 20.59 16.12 300 38.48 287.09 38.48 20.59" />
            <polygon class="cls-4" points="206.17 299.68 206.17 20.59 183.81 20.59 183.81 286.77 206.17 299.68" />
            <polygon class="cls-5"
                points="111.43 244.97 183.81 286.77 183.81 20.59 111.15 20.59 111.15 245.13 111.43 244.97" />
            <polygon class="cls-6" points="111.15 245.13 111.15 20.59 38.48 20.59 38.48 287.09 111.15 245.13" />
            <rect class="cls-7" x="16.12" y="20.92" width="190.05" height="20.92" />
            <rect class="cls-8" x="111.15" y="20.92" width="95.03" height="20.92" />
            <polygon class="cls-7"
                points="111.58 221.24 111.53 221.16 111.47 221.19 111.42 221.16 111.37 221.24 16.12 274.18 16.12 299.61 111.47 246.62 206.17 299.25 206.17 273.81 111.58 221.24" />
            <polygon class="cls-8"
                points="111.58 221.24 111.53 221.16 111.47 221.19 111.42 221.16 111.37 221.24 111.15 221.37 111.15 246.8 111.47 246.62 205.95 299.13 205.95 273.69 111.58 221.24" />
        </g>
        <g id="Plate">
            <path class="cls-9"
                d="M140.89,71.89a7.4,7.4,0,0,1-7.47-7.47V57H88.58v7.47a7.4,7.4,0,0,1-7.47,7.47H58.7v64.86a72.54,72.54,0,0,0,49.91,68.89l2.39.75,2.39-.75a72.55,72.55,0,0,0,49.92-68.89V71.89Z"
                transform="translate(0.15 0.08)" />
            <path class="cls-10"
                d="M163.31,71.89v64.86a72.55,72.55,0,0,1-49.92,68.89l-2.39.75V57h22.42v7.47a7.4,7.4,0,0,0,7.47,7.47Z"
                transform="translate(0.15 0.08)" />
            <path class="cls-11"
                d="M111,190.63a58.05,58.05,0,0,1-26.46-20.2,57,57,0,0,1-10.9-33.68V86.83h7.47a22.46,22.46,0,0,0,21.14-14.94h17.5a22.46,22.46,0,0,0,21.14,14.94h7.47v49.92a57,57,0,0,1-10.9,33.68A58.05,58.05,0,0,1,111,190.63Z"
                transform="translate(0.15 0.08)" />
            <path class="cls-9"
                d="M119.75,71.89H111V190.63a58.05,58.05,0,0,0,26.46-20.2,57,57,0,0,0,10.9-33.68V86.83h-7.47A22.46,22.46,0,0,1,119.75,71.89Z"
                transform="translate(0.15 0.08)" />
            <g class="cls-12">
                <path class="cls-9"
                    d="M91.4,100.74a19.88,19.88,0,0,0,19.88,19.88h0l4.42-19.88-4.42-19.88h0A19.88,19.88,0,0,0,91.4,100.74Z"
                    transform="translate(0.15 0.08)" />
                <path class="cls-11" d="M111.28,80.86v39.76a19.88,19.88,0,0,0,0-39.76Z"
                    transform="translate(0.15 0.08)" />
                <path class="cls-11"
                    d="M99.43,100.74a11.86,11.86,0,0,0,11.85,11.84h0l4.42-11.84-4.42-11.85h0A11.87,11.87,0,0,0,99.43,100.74Z"
                    transform="translate(0.15 0.08)" />
                <path class="cls-13" d="M111.28,88.89v23.69a11.85,11.85,0,0,0,0-23.69Z"
                    transform="translate(0.15 0.08)" />
                <polygon class="cls-10" points="83.8 193.51 88.35 176.93 66.38 181.48 66.38 193.51 83.8 193.51" />
                <polygon class="cls-9"
                    points="105.77 187.5 101.22 181.48 83.8 176.93 83.8 193.51 101.22 193.51 105.77 187.5" />
                <polygon class="cls-10"
                    points="101.22 193.51 118.64 193.51 123.19 176.93 101.22 181.48 101.22 193.51" />
                <polygon class="cls-9"
                    points="118.64 176.93 118.64 193.51 136.05 193.51 140.61 187.5 136.05 181.48 118.64 176.93" />
                <polygon class="cls-10"
                    points="136.05 193.51 153.47 193.51 158.02 176.93 136.05 181.48 136.05 193.51" />
                <rect class="cls-9" x="153.47" y="181.48" width="17.42" height="12.03" />
                <polygon class="cls-11"
                    points="76.8 181.48 81.35 164.9 66.38 169.45 59.38 169.45 59.38 181.48 76.8 181.48" />
                <polygon class="cls-13"
                    points="98.77 174.85 94.22 169.45 76.8 164.9 76.8 181.48 94.22 181.48 98.77 174.85" />
                <polygon class="cls-11" points="94.22 181.48 111.63 181.48 116.19 164.9 94.22 169.45 94.22 181.48" />
                <polygon class="cls-13"
                    points="111.63 164.9 111.63 181.48 129.05 181.48 133.6 174.85 129.05 169.45 111.63 164.9" />
                <polygon class="cls-11" points="129.05 181.48 146.47 181.48 151.02 164.9 129.05 169.45 129.05 181.48" />
                <polygon class="cls-13" points="146.47 164.9 146.47 181.48 163.89 181.48 163.89 169.45 146.47 164.9" />
                <polygon class="cls-10" points="83.8 169.45 88.35 152.86 66.38 157.41 66.38 169.45 83.8 169.45" />
                <polygon class="cls-9"
                    points="105.77 163.43 101.22 157.41 83.8 152.86 83.8 169.45 101.22 169.45 105.77 163.43" />
                <polygon class="cls-10"
                    points="118.64 169.45 123.19 152.86 101.22 157.41 101.22 169.45 118.64 169.45" />
                <polygon class="cls-9"
                    points="140.61 163.43 136.05 157.41 118.64 152.86 118.64 169.45 136.05 169.45 140.61 163.43" />
                <polygon class="cls-10"
                    points="153.47 169.45 158.02 152.86 136.05 157.41 136.05 169.45 153.47 169.45" />
                <rect class="cls-9" x="153.47" y="157.41" width="17.42" height="12.03" />
                <polygon class="cls-11"
                    points="59.38 157.41 76.8 157.41 81.35 151.4 76.8 145.38 59.38 145.38 59.38 157.41" />
                <polygon class="cls-13"
                    points="76.8 145.38 76.8 157.41 94.22 157.41 98.77 151.4 94.22 145.38 76.8 145.38" />
                <polygon class="cls-11"
                    points="111.63 157.41 116.19 140.83 101.22 145.38 94.22 145.38 94.22 157.41 111.63 157.41" />
                <polygon class="cls-13"
                    points="133.6 150.79 129.05 145.38 111.63 140.83 111.63 157.41 129.05 157.41 133.6 150.79" />
                <polygon class="cls-11"
                    points="129.05 157.41 146.47 157.41 151.02 140.83 129.05 145.38 129.05 157.41" />
                <polygon class="cls-13"
                    points="146.47 140.83 146.47 157.41 163.89 157.41 163.89 145.38 146.47 140.83" />
                <polygon class="cls-10" points="101.22 145.38 118.64 145.38 123.19 128.8 101.22 133.35 101.22 145.38" />
                <polygon class="cls-9"
                    points="129.05 133.35 118.64 128.8 118.64 145.38 136.05 145.38 140.61 139.37 136.05 133.35 129.05 133.35" />
                <polygon class="cls-10"
                    points="136.05 145.38 153.47 145.38 158.02 139.37 153.47 133.35 136.05 133.35 136.05 145.38" />
                <rect class="cls-9" x="153.47" y="133.35" width="17.42" height="12.03" />
                <polygon class="cls-11"
                    points="94.22 133.35 111.63 133.35 116.19 127.33 111.63 121.32 94.22 121.32 94.22 133.35" />
                <rect class="cls-13" x="111.64" y="121.32" width="17.42" height="12.03" />
            </g>
        </g>
    </svg>