<svg xmlns="http://www.w3.org/2000/svg" width="30" height="30" viewBox="0 0 30 30">
  <g id="Group_22" data-name="Group 22" transform="translate(-301.053 -218.68)">
    <circle id="Ellipse_18" data-name="Ellipse 18" cx="14.455" cy="14.455" r="14.455" transform="translate(301.598 219.226)" fill="#8bc4ff"/>
    <ellipse id="Ellipse_19" data-name="Ellipse 19" cx="13.636" cy="14.455" rx="13.636" ry="14.455" transform="translate(301.598 219.226)" fill="#b9dcff"/>
    <path id="Path_94" data-name="Path 94" d="M316.053,248.135c.141,0,.28-.007.421-.011-7.347-.223-13.24-6.6-13.24-14.444s5.893-14.22,13.24-14.444c-.141,0-.28-.01-.421-.01a14.454,14.454,0,1,0,0,28.909Z" fill="#fff"/>
    <path id="Path_95" data-name="Path 95" d="M311.75,241.891l-4.313,2.352a3.866,3.866,0,0,0-.692.493,14.446,14.446,0,0,0,18.561.047,3.888,3.888,0,0,0-.761-.509l-4.618-2.309a1.763,1.763,0,0,1-.974-1.576v-1.812a6.763,6.763,0,0,0,.437-.562,10.64,10.64,0,0,0,1.436-2.893,1.45,1.45,0,0,0,1.028-1.38v-1.934a1.439,1.439,0,0,0-.483-1.071v-2.8s.574-4.352-5.318-4.352-5.319,4.352-5.319,4.352v2.8a1.442,1.442,0,0,0-.483,1.071v1.934a1.452,1.452,0,0,0,.668,1.217,9.591,9.591,0,0,0,1.749,3.618v1.767A1.762,1.762,0,0,1,311.75,241.891Z" fill="#8bc4ff"/>
    <path id="Path_96" data-name="Path 96" d="M324.292,244.236l-6.076-2.309a1.761,1.761,0,0,1-.973-1.575V238.54a6.978,6.978,0,0,0,.437-.562,10.622,10.622,0,0,0,1.435-2.893,1.452,1.452,0,0,0,1.029-1.38v-1.934a1.446,1.446,0,0,0-.484-1.072v-2.8s.574-4.351-5.318-4.351c-.351,0-.677.016-.984.046a.631.631,0,0,1-.387.663,15.162,15.162,0,0,0-2.043,1.023.561.561,0,0,1,.465.555,19.963,19.963,0,0,1-1.194,6.419c.019.808.036,1.616.06,2.425.06.186.119.373.178.559a.633.633,0,0,1,.253.293c.249.593.527,1.2.768,1.821a.668.668,0,0,1,.8.4,7.268,7.268,0,0,1,.4,1.861.468.468,0,0,1-.235.472,8.142,8.142,0,0,1-1.506,2.877.595.595,0,0,1-.986-.26,3.006,3.006,0,0,1-.071-.309c-.406.241-.841.452-1.31.715a12.882,12.882,0,0,0-2.215,1.238c-.271,1.234,4.055,2.765,6.227,3.63a14.784,14.784,0,0,0,1.784.123c3.52,0,8.2-1.26,10.711-3.352a3.938,3.938,0,0,0-.761-.51Z" fill="#b9dcff"/>
    <g id="Group_21" data-name="Group 21">
      <path id="Path_97" data-name="Path 97" d="M316.053,248.68a15,15,0,1,1,15-15A15,15,0,0,1,316.053,248.68Zm0-28.909a13.909,13.909,0,1,0,13.909,13.909A13.909,13.909,0,0,0,316.053,219.771Z" fill="#2a21af"/>
      <path id="Path_98" data-name="Path 98" d="M316.053,248.68a15.014,15.014,0,0,1-9.66-3.527.545.545,0,0,1-.007-.828,4.37,4.37,0,0,1,.79-.561l4.313-2.352a1.216,1.216,0,0,0,.634-1.068v-1.578a10.249,10.249,0,0,1-1.687-3.485,1.987,1.987,0,0,1-.731-1.539v-1.934a1.992,1.992,0,0,1,.484-1.292V227.97a4.4,4.4,0,0,1,1.027-3.2c1.005-1.147,2.632-1.728,4.837-1.728s3.831.581,4.836,1.728a4.4,4.4,0,0,1,1.027,3.2v2.546a1.986,1.986,0,0,1,.484,1.292v1.934a1.979,1.979,0,0,1-1.137,1.794,11.154,11.154,0,0,1-1.427,2.794c-.117.165-.23.314-.337.446v1.613a1.209,1.209,0,0,0,.672,1.087l4.618,2.309a4.416,4.416,0,0,1,.868.581.545.545,0,0,1,0,.836A15.013,15.013,0,0,1,316.053,248.68Zm-8.412-3.926a13.9,13.9,0,0,0,16.753.055l-.092-.048-4.619-2.309a2.294,2.294,0,0,1-1.275-2.063v-1.812a.549.549,0,0,1,.135-.36,6.271,6.271,0,0,0,.4-.517,10.114,10.114,0,0,0,1.362-2.745.546.546,0,0,1,.358-.354.911.911,0,0,0,.644-.859v-1.934a.891.891,0,0,0-.3-.667.545.545,0,0,1-.18-.4v-2.8a.583.583,0,0,1,0-.072,3.337,3.337,0,0,0-.771-2.389,5.148,5.148,0,0,0-4.006-1.345c-1.876,0-3.228.456-4.017,1.356a3.29,3.29,0,0,0-.761,2.378.577.577,0,0,1,.005.072v2.8a.546.546,0,0,1-.18.4.894.894,0,0,0-.3.667v1.934a.9.9,0,0,0,.419.759.545.545,0,0,1,.236.336,9.115,9.115,0,0,0,1.637,3.391.548.548,0,0,1,.126.349v1.767a2.307,2.307,0,0,1-1.2,2.026h0l-4.313,2.352Z" fill="#2a21af"/>
    </g>
  </g>
</svg>
