<svg xmlns="http://www.w3.org/2000/svg" width="46" height="46" viewBox="0 0 46 46">
  <g id="Group_81" data-name="Group 81" transform="translate(-392 -280)">
    <circle id="Ellipse_20" data-name="Ellipse 20" cx="23" cy="23" r="23" transform="translate(392 280)" fill="#fff"/>
    <path id="Path_116" data-name="Path 116" d="M215.114,215.1a4.618,4.618,0,0,0-2.441-3.46,19.431,19.431,0,0,0-2.036-.835c.08-.057.133-.113.186-.142,3.342-1.839,2.886-7.07.361-8.788a8.936,8.936,0,0,0-3.329-1.367c-.847-.165-1.693-.275-2.566-.385-.045-1.52-.081-3.611-.132-5.295l-3.176.1c.023,1.657.084,3.693.1,5.187l-2.552.076c-.044-1.493-.079-3.53-.128-5.186l-3.149.1c.023,1.684.086,3.774.1,5.268-2.172.038-4.263.1-6.436.139.036,1.168.041,2.254.075,3.4.462-.014.869-.026,1.25-.011.407-.012.814-.024,1.2-.008a1.625,1.625,0,0,1,1.737,1.741c.082,4.535.165,9.1.274,13.633.03,1-.393,1.4-1.37,1.427l-2.118.063c-.179,1.283-.359,2.511-.538,3.794l6.437-.112c.049,1.629.084,3.693.135,5.4l3.176-.1c-.024-1.711-.084-3.72-.105-5.323.9,0,1.712,0,2.554.005.049,1.629.082,3.612.131,5.268l3.177-.1c-.025-1.711-.085-3.72-.1-5.3.108-.03.189-.032.27-.062,1.513-.29,3.056-.472,4.512-.869a5.984,5.984,0,0,0,4.157-3.631A9.16,9.16,0,0,0,215.114,215.1ZM199.7,203.931c1.982-.059,3.9-.28,5.721.481a2.6,2.6,0,0,1,1.79,2.609,2.734,2.734,0,0,1-1.986,2.614,15.122,15.122,0,0,1-5.416.625C199.771,208.2,199.736,206.131,199.7,203.931Zm7.4,15.647a13.488,13.488,0,0,1-5.459.98c-.516.015-1.033,0-1.6.021-.044-2.363-.086-4.672-.13-7.034,2.417-.073,4.8-.335,7.084.6a2.905,2.905,0,0,1,.108,5.431Z" transform="translate(212.08 91.173)" fill="#382094"/>
  </g>
</svg>
