<svg xmlns="http://www.w3.org/2000/svg" width="28.011" height="30" viewBox="0 0 28.011 30">
  <g id="Group_19" data-name="Group 19" transform="translate(-351.047 -218.711)">
    <path id="Path_66" data-name="Path 66" d="M360.066,219.3a2.667,2.667,0,0,0-2.894,2.894v23.484l.33.513h11.65l-.293.879.733.22.732.733,1.246-1.832h2.858l1.172,1.685.806-.659.733-.074-.44-1.1s1.539.147,1.685-1.1V222.814s.073-3.37-4.1-3.517S360.066,219.3,360.066,219.3Z" fill="#8bc4ff"/>
    <circle id="Ellipse_17" data-name="Ellipse 17" cx="2.381" cy="2.381" r="2.381" transform="translate(370.544 239.374)" fill="#b9dcff"/>
    <g id="Group_18" data-name="Group 18">
      <path id="Path_67" data-name="Path 67" d="M368.054,229.2a.5.5,0,0,0,.5.5h5a.5.5,0,0,0,0-1h-5a.5.5,0,0,0-.5.5Zm0,0" fill="#2a21af"/>
      <path id="Path_68" data-name="Path 68" d="M371.055,232.2a.5.5,0,0,0,.5.5h3a.5.5,0,0,0,0-1h-3a.5.5,0,0,0-.5.5Zm0,0" fill="#2a21af"/>
      <path id="Path_69" data-name="Path 69" d="M370.555,226.7a.5.5,0,0,0,0-1h-1a.5.5,0,0,0,0,1Zm0,0" fill="#2a21af"/>
      <path id="Path_70" data-name="Path 70" d="M364.552,231.7a.5.5,0,0,0,0,1h5a.5.5,0,1,0,0-1Zm0,0" fill="#2a21af"/>
      <path id="Path_71" data-name="Path 71" d="M367.053,245.71h-9.5a1.5,1.5,0,0,1-1.5-1.5V221.2a.5.5,0,0,0-.5-.5,2.5,2.5,0,0,0-2.5,2.5.5.5,0,0,0,1,0,1.5,1.5,0,0,1,1-1.415v22.423a2.5,2.5,0,0,0,2.5,2.5h9.5a.5.5,0,1,0,0-1Zm0,0" fill="#2a21af"/>
      <path id="Path_72" data-name="Path 72" d="M359.551,229.7h7a.5.5,0,0,0,0-1h-7a.5.5,0,1,0,0,1Zm0,0" fill="#2a21af"/>
      <path id="Path_73" data-name="Path 73" d="M359.551,226.7h2a.5.5,0,1,0,0-1h-2a.5.5,0,1,0,0,1Zm0,0" fill="#2a21af"/>
      <path id="Path_74" data-name="Path 74" d="M367.554,225.7h-4a.5.5,0,0,0,0,1h4a.5.5,0,0,0,0-1Zm0,0" fill="#2a21af"/>
      <path id="Path_75" data-name="Path 75" d="M374.557,218.711H355.549a4.507,4.507,0,0,0-4.5,4.484v.023a4.52,4.52,0,0,0,2.25,3.882.5.5,0,1,0,.5-.865,3.495,3.495,0,0,1,1.75-6.524h19.008a3.506,3.506,0,0,1,3.5,3.5v21.009a1.452,1.452,0,0,1-.205.735.5.5,0,1,0,.863.507,2.453,2.453,0,0,0,.342-1.242V223.212a4.506,4.506,0,0,0-4.5-4.5Zm0,0" fill="#2a21af"/>
      <path id="Path_76" data-name="Path 76" d="M376.057,241.708a3,3,0,1,0-3,3,3,3,0,0,0,3-3Zm-3,2a2,2,0,1,1,2-2,2,2,0,0,1-2,2Zm0,0" fill="#2a21af"/>
      <path id="Path_77" data-name="Path 77" d="M372.153,245.21a.5.5,0,0,0-.683.183l-1.077,1.866-.171-.258a.5.5,0,0,0-.387-.223l-.31-.019,1.1-1.9a.5.5,0,1,0-.866-.5l-1.5,2.6a.5.5,0,0,0,.4.749l.867.052.479.725a.5.5,0,0,0,.417.224h.015a.5.5,0,0,0,.418-.25l1.483-2.567a.5.5,0,0,0-.184-.683Zm0,0" fill="#2a21af"/>
      <path id="Path_78" data-name="Path 78" d="M376.371,244.387a.5.5,0,0,0-.867.5l1.082,1.872-.309.019a.5.5,0,0,0-.387.223l-.17.258-1.072-1.857a.5.5,0,0,0-.867.5l1.477,2.557a.5.5,0,0,0,.418.251h.015a.5.5,0,0,0,.418-.225l.478-.724.867-.053a.5.5,0,0,0,.4-.749Zm0,0" fill="#2a21af"/>
      <path id="Path_79" data-name="Path 79" d="M359.551,232.7h3a.5.5,0,0,0,0-1h-3a.5.5,0,1,0,0,1Zm0,0" fill="#2a21af"/>
      <path id="Path_80" data-name="Path 80" d="M359.551,235.706h6a.5.5,0,0,0,0-1h-6a.5.5,0,1,0,0,1Zm0,0" fill="#2a21af"/>
      <path id="Path_81" data-name="Path 81" d="M359.6,241.932a.5.5,0,1,0,.895-.448,2.656,2.656,0,0,1-.3-2.377.924.924,0,0,1,.851-.4.406.406,0,0,1,.384.162c.372.537.018,2.173-.352,3.164a.5.5,0,0,0,.822.529c.214-.213.445-.426.647-.6v.244a.5.5,0,0,0,.854.354,6.214,6.214,0,0,1,.716-.613l-.018.036a.5.5,0,0,0,.448.724h2a.5.5,0,0,0,0-1h-1.3a.96.96,0,0,0-.09-.675.7.7,0,0,0-.609-.325,1.946,1.946,0,0,0-1,.421.58.58,0,0,0-.351-.479c-.134-.055-.306-.127-.723.124a3.467,3.467,0,0,0-.217-2.475,1.389,1.389,0,0,0-1.206-.592,1.911,1.911,0,0,0-1.7.874,3.528,3.528,0,0,0,.255,3.351Zm0,0" fill="#2a21af"/>
      <path id="Path_82" data-name="Path 82" d="M373.056,235.206a.5.5,0,0,0-.5-.5h-5a.5.5,0,1,0,0,1h5a.5.5,0,0,0,.5-.5Zm0,0" fill="#2a21af"/>
    </g>
  </g>
</svg>
