<svg xmlns="http://www.w3.org/2000/svg" width="19.974" height="20" viewBox="0 0 19.974 20">
  <g id="Group_41" data-name="Group 41" transform="translate(-379.63 -276.001)">
    <path id="Path_134" data-name="Path 134" d="M390.908,282.211a1.833,1.833,0,1,0-1.834-1.834A1.835,1.835,0,0,0,390.908,282.211Zm0-2.887a1.053,1.053,0,1,1-1.053,1.053A1.055,1.055,0,0,1,390.908,279.324Z" fill="#fff"/>
    <path id="Path_135" data-name="Path 135" d="M387.122,279.668a1.833,1.833,0,1,0-1.833-1.834A1.836,1.836,0,0,0,387.122,279.668Zm0-2.887a1.053,1.053,0,1,1-1.053,1.053A1.054,1.054,0,0,1,387.122,276.781Z" fill="#fff"/>
    <path id="Path_136" data-name="Path 136" d="M392.56,277.431h.221v.222a.391.391,0,0,0,.781,0v-.222h.221a.39.39,0,1,0,0-.78h-.221v-.222a.391.391,0,0,0-.781,0v.222h-.221a.39.39,0,1,0,0,.78Z" fill="#fff"/>
    <path id="Path_137" data-name="Path 137" d="M385.47,280.206v1.58a.391.391,0,0,0,.781,0v-1.58a.391.391,0,1,0-.781,0Z" fill="#fff"/>
    <path id="Path_138" data-name="Path 138" d="M381.269,295.2a.859.859,0,0,1-.859-.858v-10.7a1.633,1.633,0,0,0,.859.244H392.32a6.422,6.422,0,0,1,3.387.025,1.636,1.636,0,0,0-1.4-.806h-5.756v-1.19a.391.391,0,0,0-.781,0v1.19h-6.5a.859.859,0,1,1,0-1.717h2.582a.39.39,0,0,0,0-.78h-2.582a1.641,1.641,0,0,0-1.639,1.639c0,.021,0,.043,0,.064v12.034a1.641,1.641,0,0,0,1.639,1.639h9.21a6.691,6.691,0,0,1-1.023-.78Z" fill="#fff"/>
    <path id="Path_139" data-name="Path 139" d="M398.049,282.245a1.641,1.641,0,0,0-1.639-1.639h-2.283a.39.39,0,1,0,0,.78h2.283a.86.86,0,0,1,.859.859v2.314a6.668,6.668,0,0,1,.78.527Z" fill="#fff"/>
    <g id="Group_40" data-name="Group 40">
      <path id="Path_140" data-name="Path 140" d="M395.82,291.238l-1.434,1.435v-5.686a.428.428,0,1,0-.856,0v5.686l-1.434-1.435a.428.428,0,0,0-.606.6l2.165,2.166a.441.441,0,0,0,.605,0l2.165-2.165a.428.428,0,1,0-.6-.606Z" fill="#fff"/>
      <path id="Path_141" data-name="Path 141" d="M393.958,285.487a4.857,4.857,0,1,1-4.847,4.857,4.858,4.858,0,0,1,4.847-4.857m0-.8a5.657,5.657,0,1,0,5.646,5.657,5.652,5.652,0,0,0-5.646-5.657Z" fill="#fff"/>
    </g>
  </g>
</svg>
