<svg xmlns="http://www.w3.org/2000/svg" width="30" height="30" viewBox="0 0 30 30">
  <g id="Group_17" data-name="Group 17" transform="translate(-251.316 -219.289)">
    <path id="Path_53" data-name="Path 53" d="M266.3,231.882a6.787,6.787,0,1,0-6.772,7.246c.082,0,.163,0,.245,0h0a6.792,6.792,0,0,1,6.3-4.973,6.816,6.816,0,0,0,.245-1.816c0-.154-.005-.3-.018-.453Zm0-.5" fill="#8bc4ff"/>
    <path id="Path_54" data-name="Path 54" d="M269.713,226.326a6.134,6.134,0,0,1,3-.784,6.619,6.619,0,0,1,6.426,6.793,7.021,7.021,0,0,1-1.285,4.076,6.32,6.32,0,0,1-5.141,2.717c-.077,0-.158,0-.235,0a6.5,6.5,0,0,0-6.19-4.977c-.077,0-.154,0-.232,0a7.2,7.2,0,0,0,.232-1.816,6.95,6.95,0,0,1,1.713-4.61,6.374,6.374,0,0,1,1.714-1.4Zm0,0" fill="#8bc4ff"/>
    <path id="Path_55" data-name="Path 55" d="M273.574,227.515l2.9,4.355-2.9.968Zm0,0" fill="#b9dcff"/>
    <path id="Path_56" data-name="Path 56" d="M273.574,232.838v3.387l-2.9-4.355Zm0,0" fill="#b9dcff"/>
    <path id="Path_57" data-name="Path 57" d="M276.477,231.87l-2.9,4.355v-3.387Zm0,0" fill="#b9dcff"/>
    <path id="Path_58" data-name="Path 58" d="M273.574,227.515v5.323l-2.9-.968Zm0,0" fill="#b9dcff"/>
    <path id="Path_59" data-name="Path 59" d="M273.308,239.123a7.158,7.158,0,0,1,.266,1.941,7.258,7.258,0,1,1-14.516,0,7.157,7.157,0,0,1,.266-1.941,7.261,7.261,0,0,1,6.73-5.313c.088,0,.175,0,.262,0a7.262,7.262,0,0,1,6.992,5.317Zm0,0" fill="#8bc4ff"/>
    <path id="Path_60" data-name="Path 60" d="M266.335,235.741h-.019a5.309,5.309,0,0,0-3.407,1.234l-.682.682a5.322,5.322,0,0,0,4.069,8.729h.02a5.3,5.3,0,0,0,3.406-1.234l.683-.682a5.322,5.322,0,0,0-4.07-8.729Zm0,0" fill="#b9dcff"/>
    <path id="Path_61" data-name="Path 61" d="M265.832,236.709v.968H264.38v6.774h1.452v.968h.968v-.968a1.935,1.935,0,0,0,1.279-3.387,1.935,1.935,0,0,0-1.279-3.387v-.968Zm.968,6.774h-1.452v-1.935H266.8a.967.967,0,0,1,0,1.935Zm.967-3.871a.969.969,0,0,1-.967.968h-1.452v-1.936H266.8a.969.969,0,0,1,.967.968Zm0,0" fill="#2a21af"/>
    <path id="Path_62" data-name="Path 62" d="M281.316,231.87a7.731,7.731,0,0,0-10.645-7.172V223.16H269.7v2.016a7.828,7.828,0,0,0-.968.66v-3.643h-.968v4.574a7.753,7.753,0,0,0-.967,1.364v-8.842h-.968v8.841a7.744,7.744,0,0,0-.968-1.364v-4.573H263.9v3.643a7.812,7.812,0,0,0-.967-.66V223.16h-.968V224.7a7.73,7.73,0,0,0-9.194,11.668V243h.968v-5.521a7.9,7.9,0,0,0,.968.789v6.668h.968v-6.114a7.734,7.734,0,0,0,.967.4v8.134h.968v-7.883a7.817,7.817,0,0,0,1.112.124,7.742,7.742,0,1,0,15.2,0,7.786,7.786,0,0,0,1.111-.124v7.883h.968V239.22a7.9,7.9,0,0,0,.968-.4v6.113h.968v-6.669a7.8,7.8,0,0,0,.967-.789V243h.968v-6.633a7.69,7.69,0,0,0,1.452-4.5ZM259.058,225.1a6.777,6.777,0,0,1,6.7,5.806h-4.092l-.635,1.271-1.5-3.5-1.813,4.534-1.406-5.625-1.9,3.806h-2.1a6.778,6.778,0,0,1,6.75-6.29Zm-6.75,7.258H255l1-2,1.5,5.989,2.058-5.144,1.4,3.273,1.3-2.6h3.572a6.789,6.789,0,0,1-.167,1.485,7.751,7.751,0,0,0-6.7,5.285,6.777,6.777,0,0,1-6.66-6.286Zm14.008,15.484a6.774,6.774,0,1,1,6.774-6.774,6.781,6.781,0,0,1-6.774,6.774Zm7.347-9.2a7.75,7.75,0,0,0-6.7-5.285,6.774,6.774,0,1,1,6.7,5.285Zm0,0" fill="#2a21af"/>
    <path id="Path_63" data-name="Path 63" d="M266.316,235.257A5.816,5.816,0,0,0,262.6,236.6l.619.744a4.838,4.838,0,0,1,6.814,6.813l.743.62a5.806,5.806,0,0,0-4.461-9.522Zm0,0" fill="#2a21af"/>
    <path id="Path_64" data-name="Path 64" d="M266.316,245.9a4.837,4.837,0,0,1-3.718-7.934l-.743-.62a5.806,5.806,0,0,0,8.176,8.177l-.62-.743a4.846,4.846,0,0,1-3.1,1.12Zm0,0" fill="#2a21af"/>
    <path id="Path_65" data-name="Path 65" d="M270.089,231.87l3.485,5.227,3.485-5.227-3.485-5.227Zm3,.3-1.665-.555,1.665-2.5Zm0,1.021v1.44l-1.234-1.852Zm.968,0,1.234-.411-1.234,1.851Zm0-1.021v-3.053l1.665,2.5Zm0,0" fill="#2a21af"/>
    <rect id="Rectangle_12" data-name="Rectangle 12" width="0.968" height="0.968" transform="translate(252.767 243.967)" fill="#2a21af"/>
    <rect id="Rectangle_13" data-name="Rectangle 13" width="0.968" height="0.968" transform="translate(254.703 245.902)" fill="#2a21af"/>
    <rect id="Rectangle_14" data-name="Rectangle 14" width="0.968" height="0.968" transform="translate(256.638 248.322)" fill="#2a21af"/>
    <rect id="Rectangle_15" data-name="Rectangle 15" width="0.968" height="0.968" transform="translate(278.896 243.967)" fill="#2a21af"/>
    <rect id="Rectangle_16" data-name="Rectangle 16" width="0.968" height="0.968" transform="translate(276.961 245.902)" fill="#2a21af"/>
    <rect id="Rectangle_17" data-name="Rectangle 17" width="0.968" height="0.968" transform="translate(275.025 248.322)" fill="#2a21af"/>
    <rect id="Rectangle_18" data-name="Rectangle 18" width="0.968" height="0.968" transform="translate(263.896 220.257)" fill="#2a21af"/>
    <rect id="Rectangle_19" data-name="Rectangle 19" width="0.968" height="0.968" transform="translate(267.767 220.257)" fill="#2a21af"/>
  </g>
</svg>
