<svg xmlns="http://www.w3.org/2000/svg" width="46" height="46" viewBox="0 0 46 46">
  <g id="Group_82" data-name="Group 82" transform="translate(-1050 -280)">
    <circle id="Ellipse_22" data-name="Ellipse 22" cx="23" cy="23" r="23" transform="translate(1050 280)" fill="#fff"/>
    <path id="Path_117" data-name="Path 117" d="M29.079,7.348,21.248,2.8a8.377,8.377,0,0,0-8.392,0L5.006,7.328A8.386,8.386,0,0,0,.8,14.6V23.65a8.386,8.386,0,0,0,4.206,7.27l7.851,4.546a8.377,8.377,0,0,0,8.392,0L29.1,30.94A8.386,8.386,0,0,0,33.3,23.67V14.618A8.447,8.447,0,0,0,29.079,7.348Zm-.6,14.9c.02,3.525-2.924,5.568-4.947,6.489a1.779,1.779,0,0,1-2.564-1.262c-.581-3.785-1.983-6.349-5.708-7.39-.5-.14-.881.32-.8.841.4,2.624,1.242,4.887-.1,7.35-.4.741-1.542.741-2.323.441-2.023-.8-6.108-2.844-6.148-6.469l.04-5.868c-.06-3.2,2.5-5.628,4.666-6.569a1.734,1.734,0,0,1,2.5,1.2c.521,3.144,1.9,6.269,5.888,7.33a.67.67,0,0,0,.781-.881c-.641-2.163-.981-5.588.06-7.37a1.841,1.841,0,0,1,2.323-.521c2.423.9,6.349,2.684,6.349,6.809Z" transform="translate(1056.2 284.325)" fill="#382094"/>
  </g>
</svg>
