<svg xmlns="http://www.w3.org/2000/svg" width="26.772" height="30" viewBox="0 0 26.772 30">
  <g id="Group_66" data-name="Group 66" transform="translate(-193.239 -280.325)">
    <path id="Path_176" data-name="Path 176" d="M205.147,280.721l-10.43,6.021a2.958,2.958,0,0,0-1.478,2.561v12.043a2.956,2.956,0,0,0,1.478,2.561l10.43,6.021a2.951,2.951,0,0,0,2.956,0l10.43-6.021a2.956,2.956,0,0,0,1.478-2.561V289.3a2.958,2.958,0,0,0-1.478-2.561l-10.43-6.021A2.956,2.956,0,0,0,205.147,280.721Z" fill="#fff"/>
    <path id="Path_177" data-name="Path 177" d="M204.348,301.252l-5.358-5.358a1.138,1.138,0,0,1,1.61-1.61l3.748,3.748,8.3-8.3a1.138,1.138,0,0,1,1.61,1.609Z" fill="#382094"/>
  </g>
</svg>
