<svg xmlns="http://www.w3.org/2000/svg" width="30" height="24.931" viewBox="0 0 30 24.931">
  <g id="Group_23" data-name="Group 23" transform="translate(-410.003 -220.999)">
    <path id="Path_99" data-name="Path 99" d="M428.57,229.066l-3.551-4.987-.022-.022a8.437,8.437,0,0,0-2.217-1.6,8.44,8.44,0,0,0-5.433,14.391l.221.22,9.549,8.4,1.554-1.263a1.623,1.623,0,0,0-.4-1.636l-2.439-2.439.02-.02,2.439,2.438a3.628,3.628,0,0,1,4.589-2.294,1.622,1.622,0,1,1,2.294-2.294,1.621,1.621,0,0,0,0-2.294Zm0,0" fill="#b9dcff"/>
    <path id="Path_100" data-name="Path 100" d="M437.6,224.8a8.6,8.6,0,0,0-.653-.733,8.441,8.441,0,0,0-11.935,0l-4.035,4.035a1.932,1.932,0,1,0,2.732,2.732l1.767-1.767h.112l2.55-2.55A8.442,8.442,0,0,1,437.6,224.8Zm0,0" fill="#8bc4ff"/>
    <path id="Path_101" data-name="Path 101" d="M430.71,227.572l-1.31,1.091a3.461,3.461,0,0,0,.831-.613Zm0,0" fill="#8bc4ff"/>
    <path id="Path_102" data-name="Path 102" d="M429.4,228.663l1.31-1.091-.479.478a3.461,3.461,0,0,1-.831.613l-.773.644,6.907,6.907.278.922L436.948,236a8.441,8.441,0,0,0,.653-11.2,8.443,8.443,0,0,0-9.462,1.717l-2.55,2.55h2.2a3.462,3.462,0,0,0,1.614-.4Zm0,0" fill="#8bc4ff"/>
    <path id="Path_103" data-name="Path 103" d="M421.939,241.277l-1.01,1.01a1.622,1.622,0,1,0,2.3,2.294l1.01-1.01a1.622,1.622,0,1,0-2.3-2.294Zm0,0" fill="#8bc4ff"/>
    <path id="Path_104" data-name="Path 104" d="M419.645,238.983l-1.01,1.01a1.622,1.622,0,0,0,2.294,2.294l1.01-1.01a1.622,1.622,0,0,0-2.294-2.294Zm0,0" fill="#8bc4ff"/>
    <path id="Path_105" data-name="Path 105" d="M417.351,236.689l-1.01,1.01a1.622,1.622,0,1,0,2.294,2.294l1.01-1.01a1.622,1.622,0,0,0-2.294-2.294Zm0,0" fill="#8bc4ff"/>
    <path id="Path_106" data-name="Path 106" d="M415.057,234.4l-1.01,1.01a1.622,1.622,0,1,0,2.294,2.294l1.01-1.01a1.622,1.622,0,0,0-2.294-2.294Zm0,0" fill="#8bc4ff"/>
    <path id="Path_107" data-name="Path 107" d="M437,223.455a.586.586,0,1,0,.414.172.588.588,0,0,0-.414-.172Zm0,0" fill="#2e58ff"/>
    <path id="Path_108" data-name="Path 108" d="M423.539,237.255a.586.586,0,1,0,.414.172.591.591,0,0,0-.414-.172Zm0,0" fill="#2e58ff"/>
    <path id="Path_109" data-name="Path 109" d="M438.831,225.573a.586.586,0,1,0-1.019.579,7.873,7.873,0,0,1-1.278,9.433l-.445.444a2.185,2.185,0,0,0-.5-.772l-6.022-6.021a4.054,4.054,0,0,0,1.078-.772l1.154-1.155a.585.585,0,0,0-.828-.828l-1.155,1.155a2.856,2.856,0,0,1-2.031.841h-2.309a.586.586,0,0,0-.414.172l-1.767,1.767a1.346,1.346,0,0,1-1.9-1.9l4.035-4.034a7.886,7.886,0,0,1,9.36-1.319.586.586,0,1,0,.569-1.025,9.094,9.094,0,0,0-5.573-1.049,8.918,8.918,0,0,0-4.775,2.179,9.026,9.026,0,0,0-12.361,13.144l.221.22a.576.576,0,0,0,.126.1,2.2,2.2,0,0,0,2.2,2.035l.088,0c0,.03,0,.059,0,.089a2.207,2.207,0,0,0,2.208,2.207l.088,0c0,.03,0,.059,0,.089a2.206,2.206,0,0,0,2.208,2.207l.089,0A2.207,2.207,0,0,0,423.638,245l.819-.819,1.106,1.106a2.207,2.207,0,0,0,3.766-1.672c.037,0,.073,0,.11,0a2.2,2.2,0,0,0,2.205-2.295l.09,0a2.207,2.207,0,0,0,2.2-2.3l.089,0a2.205,2.205,0,0,0,2.04-1.364.592.592,0,0,0,.158-.112l1.137-1.136a9.049,9.049,0,0,0,1.468-10.841Zm-23.637,12.015a1.037,1.037,0,0,1-.733-1.769l1.01-1.01a1.037,1.037,0,1,1,1.466,1.466l-1.01,1.01a1.033,1.033,0,0,1-.733.3Zm1.561,1.991a1.038,1.038,0,0,1,0-1.466l1.01-1.009h0a1.037,1.037,0,0,1,1.466,1.466l-1.01,1.01a1.038,1.038,0,0,1-1.466,0Zm2.295,2.294a1.036,1.036,0,0,1,0-1.466l1.01-1.009a1.034,1.034,0,0,1,1.465,0,1.037,1.037,0,0,1,0,1.465l-1.01,1.01a1.037,1.037,0,0,1-1.465,0Zm3.759,2.294a1.036,1.036,0,0,1-1.465-1.465l1.01-1.01h0a1.036,1.036,0,1,1,1.465,1.465Zm11.952-6.616a1.038,1.038,0,0,1-1.466,0l-2.439-2.439h0l-2.294-2.295a.586.586,0,0,0-.829.829l4.733,4.734A1.036,1.036,0,1,1,431,239.845l-4.734-4.733a.586.586,0,0,0-.828.829l2.294,2.293h0l2.439,2.439a1.036,1.036,0,1,1-1.465,1.466l-2.44-2.44a.556.556,0,0,0-.149-.108l-.7-.7a.586.586,0,0,0-.828.829l3.263,3.264a1.036,1.036,0,1,1-1.465,1.465l-1.242-1.242a2.22,2.22,0,0,0,.145-.787,2.209,2.209,0,0,0-2.209-2.209l-.089,0a2.205,2.205,0,0,0-2.205-2.3l-.089,0a2.207,2.207,0,0,0-2.205-2.3l-.089,0a2.207,2.207,0,0,0-3.767-1.649l-1.009,1.01a2.168,2.168,0,0,0-.326.414,7.854,7.854,0,0,1,10.858-11.322l-3.6,3.6a2.518,2.518,0,0,0,3.561,3.561l1.6-1.6h2.066a4.044,4.044,0,0,0,.506-.033l6.469,6.469a1.038,1.038,0,0,1,0,1.466Zm0,0" fill="#2a21af"/>
  </g>
</svg>
