<svg xmlns="http://www.w3.org/2000/svg" width="30" height="30" viewBox="0 0 30 30">
  <g id="Group_16" data-name="Group 16" transform="translate(-185.316 -220.289)">
    <path id="Path_40" data-name="Path 40" d="M214.847,234.647V235.7a.469.469,0,0,1-.469.469h-1.054a.469.469,0,0,1-.469-.469v-1.054a.468.468,0,0,1,.469-.469h1.054a.468.468,0,0,1,.469.469Zm0,0" fill="#8bc4ff"/>
    <path id="Path_41" data-name="Path 41" d="M211.507,244.842V245.9a.468.468,0,0,1-.469.468h-1.054a.469.469,0,0,1-.469-.468v-1.055a.469.469,0,0,1,.469-.469h1.054a.468.468,0,0,1,.469.469Zm0,0" fill="#8bc4ff"/>
    <path id="Path_42" data-name="Path 42" d="M211.507,224.451v1.055a.468.468,0,0,1-.469.469h-1.054a.469.469,0,0,1-.469-.469v-1.055a.469.469,0,0,1,.469-.469h1.054a.468.468,0,0,1,.469.469Zm0,0" fill="#8bc4ff"/>
    <path id="Path_43" data-name="Path 43" d="M201.312,249.236a.469.469,0,0,1-.469.469h-1.055a.468.468,0,0,1-.468-.469v-1.054a.468.468,0,0,1,.468-.469h1.055a.469.469,0,0,1,.469.469Zm0,0" fill="#8bc4ff"/>
    <path id="Path_44" data-name="Path 44" d="M201.312,222.166a.469.469,0,0,1-.469.469h-1.055a.468.468,0,0,1-.468-.469v-1.055a.467.467,0,0,1,.468-.468h1.055a.468.468,0,0,1,.469.468Zm0,0" fill="#8bc4ff"/>
    <path id="Path_45" data-name="Path 45" d="M191.117,245.9a.469.469,0,0,1-.469.468h-1.055a.469.469,0,0,1-.469-.468v-1.055a.469.469,0,0,1,.469-.469h1.055a.469.469,0,0,1,.469.469Zm0,0" fill="#8bc4ff"/>
    <path id="Path_46" data-name="Path 46" d="M191.117,225.506a.469.469,0,0,1-.469.469h-1.055a.469.469,0,0,1-.469-.469v-1.055a.469.469,0,0,1,.469-.469h1.055a.469.469,0,0,1,.469.469Zm0,0" fill="#8bc4ff"/>
    <path id="Path_47" data-name="Path 47" d="M187.777,235.7a.469.469,0,0,1-.469.469h-1.055a.468.468,0,0,1-.468-.469v-1.054a.468.468,0,0,1,.468-.469h1.055a.468.468,0,0,1,.469.469Zm0,0" fill="#8bc4ff"/>
    <path id="Path_48" data-name="Path 48" d="M204.045,233.407v3.765a.467.467,0,0,1-.234.406c-.909.526-.477.276-3.261,1.883a.468.468,0,0,1-.469,0l-3.26-1.883a.469.469,0,0,1-.235-.406v-3.765a.469.469,0,0,1,.235-.406l3.26-1.883a.47.47,0,0,1,.469,0L203.811,233a.468.468,0,0,1,.234.406Zm0,0" fill="#a2d0ff"/>
    <path id="Path_49" data-name="Path 49" d="M204.045,237.172a.468.468,0,0,1-.234.406c-3.547,2.046-3.318,1.945-3.5,1.945v-4.2l3.678-2.124c.072.139.051-.114.051,3.977Zm0,0" fill="#8bc4ff"/>
    <path id="Path_50" data-name="Path 50" d="M203.994,233.2l-3.678,2.124-3.679-2.124c.087-.171-.117-.022,3.445-2.077a.466.466,0,0,1,.468,0c3.539,2.038,3.358,1.906,3.444,2.077Zm0,0" fill="#b9dcff"/>
    <path id="Path_51" data-name="Path 51" d="M214.378,233.825h-.159c-2.427-8.442-2.261-7.874-2.285-7.927a4.9,4.9,0,0,0,.042-1.331.939.939,0,0,0-.938-.938,4.95,4.95,0,0,0-1.331.042c-.053-.024.508.14-7.926-2.27v-.174a.939.939,0,0,0-.938-.938h-1.055a.938.938,0,0,0-.937.938v.174c-8.439,2.411-7.873,2.246-7.927,2.27a4.9,4.9,0,0,0-1.331-.042.938.938,0,0,0-.937.938,4.986,4.986,0,0,0,.041,1.331c-.024.054.139-.5-2.27,7.927h-.174a.938.938,0,0,0-.937.937v1.055a.938.938,0,0,0,.937.937h.174c2.413,8.446,2.245,7.871,2.27,7.926a4.973,4.973,0,0,0-.041,1.332.938.938,0,0,0,.937.938,4.94,4.94,0,0,0,1.331-.042c.054.024-.508-.14,7.927,2.27v.174a.938.938,0,0,0,.937.937h1.055a.938.938,0,0,0,.938-.937v-.174c8.438-2.411,7.873-2.246,7.926-2.27a4.9,4.9,0,0,0,1.331.042.939.939,0,0,0,.938-.938,4.907,4.907,0,0,0-.042-1.332c.025-.056-.143.518,2.285-7.926h.159a.938.938,0,0,0,.938-.937v-1.055a.938.938,0,0,0-.938-.937Zm-4.636,10.228-2-2,2.3-2.3v4.259a.993.993,0,0,0-.3.033Zm-10.2,3.339-1.439-1.438h1.739v1.406a.987.987,0,0,0-.3.032Zm-8.657-20.866,1.995,2-2.3,2.3v-4.259a1,1,0,0,0,.3-.033Zm10.2-3.339,1.439,1.438h-1.739v-1.406a.987.987,0,0,0,.3-.032Zm7.961,21.829h-4.259l2.3-2.3,2,2a1.008,1.008,0,0,0-.033.3Zm-5.584,0h-2.677v-5.149l2.184-1.262,3.452,3.452Zm-11.909-.3,2-2,2.3,2.3h-4.259a1,1,0,0,0-.032-.3Zm2.658-2.659,3.452-3.452,2.184,1.262v5.149H197.17Zm-2.626-16.494h4.259l-2.3,2.3-2-2a1.035,1.035,0,0,0,.032-.3Zm5.585,0h2.677v5.149l-2.184,1.261-3.452-3.451Zm6.407,11.609-2.792,1.612v-3.195l2.792-1.611Zm-3.261-2.4-1.383-.8a.469.469,0,1,0-.469.812l1.383.8v3.195l-2.792-1.612v-3.765l3.261-1.883,2.817,1.627Zm.469-4.065v-5.149h2.677l2.959,2.959-3.452,3.451Zm4-5.149h4.259a.993.993,0,0,0,.033.3l-2,2Zm4.955.963a1.013,1.013,0,0,0,.3.033v4.259l-2.3-2.3Zm-.7-1.959c0,.085.577.058-5.2.058l-2.1-2.1a.892.892,0,0,0,.028-.149l7.278,2.08a.834.834,0,0,0-.008.113Zm-9.2.058h-1.739l1.439-1.438a1.036,1.036,0,0,0,.3.032Zm-.963-2.1-2.1,2.1h-5.2a1.107,1.107,0,0,0-.007-.171l7.278-2.08a.891.891,0,0,0,.028.149Zm-5.336,6.662,3.274,3.274-.47.271a.469.469,0,0,0-.234.406v1.685h-5.529v-2.677Zm-3.9,5.636h-1.407a1.011,1.011,0,0,0-.032-.3l1.439-1.439Zm-1.407.937h1.407v1.74l-1.439-1.439a1.01,1.01,0,0,0,.032-.3Zm2.344,0h5.529v1.685a.469.469,0,0,0,.234.406l.47.271-3.274,3.274-2.959-2.959Zm2.3,6.3-1.995,2a1.017,1.017,0,0,0-.3-.033v-4.259Zm-1.3,3.955c0-.085-.577-.058,5.2-.058l2.1,2.1a.9.9,0,0,0-.028.148l-7.278-2.079a1.039,1.039,0,0,0,.007-.113Zm9.2-.058h1.739l-1.439,1.438a1.042,1.042,0,0,0-.3-.032Zm.963,2.1,2.1-2.1h5.2a1.1,1.1,0,0,0,.008.171l-7.278,2.079a.9.9,0,0,0-.028-.148Zm5.335-6.662-3.274-3.274.471-.271a.469.469,0,0,0,.234-.406v-1.685h.936a.468.468,0,1,0,0-.937h-.936v-1.685a.469.469,0,0,0-.234-.406l-.471-.271,3.274-3.274,2.959,2.959v2.677h-.952a.468.468,0,1,0,0,.937h.952v2.677Zm5.3-6.573H210.98v-1.74l1.439,1.439a1.017,1.017,0,0,0-.033.3Zm-1.406.937h1.406a1.016,1.016,0,0,0,.033.3L210.98,237.5Zm2.264-1.929a.858.858,0,0,0-.162.028l-2.1-2.1c0-5.777-.026-5.2.058-5.2a.849.849,0,0,0,.114-.008Zm-3.26-9.262h1.054v1.055h-1.054Zm-10.2-3.34h1.055v1.055h-1.055c0-1.07-.006-1.055,0-1.055Zm-10.195,3.34h1.055v1.055h-1.055c0-1.059-.006-1.055,0-1.055Zm-.113,1.984a1.123,1.123,0,0,0,.172.008v5.2l-2.1,2.1a.933.933,0,0,0-.149-.028Zm-3.227,8.211h1.055v1.055h-1.055Zm3.227,9.266L187.4,236.75a1.06,1.06,0,0,0,.149-.028l2.1,2.1v5.2a1.123,1.123,0,0,0-.172.008Zm.113,1.984v-1.055h1.055v1.055Zm11.25,3.34h-1.055V248.3h1.055c0,1.07.006,1.055,0,1.055Zm10.195-3.34h-1.054v-1.055h1.054Zm.114-1.984a1.118,1.118,0,0,0-.172-.008v-5.2l2.1-2.1a.946.946,0,0,0,.162.028Zm3.226-8.211h-1.054v-1.055h1.054c0,1.058.006,1.055,0,1.055Zm0,0" fill="#2a21af"/>
    <path id="Path_52" data-name="Path 52" d="M207.1,234.821a.468.468,0,1,0,.469.468.469.469,0,0,0-.469-.468Zm0,0" fill="#2a21af"/>
  </g>
</svg>
