<svg xmlns="http://www.w3.org/2000/svg" xmlns:xlink="http://www.w3.org/1999/xlink" width="20" height="17.342" viewBox="0 0 20 17.342">
  <defs>
    <clipPath id="clip-path">
      <rect id="Rectangle_679" data-name="Rectangle 679" width="20" height="17.342" transform="translate(448.117 279.968)" fill="#fff"/>
    </clipPath>
  </defs>
  <g id="Group_74" data-name="Group 74" transform="translate(-448.117 -279.968)">
    <g id="Group_71" data-name="Group 71">
      <g id="Group_70" data-name="Group 70" clip-path="url(#clip-path)">
        <path id="Path_178" data-name="Path 178" d="M451.8,282.572a.4.4,0,1,0,.58.564,7.826,7.826,0,0,1,10.97-.229l-.743.008a.4.4,0,0,0,0,.809h0l1.723-.021a.405.405,0,0,0,.4-.408l-.017-1.719a.407.407,0,0,0-.4-.4h0a.405.405,0,0,0-.4.408l.008.752a8.635,8.635,0,0,0-12.121.236Zm0,0" fill="#fff"/>
      </g>
    </g>
    <path id="Path_179" data-name="Path 179" d="M463.585,294.089a7.825,7.825,0,0,1-10.969.229l.743-.009a.4.4,0,0,0,0-.808h0l-1.723.02a.406.406,0,0,0-.4.409l.02,1.723a.407.407,0,0,0,.4.4h0a.405.405,0,0,0,.4-.409l-.008-.751a8.584,8.584,0,0,0,5.936,2.368h.1a8.6,8.6,0,0,0,6.083-2.6.408.408,0,0,0-.584-.571Zm0,0" fill="#fff"/>
    <g id="Group_73" data-name="Group 73">
      <g id="Group_72" data-name="Group 72" clip-path="url(#clip-path)">
        <path id="Path_180" data-name="Path 180" d="M451.309,288.423a.4.4,0,0,0-.179-.335.258.258,0,0,1-.114-.217V286.4a.921.921,0,0,1,.922-.923h.319a.921.921,0,0,1,.922.923v1.473a.271.271,0,0,1-.114.217.4.4,0,0,0-.18.335v1.42a.464.464,0,0,0,.266.421,11.28,11.28,0,0,1,2.016,1.294.312.312,0,0,1,.111.241v1.008a.4.4,0,0,0,.808,0V291.8a1.12,1.12,0,0,0-.408-.866,11.905,11.905,0,0,0-1.984-1.3V288.61a1.075,1.075,0,0,0,.3-.739V286.4a1.732,1.732,0,0,0-1.731-1.731h-.319a1.732,1.732,0,0,0-1.731,1.731v1.473a1.053,1.053,0,0,0,.3.739v1.025a11.961,11.961,0,0,0-1.984,1.3,1.121,1.121,0,0,0-.408.866v1.008a.4.4,0,1,0,.808,0V291.8a.318.318,0,0,1,.111-.241,11.134,11.134,0,0,1,2.016-1.294.476.476,0,0,0,.266-.421v-1.42Zm0,0" fill="#fff"/>
        <path id="Path_181" data-name="Path 181" d="M467.709,290.937a11.905,11.905,0,0,0-1.984-1.3v-1.025a1.075,1.075,0,0,0,.3-.739V286.4a1.732,1.732,0,0,0-1.731-1.731h-.319a1.732,1.732,0,0,0-1.731,1.731v1.473a1.053,1.053,0,0,0,.3.739v1.021a11.961,11.961,0,0,0-1.984,1.3,1.121,1.121,0,0,0-.408.866v1.008a.4.4,0,1,0,.808,0V291.8a.318.318,0,0,1,.111-.241,11.135,11.135,0,0,1,2.016-1.294.473.473,0,0,0,.261-.421v-1.42a.4.4,0,0,0-.179-.335.258.258,0,0,1-.114-.217V286.4a.921.921,0,0,1,.922-.923h.319a.921.921,0,0,1,.922.923v1.473a.271.271,0,0,1-.114.217.4.4,0,0,0-.18.335v1.42a.468.468,0,0,0,.262.421,11.135,11.135,0,0,1,2.016,1.294.312.312,0,0,1,.111.241v1.008a.4.4,0,0,0,.808,0V291.8a1.132,1.132,0,0,0-.408-.862Zm0,0" fill="#fff"/>
      </g>
    </g>
  </g>
</svg>
