<svg xmlns="http://www.w3.org/2000/svg" width="22.993" height="30" viewBox="0 0 22.993 30">
  <g id="Group_15" data-name="Group 15" transform="translate(-147.556 -218.567)">
    <path id="Path_33" data-name="Path 33" d="M150.056,227.074H168.05a2,2,0,0,1,2,2v.5a2,2,0,0,1-2,2H150.056a2,2,0,0,1-2-2v-.5A2,2,0,0,1,150.056,227.074Z" fill="#8bc4ff"/>
    <path id="Path_34" data-name="Path 34" d="M168.171,231.488h-16.9a1.9,1.9,0,0,1-1.879-1.915v15.8a1.9,1.9,0,0,0,1.879,1.915h16.9a1.9,1.9,0,0,0,1.878-1.915v-15.8A1.9,1.9,0,0,1,168.171,231.488Zm-17.116,7.582a1,1,0,1,1,1-1A1,1,0,0,1,151.055,239.07Zm4,2a1,1,0,1,1,1-1A1,1,0,0,1,155.054,241.07Zm7,3.5a1,1,0,1,1,1-1A1,1,0,0,1,162.052,244.568Z" fill="#b9dcff"/>
    <path id="Path_35" data-name="Path 35" d="M154.054,229.074a5,5,0,1,0-5-5A5,5,0,0,0,154.054,229.074Zm0-8a3,3,0,1,1-3,3A3,3,0,0,1,154.054,221.076Z" fill="#a2d0ff"/>
    <path id="Path_36" data-name="Path 36" d="M164.208,227.074a3,3,0,0,0-3.887,4.5h4.461a3,3,0,0,0-.574-4.5Z" fill="#b9dcff"/>
    <path id="Path_37" data-name="Path 37" d="M159.552,229.573a3,3,0,1,1,5.23,2h2.349a5,5,0,1,0-9.159,0h2.35A2.982,2.982,0,0,1,159.552,229.573Z" fill="#a2d0ff"/>
    <circle id="Ellipse_13" data-name="Ellipse 13" cx="2.999" cy="2.999" r="2.999" transform="translate(151.055 221.076)" fill="#b9dcff"/>
    <g id="Group_14" data-name="Group 14">
      <circle id="Ellipse_14" data-name="Ellipse 14" cx="1" cy="1" r="1" transform="translate(150.056 237.071)" fill="#a2d0ff"/>
      <circle id="Ellipse_15" data-name="Ellipse 15" cx="1" cy="1" r="1" transform="translate(154.054 239.07)" fill="#a2d0ff"/>
      <circle id="Ellipse_16" data-name="Ellipse 16" cx="1" cy="1" r="1" transform="translate(161.052 242.569)" fill="#a2d0ff"/>
    </g>
    <path id="Path_38" data-name="Path 38" d="M147.556,229.074v16.994a2.5,2.5,0,0,0,2.5,2.5H168.05a2.5,2.5,0,0,0,2.5-2.5V229.074a2.5,2.5,0,0,0-2.5-2.5h-.909a5.442,5.442,0,0,0-7.52-1.635c-.054.035-.107.07-.16.107a5.5,5.5,0,1,0-10.223,1.678A2.5,2.5,0,0,0,147.556,229.074Zm7,11a.5.5,0,1,1,.5.5A.5.5,0,0,1,154.554,240.07Zm13.5,7.5h-10v-2.249l1.666-1.249h.925a1.5,1.5,0,1,0,0-1h-1.092a.5.5,0,0,0-.3.1l-2,1.5a.5.5,0,0,0-.2.4v2.5h-1.5v-6.09a1.5,1.5,0,1,0-1,0v6.09h-1.5v-4a.5.5,0,0,0-.147-.354l-1.353-1.353v-2.384a1.5,1.5,0,1,0-1,0v2.591a.5.5,0,0,0,.147.354l1.353,1.353v3.791h-2a1.5,1.5,0,0,1-1.5-1.5V231.56a2.473,2.473,0,0,0,1.5.513H168.05a2.473,2.473,0,0,0,1.5-.513v4.511h-8.5a2.5,2.5,0,0,0,0,5h8.5v5A1.5,1.5,0,0,1,168.05,247.567Zm-6.5-4a.5.5,0,1,1,.5.5A.5.5,0,0,1,161.552,243.569Zm-11-5.5a.5.5,0,1,1,.5.5A.5.5,0,0,1,150.555,238.071Zm9.5-8.5a2.5,2.5,0,0,1,1.119-2.082,2.536,2.536,0,0,1,2.761,0,2.471,2.471,0,0,1,.715,3.422c-.035.055-.073.108-.113.16h-3.965A2.484,2.484,0,0,1,160.052,229.573Zm9.5,7.5v3h-8.5a1.5,1.5,0,1,1,0-3Zm0-8v.5a1.5,1.5,0,0,1-1.5,1.5h-.216a5.346,5.346,0,0,0-.17-3.5h.386A1.5,1.5,0,0,1,169.549,229.074Zm-3.106-1.75a4.477,4.477,0,0,1,.349,3.749h-1.083a3.487,3.487,0,0,0-1.225-4.415,3.549,3.549,0,0,0-3.865,0,3.487,3.487,0,0,0-1.225,4.415h-1.083a4.431,4.431,0,0,1-.258-1.5,4.5,4.5,0,0,1,8.39-2.249Zm-12.389-7.747a4.5,4.5,0,1,1-4.5,4.5A4.5,4.5,0,0,1,154.054,219.577Zm-5.5,9.5a1.5,1.5,0,0,1,1.281-1.478,5.485,5.485,0,0,0,7.312,1.02,5.5,5.5,0,0,0-.1.957,5.434,5.434,0,0,0,.216,1.5h-7.213a1.5,1.5,0,0,1-1.5-1.5Z" fill="#2a21af"/>
    <path id="Path_39" data-name="Path 39" d="M154.054,227.574a3.5,3.5,0,1,0-3.5-3.5A3.5,3.5,0,0,0,154.054,227.574Zm0-6a2.5,2.5,0,1,1-2.5,2.5A2.5,2.5,0,0,1,154.054,221.576Z" fill="#2a21af"/>
    <rect id="Rectangle_8" data-name="Rectangle 8" width="1" height="1" transform="translate(160.552 218.577)" fill="#2a21af"/>
    <rect id="Rectangle_9" data-name="Rectangle 9" width="1" height="2.499" transform="translate(160.552 220.576)" fill="#2a21af"/>
    <rect id="Rectangle_10" data-name="Rectangle 10" width="1" height="1" transform="translate(162.551 218.577)" fill="#2a21af"/>
    <rect id="Rectangle_11" data-name="Rectangle 11" width="1" height="2.499" transform="translate(162.551 220.576)" fill="#2a21af"/>
  </g>
</svg>
