<svg xmlns="http://www.w3.org/2000/svg" width="19.974" height="20" viewBox="0 0 19.974 20">
  <g id="Group_39" data-name="Group 39" transform="translate(-406.296 -276.001)">
    <path id="Path_126" data-name="Path 126" d="M417.574,282.211a1.833,1.833,0,1,0-1.833-1.834A1.835,1.835,0,0,0,417.574,282.211Zm0-2.887a1.053,1.053,0,1,1-1.053,1.053A1.055,1.055,0,0,1,417.574,279.324Z" fill="#fff"/>
    <path id="Path_127" data-name="Path 127" d="M413.789,279.668a1.833,1.833,0,1,0-1.834-1.834A1.836,1.836,0,0,0,413.789,279.668Zm0-2.887a1.053,1.053,0,1,1-1.053,1.053A1.054,1.054,0,0,1,413.789,276.781Z" fill="#fff"/>
    <path id="Path_128" data-name="Path 128" d="M419.226,277.431h.222v.222a.39.39,0,0,0,.78,0v-.222h.222a.39.39,0,0,0,0-.78h-.222v-.222a.39.39,0,0,0-.78,0v.222h-.222a.39.39,0,1,0,0,.78Z" fill="#fff"/>
    <path id="Path_129" data-name="Path 129" d="M412.137,280.206v1.58a.39.39,0,0,0,.78,0v-1.58a.39.39,0,1,0-.78,0Z" fill="#fff"/>
    <path id="Path_130" data-name="Path 130" d="M407.935,295.2a.859.859,0,0,1-.858-.858v-10.7a1.632,1.632,0,0,0,.858.244h11.052a6.418,6.418,0,0,1,3.386.025,1.634,1.634,0,0,0-1.4-.806h-5.757v-1.19a.39.39,0,0,0-.78,0v1.19h-6.5a.859.859,0,0,1,0-1.717h2.583a.39.39,0,0,0,0-.78h-2.583a1.641,1.641,0,0,0-1.639,1.639c0,.021,0,.043,0,.064l0,.033v12a1.641,1.641,0,0,0,1.639,1.639h9.211a6.691,6.691,0,0,1-1.023-.78Z" fill="#fff"/>
    <path id="Path_131" data-name="Path 131" d="M424.716,282.245a1.641,1.641,0,0,0-1.639-1.639h-2.283a.39.39,0,1,0,0,.78h2.283a.86.86,0,0,1,.859.859v2.314a6.666,6.666,0,0,1,.78.527Z" fill="#fff"/>
    <g id="Group_38" data-name="Group 38">
      <path id="Path_132" data-name="Path 132" d="M418.762,289.449l1.434-1.434V293.7a.428.428,0,1,0,.856,0v-5.686l1.434,1.434a.428.428,0,0,0,.606-.6l-2.165-2.166a.443.443,0,0,0-.606,0l-2.164,2.165a.428.428,0,0,0,.6.605Z" fill="#fff"/>
      <path id="Path_133" data-name="Path 133" d="M420.624,295.2a4.857,4.857,0,1,1,4.847-4.857,4.858,4.858,0,0,1-4.847,4.857m0,.8a5.657,5.657,0,1,0-5.646-5.657A5.651,5.651,0,0,0,420.624,296Z" fill="#fff"/>
    </g>
  </g>
</svg>
