<svg xmlns="http://www.w3.org/2000/svg" width="31.8" height="31.8" viewBox="0 0 31.8 31.8">
  <path id="Path_170" data-name="Path 170" d="M15.9,0A15.9,15.9,0,1,0,31.8,15.9,15.9,15.9,0,0,0,15.9,0ZM11.28,24.036H7.407V12.386H11.28ZM9.344,10.8H9.318a2.018,2.018,0,1,1,.051-4.03,2.019,2.019,0,1,1-.025,4.03Zm15.9,13.241H21.371V17.8c0-1.566-.561-2.635-1.962-2.635a2.12,2.12,0,0,0-1.987,1.416,2.652,2.652,0,0,0-.127.945v6.506H13.423s.051-10.557,0-11.65H17.3v1.65a3.844,3.844,0,0,1,3.49-1.923c2.548,0,4.458,1.665,4.458,5.243Zm0,0" fill="#e41c26"/>
</svg>
