<svg xmlns="http://www.w3.org/2000/svg" width="32.19" height="32.19" viewBox="0 0 32.19 32.19">
  <path id="Path_171" data-name="Path 171" d="M16.095,0A16.095,16.095,0,1,0,32.189,16.095,16.1,16.1,0,0,0,16.095,0Zm7.349,12.549q.011.238.011.477A10.439,10.439,0,0,1,12.943,23.537h0a10.456,10.456,0,0,1-5.662-1.659,7.514,7.514,0,0,0,.881.051,7.412,7.412,0,0,0,4.588-1.581A3.7,3.7,0,0,1,9.3,17.781a3.682,3.682,0,0,0,1.668-.063A3.7,3.7,0,0,1,8,14.1c0-.017,0-.032,0-.047a3.669,3.669,0,0,0,1.673.462A3.7,3.7,0,0,1,8.534,9.58a10.488,10.488,0,0,0,7.615,3.86,3.7,3.7,0,0,1,6.3-3.369,7.409,7.409,0,0,0,2.346-.9,3.709,3.709,0,0,1-1.625,2.043,7.368,7.368,0,0,0,2.121-.582,7.507,7.507,0,0,1-1.848,1.917Zm0,0" transform="translate(0.001)" fill="#e41c26"/>
</svg>
