<svg id="Layer_1" data-name="Layer 1" xmlns="http://www.w3.org/2000/svg" viewBox="0 0 190.05 279.4"><defs><style>.cls-1{fill:#c9233b;}.cls-2{fill:#dd2238;}.cls-3{fill:#ff1d25;}.cls-4{fill:#af223d;}.cls-5{fill:#931d3a;}</style></defs><title>red-flag-portrait</title><polygon class="cls-1" points="22.36 0 0 0 0 279.4 22.36 266.5 22.36 0"/><polygon class="cls-1" points="190.05 279.08 190.05 0 167.69 0 167.69 266.17 190.05 279.08"/><polygon class="cls-2" points="95.31 224.38 167.69 266.17 167.69 0 95.03 0 95.03 224.54 95.31 224.38"/><polygon class="cls-3" points="95.03 224.54 95.03 0 22.36 0 22.36 266.5 95.03 224.54"/><rect class="cls-4" y="0.33" width="190.05" height="20.92"/><rect class="cls-5" x="95.03" y="0.33" width="95.03" height="20.92"/><polygon class="cls-4" points="95.46 200.65 95.41 200.56 95.35 200.59 95.3 200.56 95.25 200.65 0 253.58 0 279.02 95.35 226.03 190.05 278.65 190.05 253.22 95.46 200.65"/><polygon class="cls-5" points="95.46 200.65 95.41 200.56 95.35 200.59 95.3 200.56 95.25 200.65 95.03 200.77 95.03 226.21 95.35 226.03 189.83 278.53 189.83 253.09 95.46 200.65"/></svg>