<svg xmlns="http://www.w3.org/2000/svg" width="32.001" height="35" viewBox="0 0 32.001 35">
  <g id="Group_1028" data-name="Group 1028" transform="translate(-159.637 4.242)">
    <g id="Group_45" data-name="Group 45" transform="translate(159.637 -4.242)">
      <path id="Path_75" data-name="Path 75" d="M48.592,29.937A1.268,1.268,0,0,0,49.856,31.2H71.3a1.268,1.268,0,0,0,1.264-1.264c0-6.994-3.16-13-7.605-15.4a7.932,7.932,0,1,0-8.743,0C51.752,16.938,48.592,22.942,48.592,29.937ZM60.579,2.528a5.393,5.393,0,1,1-5.393,5.393A5.4,5.4,0,0,1,60.579,2.528Zm0,13.378c4.93,0,8.975,5.625,9.417,12.767H51.162C51.6,21.531,55.65,15.906,60.579,15.906Z" transform="translate(-48.592)" fill="#fff"/>
    </g>
    <path id="Path_528" data-name="Path 528" d="M7.5,0A7.5,7.5,0,1,1,0,7.5,7.5,7.5,0,0,1,7.5,0Z" transform="translate(176.638 15.757)" fill="#fff"/>
  </g>
</svg>
