<svg id="Group_39" data-name="Group 39" xmlns="http://www.w3.org/2000/svg" width="30" height="30" viewBox="0 0 30 30">
  <path id="Path_68" data-name="Path 68" d="M88.839,95.694h5.412v5.412a.722.722,0,1,0,1.443,0V95.694h5.412a.722.722,0,0,0,0-1.443H95.694V88.839a.722.722,0,1,0-1.443,0v5.412H88.839a.722.722,0,1,0,0,1.443Z" transform="translate(-79.972 -79.972)" fill="#f05137"/>
  <path id="Path_69" data-name="Path 69" d="M15,30A15,15,0,1,0,0,15,15.012,15.012,0,0,0,15,30ZM15,2.043A12.957,12.957,0,1,1,2.043,15,12.963,12.963,0,0,1,15,2.043Z" transform="translate(0 0)" fill="#f05137"/>
</svg>
