<svg xmlns="http://www.w3.org/2000/svg" width="37.469" height="34.007" viewBox="0 0 37.469 34.007">
  <g id="cartlist" transform="translate(-93.638 -1)">
    <g id="Group_68" data-name="Group 68" transform="translate(93.638 1)">
      <path id="Path_104" data-name="Path 104" d="M1.386,24H5.36l5.66,20.469a1.386,1.386,0,0,0,1.34,1.017h17.4a1.389,1.389,0,0,0,1.271-.832L37.356,30.1a1.4,1.4,0,0,0-.116-1.317,1.376,1.376,0,0,0-1.155-.624H16.865a1.386,1.386,0,1,0,0,2.772h17.1L28.832,42.716H13.4L7.739,22.248A1.386,1.386,0,0,0,6.4,21.231H1.386a1.386,1.386,0,0,0,0,2.772Z" transform="translate(0 -21.231)" fill="#fff"/>
      <path id="Path_105" data-name="Path 105" d="M100.042,367.516a3.142,3.142,0,1,0-3.142-3.142A3.145,3.145,0,0,0,100.042,367.516Z" transform="translate(-88.999 -333.509)" fill="#fff"/>
      <path id="Path_106" data-name="Path 106" d="M341.055,367.435h.231a3.249,3.249,0,1,0-.231,0Z" transform="translate(-310.375 -333.429)" fill="#fff"/>
    </g>
  </g>
</svg>
