<svg xmlns="http://www.w3.org/2000/svg" width="34.379" height="34.379" viewBox="0 0 34.379 34.379">
  <g id="window" transform="translate(0.25 0.25)">
    <g id="Group_1006" data-name="Group 1006">
      <g id="Group_1005" data-name="Group 1005">
        <path id="Path_875" data-name="Path 875" d="M13.335,0H7.929A7.938,7.938,0,0,0,0,7.929v5.406a2.5,2.5,0,0,0,2.523,2.523H13.335a2.5,2.5,0,0,0,2.523-2.523V2.523A2.5,2.5,0,0,0,13.335,0Zm1.081,13.335a1.07,1.07,0,0,1-1.081,1.081H2.523a1.07,1.07,0,0,1-1.081-1.081V7.929A6.5,6.5,0,0,1,7.929,1.442h5.406a1.07,1.07,0,0,1,1.081,1.081V13.335Z" fill="#fff" stroke="#fff" stroke-width="0.5"/>
      </g>
    </g>
    <g id="Group_1008" data-name="Group 1008" transform="translate(18.021)">
      <g id="Group_1007" data-name="Group 1007">
        <path id="Path_876" data-name="Path 876" d="M280.269,0h-5.406a2.5,2.5,0,0,0-2.523,2.523V13.335a2.5,2.5,0,0,0,2.523,2.523h10.812a2.5,2.5,0,0,0,2.523-2.523V7.929A7.938,7.938,0,0,0,280.269,0Zm6.488,13.335a1.07,1.07,0,0,1-1.081,1.081H274.863a1.07,1.07,0,0,1-1.081-1.081V2.523a1.07,1.07,0,0,1,1.081-1.081h5.406a6.5,6.5,0,0,1,6.488,6.487Z" transform="translate(-272.34)" fill="#fff" stroke="#fff" stroke-width="0.5"/>
      </g>
    </g>
    <g id="Group_1010" data-name="Group 1010" transform="translate(18.021 18.021)">
      <g id="Group_1009" data-name="Group 1009">
        <path id="Path_877" data-name="Path 877" d="M285.675,272.34H274.863a2.5,2.5,0,0,0-2.523,2.523v12.614a.721.721,0,0,0,.721.721h7.208a7.938,7.938,0,0,0,7.929-7.929v-5.406A2.5,2.5,0,0,0,285.675,272.34Zm1.081,7.929a6.5,6.5,0,0,1-6.487,6.487h-6.487V274.863a1.069,1.069,0,0,1,1.081-1.081h10.812a1.069,1.069,0,0,1,1.081,1.081v5.406Z" transform="translate(-272.34 -272.34)" fill="#fff" stroke="#fff" stroke-width="0.5"/>
      </g>
    </g>
    <g id="Group_1012" data-name="Group 1012" transform="translate(0 18.021)">
      <g id="Group_1011" data-name="Group 1011">
        <path id="Path_878" data-name="Path 878" d="M13.335,272.34H2.523A2.5,2.5,0,0,0,0,274.863v5.406A7.938,7.938,0,0,0,7.929,288.2h7.208a.721.721,0,0,0,.721-.721V274.863A2.5,2.5,0,0,0,13.335,272.34Zm1.081,14.417H7.929a6.5,6.5,0,0,1-6.487-6.487v-5.406a1.07,1.07,0,0,1,1.081-1.081H13.335a1.07,1.07,0,0,1,1.081,1.081v11.894Z" transform="translate(0 -272.34)" fill="#fff" stroke="#fff" stroke-width="0.5"/>
      </g>
    </g>
  </g>
</svg>
