<svg xmlns="http://www.w3.org/2000/svg" width="34.498" height="36.249" viewBox="0 0 34.498 36.249">
  <g id="reminder" transform="translate(-4.244 3.243)">
    <path id="bell" d="M81.525,28.847a5.632,5.632,0,0,1-1.711-2.33C78.339,23.4,78.029,19,78.029,15.861c0-.014,0-.027,0-.041a10.285,10.285,0,0,0-6.054-9.328V4.038A4.039,4.039,0,0,0,67.943,0h-.334a4.039,4.039,0,0,0-4.031,4.038V6.492a10.285,10.285,0,0,0-6.055,9.369c0,3.139-.31,7.535-1.784,10.656a5.632,5.632,0,0,1-1.711,2.33,1.032,1.032,0,0,0-.567,1.174,1.08,1.08,0,0,0,1.065.83h7.784a5.468,5.468,0,0,0,10.935,0h7.784a1.08,1.08,0,0,0,1.065-.83A1.033,1.033,0,0,0,81.525,28.847ZM65.7,4.038a1.911,1.911,0,0,1,1.907-1.911h.334A1.911,1.911,0,0,1,69.85,4.038V5.8a10.286,10.286,0,0,0-4.149,0V4.038Zm2.074,30.083a3.351,3.351,0,0,1-3.343-3.27h6.687A3.351,3.351,0,0,1,67.776,34.121Zm4.276-5.4H56.944a11.132,11.132,0,0,0,.557-.977c1.423-2.807,2.145-6.806,2.145-11.886a8.129,8.129,0,1,1,16.258,0c0,.013,0,.026,0,.039,0,5.06.726,9.045,2.145,11.844a11.14,11.14,0,0,0,.557.977Z" transform="translate(-49.19 -3.243)" fill="#fff"/>
    <g id="Sticker_1" data-name="Sticker 1" transform="translate(22.742 0.757)">
      <rect id="Base" width="16" height="16" rx="8" fill="#fff"/>
      <text id="_1" data-name="1" transform="translate(8 12.333)" fill="#fff" font-size="12" font-family="Helvetica-Bold, Helvetica" font-weight="700"><tspan x="-3.337" y="0">1</tspan></text>
    </g>
  </g>
</svg>
