<svg xmlns="http://www.w3.org/2000/svg" width="16.339" height="19.586" viewBox="0 0 16.339 19.586">
  <g id="android-logo" transform="translate(-50.682 0)">
    <g id="android" transform="translate(50.682 -0.001)">
      <path id="Path_954" data-name="Path 954" d="M63.753,14.684a.772.772,0,0,1-.817.817h-.817V18.36a1.225,1.225,0,1,1-2.451,0V15.5H58.034V18.36a1.225,1.225,0,0,1-2.451,0V15.5h-.817a.772.772,0,0,1-.817-.817V6.515h9.8ZM65.8,6.515A1.256,1.256,0,0,1,67.021,7.74v5.719a1.225,1.225,0,1,1-2.451,0V7.74A1.256,1.256,0,0,1,65.8,6.515Zm-13.888,0A1.256,1.256,0,0,1,53.133,7.74v5.719a1.225,1.225,0,1,1-2.451,0V7.74A1.256,1.256,0,0,1,51.907,6.515Zm4.085-4.738L54.93.714a.4.4,0,0,1,0-.572.4.4,0,0,1,.572,0l1.225,1.225A3.6,3.6,0,0,1,58.851.8a4.864,4.864,0,0,1,2.206.49L62.2.061a.9.9,0,0,1,.654,0,.9.9,0,0,1,0,.654L61.792,1.776A4.99,4.99,0,0,1,63.753,5.7h-9.8A4.722,4.722,0,0,1,55.992,1.776Zm4.493,2.287H61.3V3.247h-.817Zm-4.085,0h.817V3.247H56.4Z" transform="translate(-50.682 0.001)" fill="#212427"/>
    </g>
  </g>
</svg>
