<svg id="Group_2875" data-name="Group 2875" xmlns="http://www.w3.org/2000/svg" width="17.275" height="20.104" viewBox="0 0 17.275 20.104">
  <path id="Path_901" data-name="Path 901" d="M295.363,1020.2a14.472,14.472,0,0,1-1.306,2.438c-.849,1.292-2.044,2.9-3.525,2.913-1.316.012-1.654-.857-3.441-.847s-2.159.862-3.476.85c-1.481-.014-2.614-1.466-3.462-2.757-2.372-3.611-2.62-7.848-1.157-10.1a5.248,5.248,0,0,1,4.222-2.538c1.57,0,2.557.861,3.855.861,1.259,0,2.027-.863,3.842-.863a5.123,5.123,0,0,1,3.862,2.039A4.419,4.419,0,0,0,295.363,1020.2Z" transform="translate(-278.088 -1005.454)" fill="#212427"/>
  <g id="Group_2861" data-name="Group 2861" transform="translate(8.303)">
    <path id="Path_902" data-name="Path 902" d="M298.31,1003.745a4.408,4.408,0,0,0,.978-3.264,4.763,4.763,0,0,0-3.074,1.653,4.091,4.091,0,0,0-1,3.184A4.02,4.02,0,0,0,298.31,1003.745Z" transform="translate(-295.164 -1000.481)" fill="#212427"/>
  </g>
</svg>
