<svg xmlns="http://www.w3.org/2000/svg" width="40" height="40" viewBox="0 0 40 40">
  <g id="icon-add-flag" transform="translate(-1214.797 -129.567)">
    <g id="_037---Waypoint-Flag" data-name="037---Waypoint-Flag">
      <path id="Shape" d="M1224.927,169.518l.737-.205a1.33,1.33,0,0,0,.925-1.639l-8.426-30.093a1.667,1.667,0,0,0-2.053-1.154l-.095.027a1.662,1.662,0,0,0-1.156,2.049l8.426,30.092a1.332,1.332,0,0,0,1.642.923Z" fill="#212427"/>
      <path id="Shape-2" data-name="Shape" d="M1254.6,148.489a31.956,31.956,0,0,1-7.344-5.042.653.653,0,0,1-.186-.668,94.207,94.207,0,0,0,2.423-12.522c.082-.7-.3-.91-.7-.427-7.855,9.374-21.445-1.716-29.534,6.8a2.716,2.716,0,0,1,.228.572l5.466,19.534c8.1-8.417,21.645,2.6,29.485-6.751.4-.482.476-1.363.159-1.5Z" fill="#212427"/>
    </g>
  </g>
</svg>
