<svg xmlns="http://www.w3.org/2000/svg" width="40" height="40" viewBox="0 0 40 40">
  <g id="icon-add-food-bank" transform="translate(1711 -1869)">
    <g id="Group_2926" data-name="Group 2926" transform="translate(-3102.427 1733.646)">
      <g id="Group_2914" data-name="Group 2914">
        <g id="Group_2913" data-name="Group 2913">
          <path id="Path_983" data-name="Path 983" d="M1421.457,150.3h-.034a.665.665,0,0,0-.506,1.082,25.678,25.678,0,0,1,2.785,4.339.228.228,0,0,1-.363.267,29.619,29.619,0,0,0-6.458-4.684.667.667,0,0,0-.53-.045,24.481,24.481,0,0,0-4.737,2.232.664.664,0,0,0-.1,1.062,25.515,25.515,0,0,1,4.86,6.437.228.228,0,0,1-.344.286,45.233,45.233,0,0,0-7.352-5.129.666.666,0,0,0-.709.091,15.268,15.268,0,0,0-3.429,3.68h0a.5.5,0,0,0,.009.758,24.253,24.253,0,0,1,3.888,5.6.208.208,0,0,1-.082.267.237.237,0,0,1-.3-.031,28.2,28.2,0,0,0-4.515-3.542.823.823,0,0,0-1.188.339c-1.99,4.2-1.922,7.467-.344,9.763,3.359,4.884,10.129,1.082,17.989-4.322s13.834-10.364,10.475-15.249C1429.026,151.391,1426.288,150.223,1421.457,150.3Z" fill="#212427"/>
        </g>
      </g>
      <path id="Path_984" data-name="Path 984" d="M1401.938,160.813a2.463,2.463,0,0,1,.53-.092,2.182,2.182,0,0,1-.2-1.169,2.037,2.037,0,0,1,.513-1.154,17.253,17.253,0,0,1,3.663-3.9,2.311,2.311,0,0,1,2.456-.316q.211.1.432.214a2.3,2.3,0,0,1,.953-2.787,26.042,26.042,0,0,1,5.06-2.383,2.322,2.322,0,0,1,1.61.047,5.433,5.433,0,0,0-2.775-2.836,7.7,7.7,0,0,0-6.841.316c-.687.326-1.182.578-1.574.757a8.424,8.424,0,0,1,1.541-3.8,11.123,11.123,0,0,1,2.5-2.55,1.055,1.055,0,0,0-1.178-1.75,13.021,13.021,0,0,0-3,3.019,11.941,11.941,0,0,0-.808,1.3,6.535,6.535,0,0,0-.642-.986,3.824,3.824,0,0,0-2.359-4.5c-3.463-1.5-7.245-.825-9.733-.035a1.053,1.053,0,0,0-.642.82.674.674,0,0,0,.358.807,16.774,16.774,0,0,1,7.211,4.9c1.057,1.175,2.693.784,3.858-.16a5.117,5.117,0,0,1,.766,2.987c-.409-.181-.933-.45-1.687-.808a7.7,7.7,0,0,0-6.838-.314c-3.712,1.56-4.744,7.532-2.3,13.337a14.433,14.433,0,0,0,6.043,7.184,17.133,17.133,0,0,1,1.542-4.834A2.457,2.457,0,0,1,1401.938,160.813Zm-2.621-11.6a3.79,3.79,0,0,0-3.785,3.786.791.791,0,0,1-1.582,0,5.374,5.374,0,0,1,5.367-5.368.791.791,0,1,1,0,1.582Z" fill="#212427"/>
    </g>
    <rect id="Rectangle_2075" data-name="Rectangle 2075" width="40" height="40" transform="translate(-1711 1869)" fill="none"/>
  </g>
</svg>
