<svg xmlns="http://www.w3.org/2000/svg" width="40" height="40" viewBox="0 0 40 40">
  <g id="icon-help-the-needies" transform="translate(2029 -1855)">
    <g id="Group_2925" data-name="Group 2925" transform="translate(-3650.862 1730.24)">
      <path id="Path_977" data-name="Path 977" d="M1633.7,151.631a2.084,2.084,0,0,0-3.4-.681l-1.228,1.228a2.052,2.052,0,0,0-.611,1.455,2.074,2.074,0,0,0,.613,1.5,1.992,1.992,0,0,0,1.4.615h.026a2.155,2.155,0,0,0,1.645-.732l1.1-1.1A2.076,2.076,0,0,0,1633.7,151.631Z" fill="#212427"/>
      <path id="Path_978" data-name="Path 978" d="M1637.723,155.133a2.061,2.061,0,0,0-1.465-.61l-.091,0a2.19,2.19,0,0,0-1.543.755l-1.065,1.066a2.068,2.068,0,0,0-.623,1.491,2.037,2.037,0,0,0,.6,1.47,2.1,2.1,0,0,0,1.485.6h0a2.093,2.093,0,0,0,1.476-.59l1.226-1.226a2.091,2.091,0,0,0,0-2.956Z" fill="#212427"/>
      <path id="Path_979" data-name="Path 979" d="M1629.8,146.867a2.055,2.055,0,0,0-1.847-1.289h-.061a2.1,2.1,0,0,0-1.492.612l-1.254,1.255a2.058,2.058,0,0,0,.034,2.919,2.112,2.112,0,0,0,2.964-.008l1.21-1.211A2.077,2.077,0,0,0,1629.8,146.867Z" fill="#212427"/>
      <path id="Path_980" data-name="Path 980" d="M1641.729,157.7a2.073,2.073,0,0,0-1.476.611l-1.211,1.212a2.064,2.064,0,0,0-.624,1.49,2.031,2.031,0,0,0,.6,1.471,2.151,2.151,0,0,0,2.962.008l1.212-1.213a2.071,2.071,0,0,0,.622-1.491,2.038,2.038,0,0,0-.6-1.47A2.087,2.087,0,0,0,1641.729,157.7Z" fill="#212427"/>
      <path id="Path_981" data-name="Path 981" d="M1647.221,136.357l-.313.2a6.077,6.077,0,0,1-7.483-.837l-2.514-2.515,3.529-3.529-.291-.327a10.6,10.6,0,0,0-7.6-3.524,10.4,10.4,0,0,0-10.682,10.676,10.584,10.584,0,0,0,3.513,7.594l.248.222.29-.164a4.041,4.041,0,0,1,5.984,3.788l-.035.449.447.048a4.094,4.094,0,0,1,3.482,3.705l.02.452.522-.01a4.049,4.049,0,0,1,3.8,2.968l.113.458.456-.119a4,4,0,0,1,3.826,1l.329.316.01-.01.318.134a2.137,2.137,0,0,0,2.294-.448,2.092,2.092,0,0,0,0-2.954l-6.058-6.057,1.373-1.374,6.058,6.058a2.089,2.089,0,1,0,2.954-2.954l-6.058-6.058,1.373-1.373,6.043,6.043a2.073,2.073,0,0,0,1.492.623,2.039,2.039,0,0,0,1.47-.6,2.1,2.1,0,0,0,.007-2.962Z" fill="#212427"/>
      <path id="Path_982" data-name="Path 982" d="M1658.72,128.9c-3.409-3.409-9.464-4.88-14.709-.051l-4.353,4.352,1.141,1.142a4.092,4.092,0,0,0,5.782,0l.687-.687,10.24,10.241c.048.048.094.1.138.145l.327.362.811-.811C1663.6,138.363,1662.128,132.309,1658.72,128.9Z" fill="#212427"/>
    </g>
    <rect id="Rectangle_2073" data-name="Rectangle 2073" width="40" height="40" transform="translate(-2029 1855)" fill="none"/>
  </g>
</svg>
