<svg xmlns="http://www.w3.org/2000/svg" width="40" height="40" viewBox="0 0 40 40">
  <g id="icon-manage-distribution" transform="translate(-1736.333 -127.413)">
    <path id="Path_975" data-name="Path 975" d="M1764.927,148.585a1.172,1.172,0,0,1,0-2.344h1.1a9.784,9.784,0,0,0-8.523-8.523v1.1a1.172,1.172,0,1,1-2.344,0v-1.1a9.785,9.785,0,0,0-8.523,8.523h1.1a1.172,1.172,0,0,1,0,2.344h-1.1a9.784,9.784,0,0,0,8.523,8.523v-1.1a1.172,1.172,0,1,1,2.344,0v1.1a9.783,9.783,0,0,0,8.523-8.523Zm-7.422-1.172a1.172,1.172,0,0,1-.343.829l-2.344,2.343a1.172,1.172,0,0,1-1.657-1.657l2-2v-4.2a1.172,1.172,0,1,1,2.344,0Z" fill="#212427"/>
    <path id="Path_976" data-name="Path 976" d="M1775.161,143.116h-1.78a17.352,17.352,0,0,0-1.955-4.719l1.259-1.259a1.171,1.171,0,0,0,0-1.657l-4.419-4.42a1.174,1.174,0,0,0-1.658,0l-1.259,1.259a17.35,17.35,0,0,0-4.719-1.955v-1.78a1.172,1.172,0,0,0-1.172-1.172h-6.25a1.172,1.172,0,0,0-1.172,1.172v1.78a17.35,17.35,0,0,0-4.719,1.955l-1.259-1.259a1.173,1.173,0,0,0-1.657,0l-4.42,4.42a1.173,1.173,0,0,0,0,1.657l1.259,1.259a17.352,17.352,0,0,0-1.955,4.719h-1.78a1.172,1.172,0,0,0-1.172,1.172v6.25a1.172,1.172,0,0,0,1.172,1.172h1.78a17.352,17.352,0,0,0,1.955,4.719l-1.259,1.259a1.174,1.174,0,0,0,0,1.658l4.42,4.419a1.171,1.171,0,0,0,1.657,0l1.259-1.259a17.35,17.35,0,0,0,4.719,1.955v1.78a1.172,1.172,0,0,0,1.172,1.172h6.25a1.172,1.172,0,0,0,1.172-1.172v-1.78a17.35,17.35,0,0,0,4.719-1.955l1.259,1.259a1.172,1.172,0,0,0,1.658,0l4.419-4.419a1.172,1.172,0,0,0,0-1.658l-1.259-1.259a17.352,17.352,0,0,0,1.955-4.719h1.78a1.172,1.172,0,0,0,1.172-1.172v-6.25a1.172,1.172,0,0,0-1.172-1.172Zm-18.828,16.407a12.109,12.109,0,1,1,12.11-12.11A12.123,12.123,0,0,1,1756.333,159.523Z" fill="#212427"/>
  </g>
</svg>
