<svg xmlns="http://www.w3.org/2000/svg" width="40" height="40" viewBox="0 0 40 40">
  <g id="icon-everyone-to-verify" transform="translate(1631 -1860)">
    <g id="Group_2927" data-name="Group 2927" transform="translate(-3255.323 1615.436)">
      <path id="Path_985" data-name="Path 985" d="M1663.272,266.237a4.114,4.114,0,0,0-3.065-6.861h-7.989a26.606,26.606,0,0,0,1.128-6.952v-1.372a5.494,5.494,0,0,0-5.488-5.488h-1.372a1.372,1.372,0,0,0-1.331,1.039l-.747,2.99c-1.019,4.071-4.189,8.54-7.527,9.558v22.71l4.314,1.438a15.064,15.064,0,0,0,4.773.775h11.495a4.118,4.118,0,0,0,3.827-5.633,4.114,4.114,0,0,0,1.982-6.716,4.108,4.108,0,0,0,0-5.488Z" fill="#212427"/>
      <path id="Path_986" data-name="Path 986" d="M1631.4,257.212h-5.793a1.291,1.291,0,0,0-1.287,1.287v23.815a1.291,1.291,0,0,0,1.287,1.287h5.793a2.582,2.582,0,0,0,2.575-2.574V259.786A2.582,2.582,0,0,0,1631.4,257.212Zm-2.253,23.815a1.931,1.931,0,1,1,1.931-1.931A1.932,1.932,0,0,1,1629.15,281.027Z" fill="#212427"/>
    </g>
    <rect id="Rectangle_2076" data-name="Rectangle 2076" width="40" height="40" transform="translate(-1631 1860)" fill="none"/>
  </g>
</svg>
