<svg xmlns="http://www.w3.org/2000/svg" width="39.996" height="40" viewBox="0 0 39.996 40">
  <path id="icon-motivational-quotes" d="M2001.925,145.393a20.007,20.007,0,0,0-39.995,0v.033a18.876,18.876,0,0,0,6.275,13.956v4.835a1.983,1.983,0,0,0,1.558,1.944,2.024,2.024,0,0,0,.4.041,1.946,1.946,0,0,0,1.035-.3l3.885-2.427a20.542,20.542,0,0,0,6.8,1.156h.029c.128,0,.256,0,.384,0a19.638,19.638,0,0,0,19.623-19.191v-.053Zm-27-7.992a2.666,2.666,0,1,1-2.667,2.666A2.667,2.667,0,0,1,1974.928,137.4Zm16.011,12.481a9.657,9.657,0,0,1-18.022,0,1.333,1.333,0,1,1,2.487-.962,6.99,6.99,0,0,0,13.048,0,1.333,1.333,0,1,1,2.487.962Zm-2.011-7.148a2.666,2.666,0,1,1,2.667-2.667A2.667,2.667,0,0,1,1988.928,142.734Z" transform="translate(-1961.93 -126.203)"/>
</svg>
