<svg xmlns="http://www.w3.org/2000/svg" width="40" height="40" viewBox="0 0 40 40">
  <g id="icon-charity-points" transform="translate(1870 -1856)">
    <g id="Group_2923" data-name="Group 2923" transform="translate(-3731.163 1729.105)">
      <path id="Path_972" data-name="Path 972" d="M1881.163,163.147a4.725,4.725,0,0,1-2.1-.5,48.823,48.823,0,0,1-9.415-6.162c-4.705-4-7.494-8.285-8.289-12.748a12.151,12.151,0,0,1,2.419-9.711,10.743,10.743,0,0,1,7.964-4.12c.185-.009.372-.014.556-.014a11.113,11.113,0,0,1,7.82,3.192,11.428,11.428,0,0,1,1.048,1.181,11.195,11.195,0,0,1,8.868-4.373c.184,0,.371,0,.555.014a10.743,10.743,0,0,1,7.965,4.121,12.148,12.148,0,0,1,2.419,9.71c-.795,4.463-3.584,8.752-8.289,12.748a48.861,48.861,0,0,1-9.415,6.162,4.726,4.726,0,0,1-2.1.5Z"/>
      <g id="Group_2909" data-name="Group 2909">
        <path id="Path_973" data-name="Path 973" d="M1871.829,145.788h3.521v-3.52h2.1v3.52h3.52v2.1h-3.52v3.52h-2.1v-3.52h-3.521Z" fill="#fff"/>
        <path id="Path_974" data-name="Path 974" d="M1886.76,142.885l-2.369,2.085-1.417-1.634,3.853-3.254h2.336v11.812h-2.4Z" fill="#fff"/>
      </g>
    </g>
    <rect id="Rectangle_2074" data-name="Rectangle 2074" width="40" height="40" transform="translate(-1870 1856)" fill="none"/>
  </g>
</svg>
