<svg xmlns="http://www.w3.org/2000/svg" width="40" height="40" viewBox="0 0 40 40">
  <g id="icon-seek-for-help" transform="translate(-1523.669 -123.948)">
    <g id="Layer_1" data-name="Layer 1">
      <g id="Group_2903" data-name="Group 2903">
        <path id="Path_969" data-name="Path 969" d="M1562.721,158.356l-9.2-9.323a16.462,16.462,0,0,0,2.47-8.7,16.165,16.165,0,1,0-16.164,16.384,15.941,15.941,0,0,0,9.232-2.938l9.087,9.212a3.206,3.206,0,0,0,4.572,0A3.308,3.308,0,0,0,1562.721,158.356Zm-22.89-6.948a11.076,11.076,0,1,1,10.925-11.075A11,11,0,0,1,1539.831,151.408Z" fill="#212427"/>
      </g>
    </g>
    <g id="Layer_5" data-name="Layer 5">
      <g id="Group_2905" data-name="Group 2905">
        <g id="Group_2904" data-name="Group 2904">
          <path id="Path_970" data-name="Path 970" d="M1540.107,137.31a2.87,2.87,0,1,0,2.871,2.871A2.873,2.873,0,0,0,1540.107,137.31Zm-.217,2.019a.659.659,0,0,0-.654.654h-.95a1.623,1.623,0,0,1,1.6-1.6Z" fill="#212427"/>
        </g>
      </g>
      <g id="Group_2907" data-name="Group 2907">
        <g id="Group_2906" data-name="Group 2906">
          <path id="Path_971" data-name="Path 971" d="M1548.818,139.587c-.97-1.208-4.434-5.147-8.711-5.147s-7.74,3.939-8.71,5.147a.95.95,0,0,0,0,1.188c.97,1.207,4.434,5.147,8.71,5.147s7.741-3.94,8.711-5.147A.953.953,0,0,0,1548.818,139.587Zm-8.711,4.751a4.158,4.158,0,1,1,4.158-4.157A4.157,4.157,0,0,1,1540.107,144.338Z" fill="#212427"/>
        </g>
      </g>
    </g>
  </g>
</svg>
